SplineFontDB: 3.2
FontName: IllusionBook-Regular
FullName: Illusion Book Regular
FamilyName: Illusion Book
Weight: mangal
Copyright: Copyright (c) 2024, Steven Liu
UComments: "2024-2-3: Created with FontForge (http://fontforge.org)"
Version: 
ItalicAngle: 0
UnderlinePosition: -100
UnderlineWidth: 50
Ascent: 900
Descent: 300
InvalidEm: 0
LayerCount: 2
Layer: 0 0 "+gMxmbwAA" 1
Layer: 1 0 "+Uk1mbwAA" 0
XUID: [1021 275 -1940783541 9889977]
StyleMap: 0x0040
FSType: 0
OS2Version: 0
OS2_WeightWidthSlopeOnly: 0
OS2_UseTypoMetrics: 1
CreationTime: 1706971776
ModificationTime: 1715949001
PfmFamily: 17
TTFWeight: 400
TTFWidth: 5
LineGap: 300
VLineGap: 9000
OS2TypoAscent: 0
OS2TypoAOffset: 1
OS2TypoDescent: 0
OS2TypoDOffset: 1
OS2TypoLinegap: 300
OS2WinAscent: 0
OS2WinAOffset: 1
OS2WinDescent: 0
OS2WinDOffset: 1
HheadAscent: 0
HheadAOffset: 1
HheadDescent: 0
HheadDOffset: 1
OS2CapHeight: 800
OS2XHeight: 600
OS2Vendor: 'PfEd'
OS2UnicodeRanges: a00002af.5000004a.00000000.00000000
Lookup: 3 0 0 "'aalt' Access All Alternates lookup 0" { "'aalt' Access All Alternates lookup 0 subtable"  } ['aalt' ('hani' <'dflt' > ) ]
Lookup: 1 0 0 "'zero' Slashed Zero lookup 12" { "'zero' Slashed Zero lookup 12-1"  } ['zero' ('DFLT' <'dflt' > 'cyrl' <'dflt' > 'grek' <'dflt' > 'latn' <'dflt' > ) ]
Lookup: 1 0 0 "'fina' Terminal Forms lookup 5" { "'fina' Terminal Forms lookup 5-1"  } ['fina' ('DFLT' <'dflt' > 'cyrl' <'dflt' > 'grek' <'dflt' > 'latn' <'dflt' > ) ]
Lookup: 1 0 0 "'smcp' Lowercase to Small Capitals lookup 8" { "'smcp' Lowercase to Small Capitals lookup 8-1" ("sc") } ['smcp' ('DFLT' <'dflt' > 'cyrl' <'dflt' > 'grek' <'dflt' > 'latn' <'dflt' > ) ]
Lookup: 1 0 0 "'c2sc' Capitals to Small Capitals lookup 7" { "'c2sc' Capitals to Small Capitals lookup 7-1" ("sc") } ['c2sc' ('DFLT' <'dflt' > 'cyrl' <'dflt' > 'grek' <'dflt' > 'latn' <'dflt' > ) ]

StartChar: A
Encoding: 0 65 0
Width: 775
VWidth: -31072
GlyphClass: 2
Flags: W
HStem: 0 300<100 200 500 600> 0 100<0 100 200 300 400 500 600 700> 300 300<200 300 400 500> 300 100<300 400> 600 200<300 400>
VStem: 100 100<100 300> 200 100<400 600> 400 100<400 600> 500 100<100 300>
LayerCount: 2
Fore
SplineSet
300 600 m 1x23
 300 400 l 1
 400 400 l 1x13
 400 600 l 1
 300 600 l 1x23
0 0 m 1x42
 0 100 l 1
 100 100 l 1x44
 100 300 l 1
 200 300 l 1x84
 200 100 l 1x44
 300 100 l 1
 300 0 l 1
 0 0 l 1x42
400 0 m 1x41
 400 100 l 1x41
 500 100 l 1x4080
 500 300 l 1
 200 300 l 1x8480
 200 600 l 1
 300 600 l 1x22
 300 800 l 1
 400 800 l 1x0b
 400 600 l 1
 500 600 l 1x23
 500 300 l 1
 600 300 l 1x8080
 600 100 l 1x4080
 700 100 l 1
 700 0 l 1
 400 0 l 1x41
EndSplineSet
Validated: 5
AlternateSubs2: "'aalt' Access All Alternates lookup 0 subtable" a.sc
EndChar

StartChar: B
Encoding: 1 66 1
Width: 625
VWidth: -31072
GlyphClass: 2
Flags: W
HStem: 0 100<0 100 200 400> 400 100<200 400> 700 100<0 100 200 400>
VStem: 100 100<100 400 500 700> 400 100<100 400 500 700>
LayerCount: 2
Fore
SplineSet
0 700 m 1
 0 800 l 1
 400 800 l 1
 400 700 l 1
 500 700 l 1
 500 500 l 1
 400 500 l 1
 400 400 l 1
 500 400 l 1
 500 100 l 1
 400 100 l 1
 400 0 l 1
 0 0 l 1
 0 100 l 1
 100 100 l 1
 100 700 l 1
 0 700 l 1
400 100 m 1
 400 400 l 1
 200 400 l 1
 200 100 l 1
 400 100 l 1
400 500 m 1
 400 700 l 1
 200 700 l 1
 200 500 l 1
 400 500 l 1
EndSplineSet
Validated: 5
AlternateSubs2: "'aalt' Access All Alternates lookup 0 subtable" b.sc
EndChar

StartChar: C
Encoding: 2 67 2
Width: 600
GlyphClass: 2
Flags: W
HStem: 0 100<200 400> 100 100<100 200 400 500> 580 20G<0 100> 600 100<100 200> 700 100<200 400>
VStem: 0 100<200 600> 100 100<100 200 600 700> 200 200<0 100> 400 100<100 200 600 700>
LayerCount: 2
Fore
SplineSet
400 200 m 1x4080
 500 200 l 1
 500 100 l 1x4080
 400 100 l 1
 400 0 l 1
 200 0 l 1x81
 200 100 l 1x82
 100 100 l 1x42
 100 200 l 1x44
 200 200 l 1x42
 200 100 l 1x82
 400 100 l 1x81
 400 200 l 1x4080
200 800 m 1x09
 500 800 l 1x0880
 500 600 l 1
 400 600 l 1x1080
 400 700 l 1x0880
 200 700 l 1
 200 600 l 1x1280
 100 600 l 1x24
 100 700 l 1
 200 700 l 1x12
 200 800 l 1x09
100 600 m 1x64
 100 200 l 1
 0 200 l 1
 0 600 l 1
 100 600 l 1x64
EndSplineSet
Validated: 5
AlternateSubs2: "'aalt' Access All Alternates lookup 0 subtable" c.sc
EndChar

StartChar: D
Encoding: 3 68 3
Width: 700
GlyphClass: 2
Flags: W
HStem: 0 100<0 100 200 400> 100 100<400 500> 600 100<400 500> 700 100<0 100 200 400>
VStem: 100 100<100 700> 400 100<100 200 600 700> 500 100<200 600>
LayerCount: 2
Fore
SplineSet
0 700 m 1x9c
 0 800 l 1
 400 800 l 1x9c
 400 700 l 1
 500 700 l 1
 500 600 l 1x2c
 600 600 l 1
 600 200 l 1x6a
 500 200 l 1
 500 100 l 1x6c
 400 100 l 1x8c
 400 200 l 1
 500 200 l 1
 500 600 l 1
 400 600 l 1
 400 700 l 1x6c
 200 700 l 1
 200 100 l 1
 400 100 l 1
 400 0 l 1
 0 0 l 1
 0 100 l 1
 100 100 l 1
 100 700 l 1
 0 700 l 1x9c
EndSplineSet
Validated: 5
AlternateSubs2: "'aalt' Access All Alternates lookup 0 subtable" d.sc
EndChar

StartChar: E
Encoding: 4 69 4
Width: 600
GlyphClass: 2
Flags: W
HStem: 0 200<400 500> 0 100<0 100 200 400> 300 200<300 400> 400 100<200 300> 600 200<400 500> 700 100<0 100 200 400>
VStem: 100 100<100 400 500 700> 300 100<300 400> 400 100<100 200 600 700>
LayerCount: 2
Fore
SplineSet
400 200 m 1x8280
 500 200 l 1
 500 0 l 1x8280
 0 0 l 1
 0 100 l 1
 100 100 l 1
 100 700 l 1
 0 700 l 1
 0 800 l 1x4680
 500 800 l 1
 500 600 l 1
 400 600 l 1x0a80
 400 700 l 1
 200 700 l 1
 200 500 l 1x1680
 400 500 l 1x2280
 400 300 l 1
 300 300 l 1x23
 300 400 l 1x13
 200 400 l 1
 200 100 l 1
 400 100 l 1x5280
 400 200 l 1x8280
EndSplineSet
Validated: 1
AlternateSubs2: "'aalt' Access All Alternates lookup 0 subtable" e.sc
EndChar

StartChar: F
Encoding: 5 70 5
Width: 600
GlyphClass: 2
Flags: W
HStem: 0 100<0 100 200 300> 300 200<300 400> 400 100<200 300> 600 200<400 500> 700 100<0 100 200 400>
VStem: 100 100<100 400 500 700> 300 100<300 400> 400 100<600 700>
LayerCount: 2
Fore
SplineSet
200 100 m 1xa6
 300 100 l 1
 300 0 l 1
 0 0 l 1
 0 100 l 1
 100 100 l 1
 100 700 l 1
 0 700 l 1
 0 800 l 1xae
 500 800 l 1
 500 600 l 1
 400 600 l 1x95
 400 700 l 1
 200 700 l 1
 200 500 l 1xad
 400 500 l 1xc5
 400 300 l 1
 300 300 l 1xc6
 300 400 l 1
 200 400 l 1
 200 100 l 1xa6
EndSplineSet
Validated: 1
AlternateSubs2: "'aalt' Access All Alternates lookup 0 subtable" f.sc
EndChar

StartChar: G
Encoding: 6 71 6
Width: 700
GlyphClass: 2
Flags: W
HStem: 0 100<200 400> 100 100<100 200> 300 100<300 400 500 600> 600 100<100 200> 700 100<200 400>
VStem: 0 100<200 600> 100 100<100 200 600 700> 200 200<0 100> 400 100<100 300 600 700>
LayerCount: 2
Fore
SplineSet
200 800 m 1x29
 500 800 l 1x2880
 500 600 l 1
 400 600 l 1x3080
 400 700 l 1x2880
 200 700 l 1x3280
 200 800 l 1x29
400 100 m 1xa1
 400 300 l 1
 300 300 l 1
 300 400 l 1
 500 400 l 1
 600 400 l 1
 600 300 l 1
 500 300 l 1
 500 100 l 1x6080
 400 100 l 1xa1
400 100 m 1xa1
 400 0 l 1
 200 0 l 1xa1
 200 100 l 1xa2
 400 100 l 1xa1
200 100 m 1xa2
 100 100 l 1x62
 100 200 l 1
 0 200 l 1
 0 600 l 1
 100 600 l 1x74
 100 700 l 1
 200 700 l 1
 200 600 l 1x72
 100 600 l 1
 100 200 l 1x74
 200 200 l 1x72
 200 100 l 1xa2
EndSplineSet
Validated: 5
AlternateSubs2: "'aalt' Access All Alternates lookup 0 subtable" g.sc
Comment: "G+doRnAFQOTgB7FE4OXyd+v3aEj95jpVkElwCJgVGNWQR0Bk4ATgv/DFQMZfZnAFQOTgB7FHaEiGx+v1coa2RbvV6mTgtmPl+XWSpZJwAA"
EndChar

StartChar: H
Encoding: 7 72 7
Width: 800
GlyphClass: 2
Flags: W
HStem: 0 100<0 100 200 300 400 500 600 700> 400 100<200 500> 700 100<0 100 200 300 400 500 600 700>
VStem: 0 300<0 100 700 800> 100 100<100 400 500 700> 400 300<0 100 700 800> 500 100<100 400 500 700>
LayerCount: 2
Fore
SplineSet
0 800 m 1xf0
 300 800 l 1
 300 700 l 1xf0
 200 700 l 1
 200 500 l 1
 500 500 l 1
 500 700 l 1xea
 400 700 l 1
 400 800 l 1
 700 800 l 1
 700 700 l 1xe4
 600 700 l 1
 600 100 l 1xe2
 700 100 l 1
 700 0 l 1
 400 0 l 1
 400 100 l 1xe4
 500 100 l 1
 500 400 l 1
 200 400 l 1
 200 100 l 1xea
 300 100 l 1
 300 0 l 1
 0 0 l 1
 0 100 l 1xf0
 100 100 l 1
 100 700 l 1xe8
 0 700 l 1
 0 800 l 1xf0
EndSplineSet
Validated: 1
AlternateSubs2: "'aalt' Access All Alternates lookup 0 subtable" h.sc
EndChar

StartChar: I
Encoding: 8 73 8
Width: 400
GlyphClass: 2
Flags: W
HStem: 0 100<0 100 200 300> 700 100<0 100 200 300>
VStem: 0 300<0 100 700 800>
LayerCount: 2
Fore
SplineSet
0 800 m 1
 300 800 l 1
 300 700 l 1
 200 700 l 1
 200 100 l 1
 300 100 l 1
 300 0 l 1
 0 0 l 1
 0 100 l 1
 100 100 l 1
 100 700 l 1
 0 700 l 1
 0 800 l 1
EndSplineSet
Validated: 1
AlternateSubs2: "'aalt' Access All Alternates lookup 0 subtable" i.sc
EndChar

StartChar: J
Encoding: 9 74 9
Width: 400
GlyphClass: 2
Flags: W
HStem: -200 200<-100 0> -200 100<0 100> 700 100<0 100 200 300>
VStem: -100 200<-200 -100> -100 100<-100 0> 100 100<-100 700>
LayerCount: 2
Fore
SplineSet
0 800 m 1x6c
 300 800 l 1
 300 700 l 1
 200 700 l 1
 200 -100 l 1x6c
 100 -100 l 1x70
 100 700 l 1
 0 700 l 1
 0 800 l 1x6c
100 -100 m 1x70
 100 -200 l 1x70
 -100 -200 l 1xb0
 -100 0 l 1
 0 0 l 1xa8
 0 -100 l 1x68
 100 -100 l 1x70
EndSplineSet
Validated: 5
AlternateSubs2: "'aalt' Access All Alternates lookup 0 subtable" j.sc
EndChar

StartChar: K
Encoding: 10 75 10
Width: 700
GlyphClass: 2
Flags: W
HStem: 0 200<400 500> 0 100<0 100 200 300 500 600> 200 200<300 400> 500 100<300 400> 600 200<400 500> 700 100<0 100 200 300 500 600>
VStem: 0 300<0 100 700 800> 100 200<400 500> 100 100<100 400 500 700> 300 100<200 400 500 600> 400 200<0 100 700 800> 400 100<100 200 600 700>
LayerCount: 2
Fore
SplineSet
400 800 m 1x0820
 600 800 l 1
 600 700 l 1x0420
 500 700 l 1x0410
 500 600 l 1x0810
 400 600 l 1x1040
 400 800 l 1x0820
0 800 m 1x66
 300 800 l 1
 300 700 l 1x66
 200 700 l 1
 200 500 l 1x7480
 300 500 l 1x75
 300 600 l 1
 400 600 l 1
 400 500 l 1x7440
 300 500 l 1
 300 400 l 1x75
 400 400 l 1x7440
 400 200 l 1x8040
 500 200 l 1x8010
 500 100 l 1x4010
 600 100 l 1
 600 0 l 1x4020
 400 0 l 1x8020
 400 200 l 1x8040
 300 200 l 1x2040
 300 400 l 1x21
 200 400 l 1
 200 100 l 1x6080
 300 100 l 1
 300 0 l 1
 0 0 l 1
 0 100 l 1x62
 100 100 l 1
 100 700 l 1x6480
 0 700 l 1
 0 800 l 1x66
EndSplineSet
Validated: 5
AlternateSubs2: "'aalt' Access All Alternates lookup 0 subtable" k.sc
EndChar

StartChar: L
Encoding: 11 76 11
Width: 600
GlyphClass: 2
Flags: W
HStem: 0 200<400 500> 0 100<0 100 200 400> 700 100<0 100 200 300>
VStem: 100 100<100 700> 400 100<100 200>
LayerCount: 2
Fore
SplineSet
400 200 m 1xb8
 500 200 l 1
 500 0 l 1xb8
 0 0 l 1
 0 100 l 1
 100 100 l 1
 100 700 l 1
 0 700 l 1
 0 800 l 1
 300 800 l 1
 300 700 l 1
 200 700 l 1
 200 100 l 1
 400 100 l 1x78
 400 200 l 1xb8
EndSplineSet
Validated: 1
AlternateSubs2: "'aalt' Access All Alternates lookup 0 subtable" l.sc
EndChar

StartChar: M
Encoding: 12 77 12
Width: 1000
GlyphClass: 2
Flags: W
HStem: 0 100<0 100 200 300 600 700 800 900> 100 200<400 500> 300 300<300 400 500 600> 600 200<200 300 600 700> 700 100<0 100 800 900>
VStem: 0 300<0 100 700 800> 100 200<600 700> 300 100<300 600> 500 100<300 600> 600 300<0 100 700 800> 600 200<600 700>
LayerCount: 2
Fore
SplineSet
0 700 m 1x8c
 0 800 l 1x8c
 300 800 l 1x14
 300 600 l 1x22
 400 600 l 1x21
 400 300 l 1
 500 300 l 1x4180
 500 600 l 1
 600 600 l 1x2180
 600 800 l 1x1040
 900 800 l 1
 900 700 l 1x0840
 800 700 l 1
 800 100 l 1x8820
 900 100 l 1
 900 0 l 1
 600 0 l 1
 600 100 l 1
 700 100 l 1
 700 600 l 1x9040
 600 600 l 1
 600 300 l 1x2080
 500 300 l 1
 500 100 l 1
 400 100 l 1
 400 300 l 1x4180
 300 300 l 1x2180
 300 600 l 1x22
 200 600 l 1
 200 100 l 1
 300 100 l 1
 300 0 l 1
 0 0 l 1
 0 100 l 1x94
 100 100 l 1
 100 700 l 1x8a
 0 700 l 1x8c
EndSplineSet
Validated: 5
AlternateSubs2: "'aalt' Access All Alternates lookup 0 subtable" m.sc
EndChar

StartChar: N
Encoding: 13 78 13
Width: 775
GlyphClass: 2
Flags: W
HStem: 0 100<0 100 200 300> 100 200<400 500> 300 200<300 400> 500 200<200 300> 700 100<0 100 400 500 600 700>
VStem: 0 200<700 800> 100 200<500 700> 100 100<100 500> 300 100<300 500> 400 200<100 300> 500 100<0 100 300 700>
LayerCount: 2
Fore
SplineSet
200 100 m 1x91
 300 100 l 1
 300 0 l 1
 0 0 l 1
 0 100 l 1x9480
 100 100 l 1x91
 100 700 l 1x8a
 0 700 l 1
 0 800 l 1
 200 800 l 1x8c
 200 700 l 1x14
 300 700 l 1x12
 300 500 l 1x22
 400 500 l 1x2080
 400 300 l 1
 500 300 l 1
 500 700 l 1x48a0
 400 700 l 1
 400 800 l 1x4840
 700 800 l 1
 700 700 l 1
 600 700 l 1
 600 0 l 1
 500 0 l 1x8820
 500 100 l 1x4020
 400 100 l 1x4040
 400 300 l 1x4080
 300 300 l 1x2080
 300 500 l 1x22
 200 500 l 1
 200 100 l 1x91
EndSplineSet
Validated: 5
AlternateSubs2: "'aalt' Access All Alternates lookup 0 subtable" n.sc
EndChar

StartChar: O
Encoding: 14 79 14
Width: 800
GlyphClass: 2
Flags: W
HStem: 0 100<200 500> 100 100<100 200 500 600> 600 100<100 200 500 600> 700 100<200 500>
VStem: 0 100<200 600> 100 100<100 200 600 700> 200 300<0 100 700 800> 500 100<100 200 600 700> 600 100<200 600>
LayerCount: 2
Fore
SplineSet
200 800 m 1x12
 500 800 l 1x12
 500 700 l 1x22
 600 700 l 1
 600 600 l 1x21
 700 600 l 1
 700 200 l 1x6080
 600 200 l 1
 600 100 l 1x61
 500 100 l 1
 500 0 l 1
 200 0 l 1x82
 200 100 l 1x84
 500 100 l 1x82
 500 200 l 1
 600 200 l 1
 600 600 l 1
 500 600 l 1x61
 500 700 l 1x62
 200 700 l 1x64
 200 800 l 1x12
0 200 m 1x68
 0 600 l 1
 100 600 l 1x68
 100 700 l 1
 200 700 l 1
 200 600 l 1x64
 100 600 l 1
 100 200 l 1
 0 200 l 1x68
200 100 m 1x84
 100 100 l 1x44
 100 200 l 1x48
 200 200 l 1x44
 200 100 l 1x84
EndSplineSet
Validated: 5
AlternateSubs2: "'aalt' Access All Alternates lookup 0 subtable" o.sc
EndChar

StartChar: P
Encoding: 15 80 15
Width: 600
GlyphClass: 2
Flags: W
HStem: 0 100<0 100 200 300> 300 100<200 400> 700 100<0 100 200 400>
VStem: 100 100<100 300 400 700> 400 100<400 700>
LayerCount: 2
Fore
SplineSet
0 800 m 1
 400 800 l 1
 400 700 l 1
 500 700 l 1
 500 400 l 1
 400 400 l 1
 400 300 l 1
 200 300 l 1
 200 100 l 1
 300 100 l 1
 300 0 l 1
 0 0 l 1
 0 100 l 1
 100 100 l 1
 100 700 l 1
 0 700 l 1
 0 800 l 1
400 400 m 1
 400 700 l 1
 200 700 l 1
 200 400 l 1
 400 400 l 1
EndSplineSet
Validated: 5
AlternateSubs2: "'aalt' Access All Alternates lookup 0 subtable" p.sc
EndChar

StartChar: Q
Encoding: 16 81 16
Width: 800
GlyphClass: 2
Flags: W
HStem: -200 100<400 600> -100 200<300 400> 0 100<200 300 400 500> 100 100<100 200 500 600> 600 100<100 200 500 600> 700 100<200 500>
VStem: 0 100<200 600> 100 100<100 200 600 700> 200 300<0 100 700 800> 300 100<-100 0> 400 200<-200 -100> 500 100<100 200 600 700> 600 100<200 600>
LayerCount: 2
Fore
SplineSet
200 800 m 1x0480
 500 800 l 1x0480
 500 700 l 1x0880
 600 700 l 1
 600 600 l 1x0810
 700 600 l 1
 700 200 l 1x1808
 600 200 l 1
 600 100 l 1x1810
 500 100 l 1
 500 0 l 1x2080
 400 0 l 1
 400 -100 l 1xa040
 600 -100 l 1
 600 -200 l 1
 400 -200 l 1xa020
 400 -100 l 1xa040
 300 -100 l 1x4040
 300 0 l 1x2040
 200 0 l 1x2080
 200 100 l 1x21
 500 100 l 1x2080
 500 200 l 1
 600 200 l 1
 600 600 l 1
 500 600 l 1x1810
 500 700 l 1x1880
 200 700 l 1x19
 200 800 l 1x0480
200 100 m 1x21
 100 100 l 1x11
 100 200 l 1
 0 200 l 1
 0 600 l 1
 100 600 l 1x1a
 100 700 l 1
 200 700 l 1
 200 600 l 1x19
 100 600 l 1
 100 200 l 1x1a
 200 200 l 1x19
 200 100 l 1x21
EndSplineSet
AlternateSubs2: "'aalt' Access All Alternates lookup 0 subtable" Q.swash
EndChar

StartChar: R
Encoding: 17 82 17
Width: 675
GlyphClass: 2
Flags: W
HStem: 0 200<400 500> 0 100<0 100 200 300 500 600> 200 200<300 400> 300 100<200 300> 700 100<0 100 200 400>
VStem: 100 100<100 300 400 700> 300 100<200 300> 400 200<0 100> 400 100<100 200 400 700>
LayerCount: 2
Fore
SplineSet
0 800 m 1x5e
 400 800 l 1
 400 700 l 1
 500 700 l 1
 500 400 l 1x5c80
 400 400 l 1x2c80
 400 200 l 1x8e
 500 200 l 1x8c80
 500 100 l 1x4c80
 600 100 l 1
 600 0 l 1x4d
 400 0 l 1x8d
 400 200 l 1x8e
 300 200 l 1x2e
 300 300 l 1
 200 300 l 1
 200 100 l 1
 300 100 l 1
 300 0 l 1
 0 0 l 1
 0 100 l 1
 100 100 l 1
 100 700 l 1
 0 700 l 1
 0 800 l 1x5e
400 400 m 1x2c80
 400 700 l 1
 200 700 l 1
 200 400 l 1x1c80
 400 400 l 1x2c80
EndSplineSet
Validated: 5
AlternateSubs2: "'aalt' Access All Alternates lookup 0 subtable" r.sc
EndChar

StartChar: S
Encoding: 18 83 18
Width: 650
GlyphClass: 2
Flags: W
HStem: 0 100<250 450> 100 200<450 550> 100 100<150 250> 300 100<350 450> 400 100<150 350> 500 200<50 150> 600 100<350 450> 700 100<150 350>
VStem: 50 200<100 200> 50 100<0 100 500 700> 150 200<400 500 700 800> 250 200<0 100> 350 100<300 400> 450 100<100 300 700 800>
LayerCount: 2
Fore
SplineSet
50 0 m 1x8040
 50 200 l 1
 250 200 l 1x2080
 250 100 l 1x8080
 150 100 l 1x2040
 150 0 l 1
 50 0 l 1x8040
150 800 m 1x0120
 350 800 l 1x0120
 350 700 l 1x0220
 150 700 l 1x0440
 150 500 l 1x0840
 350 500 l 1x0820
 350 400 l 1x1020
 450 400 l 1x1008
 450 300 l 1x4008
 550 300 l 1
 550 100 l 1x4004
 450 100 l 1
 450 0 l 1
 250 0 l 1x8010
 250 100 l 1x8080
 450 100 l 1x8010
 450 300 l 1x4008
 350 300 l 1x1008
 350 400 l 1x1020
 150 400 l 1x0820
 150 500 l 1x0840
 50 500 l 1
 50 700 l 1
 150 700 l 1x0440
 150 800 l 1x0120
450 800 m 1x0124
 550 800 l 1x0124
 550 600 l 1x0224
 350 600 l 1x0208
 350 700 l 1
 450 700 l 1x0224
 450 800 l 1x0124
EndSplineSet
Validated: 5
AlternateSubs2: "'aalt' Access All Alternates lookup 0 subtable" s.sc
EndChar

StartChar: T
Encoding: 19 84 19
Width: 600
GlyphClass: 2
Flags: W
HStem: 0 100<100 200 300 400> 600 200<0 100 400 500> 700 100<100 200 300 400>
VStem: 0 100<600 700> 200 100<100 700> 400 100<600 700>
CounterMasks: 1 1c
LayerCount: 2
Fore
SplineSet
0 800 m 1xdc
 500 800 l 1
 500 600 l 1
 400 600 l 1xdc
 400 700 l 1
 300 700 l 1
 300 100 l 1
 400 100 l 1
 400 0 l 1
 100 0 l 1
 100 100 l 1
 200 100 l 1
 200 700 l 1
 100 700 l 1xbc
 100 600 l 1
 0 600 l 1
 0 800 l 1xdc
EndSplineSet
Validated: 1
AlternateSubs2: "'aalt' Access All Alternates lookup 0 subtable" t.sc
EndChar

StartChar: U
Encoding: 20 85 20
Width: 775
GlyphClass: 2
Flags: W
HStem: 0 100<200 500> 700 100<0 100 200 300 400 500 600 700>
VStem: 100 100<100 700> 500 100<100 700>
LayerCount: 2
Fore
SplineSet
400 800 m 1
 700 800 l 1
 700 700 l 1
 600 700 l 1
 600 100 l 1
 500 100 l 1
 500 700 l 1
 400 700 l 1
 400 800 l 1
0 800 m 1
 300 800 l 1
 300 700 l 1
 200 700 l 1
 200 100 l 1
 500 100 l 1
 500 0 l 1
 200 0 l 1
 200 100 l 1
 100 100 l 1
 100 700 l 1
 0 700 l 1
 0 800 l 1
EndSplineSet
Validated: 5
AlternateSubs2: "'aalt' Access All Alternates lookup 0 subtable" u.sc
EndChar

StartChar: V
Encoding: 21 86 21
Width: 800
GlyphClass: 2
Flags: W
HStem: 0 200<300 400> 200 300<200 300 400 500> 500 300<100 200 500 600> 700 100<0 100 200 300 400 500 600 700>
VStem: 100 100<500 700> 200 100<200 500> 300 100<0 200> 400 100<200 500> 500 100<500 700>
LayerCount: 2
Fore
SplineSet
400 800 m 1x51
 700 800 l 1
 700 700 l 1
 600 700 l 1x5080
 600 500 l 1x2080
 500 500 l 1
 500 200 l 1x41
 400 200 l 1
 400 0 l 1
 300 0 l 1x82
 300 200 l 1x84
 400 200 l 1x82
 400 500 l 1
 500 500 l 1x41
 500 700 l 1x5080
 400 700 l 1
 400 800 l 1x51
0 800 m 1
 300 800 l 1
 300 700 l 1
 200 700 l 1
 200 500 l 1x5a
 300 500 l 1x54
 300 200 l 1x84
 200 200 l 1x44
 200 500 l 1x48
 100 500 l 1x28
 100 700 l 1x18
 0 700 l 1
 0 800 l 1
EndSplineSet
Validated: 5
AlternateSubs2: "'aalt' Access All Alternates lookup 0 subtable" v.sc
EndChar

StartChar: W
Encoding: 22 87 22
Width: 1000
GlyphClass: 2
Flags: W
HStem: 0 200<200 300 600 700> 200 200<300 400 500 600> 400 200<400 500> 700 100<0 100 200 300 600 700 800 900>
VStem: 200 100<0 200> 300 100<200 400> 400 100<400 600> 500 100<200 400> 600 100<0 200>
LayerCount: 2
Fore
SplineSet
600 800 m 1x9080
 900 800 l 1
 900 700 l 1
 800 700 l 1
 800 200 l 1x5080
 700 200 l 1
 700 700 l 1
 600 700 l 1
 600 800 l 1x9080
0 800 m 1
 300 800 l 1
 300 700 l 1x54
 200 700 l 1
 200 200 l 1x98
 100 200 l 1
 100 700 l 1
 0 700 l 1
 0 800 l 1
400 400 m 1
 400 600 l 1
 500 600 l 1x32
 500 400 l 1x52
 600 400 l 1x51
 600 200 l 1x91
 700 200 l 1
 700 0 l 1
 600 0 l 1x9080
 600 200 l 1x91
 500 200 l 1x51
 500 400 l 1x52
 400 400 l 1
400 400 m 1x54
 400 200 l 1x54
 300 200 l 1x98
 300 400 l 1
 400 400 l 1x54
300 200 m 1x98
 300 0 l 1
 200 0 l 1
 200 200 l 1
 300 200 l 1x98
EndSplineSet
Validated: 5
AlternateSubs2: "'aalt' Access All Alternates lookup 0 subtable" w.sc
EndChar

StartChar: X
Encoding: 23 88 23
Width: 775
GlyphClass: 2
Flags: W
HStem: 0 200<100 200 500 600> 0 100<0 100 200 300 400 500 600 700> 200 100<200 300 400 500> 300 200<300 400> 500 100<200 300 400 500> 600 200<100 200 500 600> 700 100<0 100 200 300 400 500 600 700>
VStem: 0 300<0 100 700 800> 100 100<100 200 600 700> 200 100<200 300 500 600> 300 100<300 500> 400 300<0 100 700 800> 400 100<200 300 500 600> 500 100<100 200 600 700>
LayerCount: 2
Fore
SplineSet
400 800 m 1x0a10
 700 800 l 1
 700 700 l 1x0a10
 600 700 l 1x0a04
 600 600 l 1x0404
 500 600 l 1
 500 500 l 1x0808
 400 500 l 1x1020
 400 300 l 1x2020
 500 300 l 1x2008
 500 200 l 1x8008
 600 200 l 1x8004
 600 100 l 1x4004
 700 100 l 1
 700 0 l 1
 400 0 l 1
 400 100 l 1x4010
 500 100 l 1x4004
 500 200 l 1x8008
 400 200 l 1x2008
 400 300 l 1x2020
 300 300 l 1
 300 200 l 1x2040
 200 200 l 1x8080
 200 100 l 1x4080
 300 100 l 1
 300 0 l 1
 0 0 l 1
 0 100 l 1x41
 100 100 l 1x4080
 100 200 l 1
 200 200 l 1x8080
 200 300 l 1
 300 300 l 1x2040
 300 500 l 1x1040
 400 500 l 1x1020
 400 600 l 1
 500 600 l 1x0808
 500 700 l 1x0a04
 400 700 l 1
 400 800 l 1x0a10
0 800 m 1x03
 300 800 l 1
 300 700 l 1x03
 200 700 l 1
 200 600 l 1x0a80
 300 600 l 1x0a40
 300 500 l 1x1040
 200 500 l 1x0840
 200 600 l 1x0880
 100 600 l 1x0480
 100 700 l 1x0280
 0 700 l 1
 0 800 l 1x03
EndSplineSet
Validated: 5
AlternateSubs2: "'aalt' Access All Alternates lookup 0 subtable" x.sc
EndChar

StartChar: Y
Encoding: 24 89 24
Width: 775
GlyphClass: 2
Flags: W
HStem: 0 100<200 300 400 500> 400 200<200 300 400 500> 600 200<100 200 500 600> 700 100<0 100 200 300 400 500 600 700>
VStem: 100 100<600 700> 200 100<400 600> 300 100<100 400> 400 100<400 600> 500 100<600 700>
LayerCount: 2
Fore
SplineSet
400 800 m 1xd1
 700 800 l 1
 700 700 l 1
 600 700 l 1xd080
 600 600 l 1xa080
 500 600 l 1
 500 400 l 1xc1
 400 400 l 1
 400 100 l 1xc2
 500 100 l 1
 500 0 l 1
 200 0 l 1
 200 100 l 1xc480
 300 100 l 1xc2
 300 400 l 1xc4
 400 400 l 1xc2
 400 600 l 1
 500 600 l 1xc1
 500 700 l 1xd080
 400 700 l 1
 400 800 l 1xd1
0 800 m 1
 300 800 l 1
 300 700 l 1
 200 700 l 1
 200 600 l 1xda
 300 600 l 1
 300 400 l 1
 200 400 l 1xd4
 200 600 l 1xd8
 100 600 l 1xa8
 100 700 l 1x98
 0 700 l 1
 0 800 l 1
EndSplineSet
Validated: 5
AlternateSubs2: "'aalt' Access All Alternates lookup 0 subtable" y.sc
EndChar

StartChar: Z
Encoding: 26 90 26
Width: 650
GlyphClass: 2
Flags: W
HStem: 0 200<50 150 450 550> 0 100<150 450> 200 100<150 250> 300 200<250 350> 500 100<350 450> 600 200<50 150 450 550> 700 100<150 450>
VStem: 50 100<100 200 600 700> 150 100<200 300> 250 100<300 500> 350 100<500 600> 450 100<100 200 600 700>
LayerCount: 2
Fore
SplineSet
450 200 m 5x8110
 550 200 l 5
 550 0 l 5
 50 0 l 5
 50 200 l 5
 150 200 l 5x8110
 150 100 l 5
 450 100 l 5x4110
 450 200 l 5x8110
50 800 m 5x0510
 550 800 l 5
 550 600 l 5x0510
 450 600 l 5
 450 500 l 5x0820
 350 500 l 5
 350 300 l 5x1040
 250 300 l 5
 250 200 l 5x2080
 150 200 l 5x81
 150 300 l 5
 250 300 l 5x2080
 250 500 l 5
 350 500 l 5x1040
 350 600 l 5
 450 600 l 5x0820
 450 700 l 5
 150 700 l 5x0b10
 150 600 l 5
 50 600 l 5
 50 800 l 5x0510
EndSplineSet
Validated: 5
AlternateSubs2: "'aalt' Access All Alternates lookup 0 subtable" z.sc
EndChar

StartChar: comma
Encoding: 27 44 27
Width: 300
GlyphClass: 2
Flags: W
HStem: -100 100<0 100> 0 200<100 200>
VStem: 0 100<-100 0> 100 100<0 200>
LayerCount: 2
Fore
SplineSet
100 200 m 1x50
 200 200 l 1
 200 0 l 1x50
 100 0 l 1
 100 -100 l 1
 0 -100 l 1
 0 0 l 1
 100 0 l 1xa0
 100 200 l 1x50
EndSplineSet
Validated: 5
EndChar

StartChar: period
Encoding: 28 46 28
Width: 200
GlyphClass: 2
Flags: W
HStem: 0 100<0 100>
VStem: 0 100<0 100>
LayerCount: 2
Fore
SplineSet
0 100 m 1
 100 100 l 1
 100 0 l 1
 0 0 l 1
 0 100 l 1
EndSplineSet
Validated: 1
EndChar

StartChar: exclam
Encoding: 29 33 29
Width: 300
GlyphClass: 2
Flags: W
HStem: 0 100<100 200> 780 20G<100 200>
VStem: 100 100<0 100 200 800>
LayerCount: 2
Fore
SplineSet
100 100 m 1
 200 100 l 1
 200 0 l 1
 100 0 l 1
 100 100 l 1
100 800 m 1
 200 800 l 1
 200 200 l 1
 100 200 l 1
 100 800 l 1
EndSplineSet
Validated: 1
AlternateSubs2: "'aalt' Access All Alternates lookup 0 subtable" exclam.sc
EndChar

StartChar: slash
Encoding: 30 47 30
Width: 600
GlyphClass: 2
Flags: W
HStem: -100 200<0 100> 100 200<100 200> 300 200<200 300> 500 200<300 400> 700 200<400 500>
VStem: 0 100<-100 100> 100 100<100 300> 200 100<300 500> 300 100<500 700> 400 100<700 900>
LayerCount: 2
Fore
SplineSet
400 900 m 1x0840
 500 900 l 1
 500 700 l 1x0840
 400 700 l 1
 400 500 l 1x1080
 300 500 l 1
 300 300 l 1x21
 200 300 l 1
 200 100 l 1x42
 100 100 l 1
 100 -100 l 1
 0 -100 l 1
 0 100 l 1
 100 100 l 1x84
 100 300 l 1
 200 300 l 1x42
 200 500 l 1
 300 500 l 1x21
 300 700 l 1
 400 700 l 1x1080
 400 900 l 1x0840
EndSplineSet
Validated: 5
EndChar

StartChar: hyphen
Encoding: 31 45 31
Width: 600
GlyphClass: 2
Flags: W
HStem: 300 100<0 500>
LayerCount: 2
Fore
SplineSet
0 400 m 1
 500 400 l 1
 500 300 l 1
 -0 300 l 1
 0 400 l 1
EndSplineSet
Validated: 1
EndChar

StartChar: bracketleft
Encoding: 32 91 32
Width: 300
GlyphClass: 2
Flags: W
HStem: -200 100<100 200> 800 100<100 200>
VStem: 0 200<-200 -100 800 900> 0 100<-100 800>
LayerCount: 2
Fore
SplineSet
200 -200 m 1xe0
 0 -200 l 1
 0 900 l 1
 200 900 l 1
 200 800 l 1xe0
 100 800 l 1
 100 -100 l 1xd0
 200 -100 l 1
 200 -200 l 1xe0
EndSplineSet
Validated: 1
EndChar

StartChar: bracketright
Encoding: 33 93 33
Width: 300
GlyphClass: 2
Flags: W
HStem: -200 100<0 100> 800 100<0 100>
VStem: 0 200<-200 -100 800 900> 100 100<-100 800>
LayerCount: 2
Fore
SplineSet
100 -100 m 1xd0
 100 800 l 1xd0
 0 800 l 1
 0 900 l 1
 200 900 l 1
 200 -200 l 1
 0 -200 l 1
 0 -100 l 1xe0
 100 -100 l 1xd0
EndSplineSet
Validated: 1
EndChar

StartChar: asciicircum
Encoding: 34 94 34
Width: 400
GlyphClass: 2
Flags: W
HStem: 600 100<0 100 200 300> 700 100<100 200>
VStem: 0 100<600 700> 100 100<700 800> 200 100<600 700>
LayerCount: 2
Fore
SplineSet
100 800 m 1x50
 200 800 l 1x50
 200 700 l 1x90
 300 700 l 1
 300 600 l 1
 200 600 l 1x88
 200 700 l 1x90
 100 700 l 1xa0
 100 800 l 1x50
100 700 m 1xa0
 100 600 l 1
 0 600 l 1
 0 700 l 1
 100 700 l 1xa0
EndSplineSet
Validated: 5
EndChar

StartChar: quotedbl
Encoding: 35 34 35
Width: 500
GlyphClass: 2
Flags: W
HStem: 600 100<0 100 200 300> 700 200<100 200 300 400>
VStem: 0 100<600 700> 100 100<700 900> 200 100<600 700> 300 100<700 900>
LayerCount: 2
Fore
SplineSet
100 900 m 5x50
 200 900 l 5x50
 200 700 l 5x90
 100 700 l 5xa0
 100 900 l 5x50
300 900 m 5x44
 400 900 l 5
 400 700 l 5x44
 300 700 l 5x88
 300 900 l 5x44
100 700 m 5xa0
 100 600 l 5
 0 600 l 5
 0 700 l 5
 100 700 l 5xa0
200 700 m 5x90
 300 700 l 5
 300 600 l 5
 200 600 l 5x88
 200 700 l 5x90
EndSplineSet
Validated: 5
EndChar

StartChar: a
Encoding: 36 97 36
Width: 525
GlyphClass: 2
Flags: W
HStem: 0 100<125 325> 100 100<25 125> 200 100<125 225> 400 100<25 125> 500 100<125 325>
VStem: 25 100<100 200 400 500> 125 200<500 600> 125 100<200 300> 225 200<300 400> 325 100<100 300 400 500>
LayerCount: 2
Fore
SplineSet
125 600 m 1x0a
 325 600 l 1
 325 500 l 1x0a
 425 500 l 1
 425 0 l 1
 125 0 l 1x8940
 125 100 l 1x8c
 325 100 l 1
 325 300 l 1
 225 300 l 1xa940
 225 400 l 1xb080
 325 400 l 1xb040
 325 500 l 1x0a
 125 500 l 1x14
 125 600 l 1x0a
25 100 m 1x44
 25 200 l 1
 125 200 l 1x44
 125 300 l 1
 225 300 l 1
 225 200 l 1x21
 125 200 l 1x44
 125 100 l 1x84
 25 100 l 1x44
125 500 m 1x14
 125 400 l 1
 25 400 l 1
 25 500 l 1
 125 500 l 1x14
EndSplineSet
AlternateSubs2: "'aalt' Access All Alternates lookup 0 subtable" a.sc
EndChar

StartChar: backslash
Encoding: 37 92 37
Width: 600
GlyphClass: 2
Flags: W
HStem: -100 200<400 500> 100 200<300 400> 300 200<200 300> 500 200<100 200> 700 200<0 100>
VStem: 0 100<700 900> 100 100<500 700> 200 100<300 500> 300 100<100 300> 400 100<-100 100>
LayerCount: 2
Fore
SplineSet
0 900 m 1x0c
 100 900 l 1x0c
 100 700 l 1x14
 200 700 l 1x12
 200 500 l 1x22
 300 500 l 1x21
 300 300 l 1x41
 400 300 l 1x4080
 400 100 l 1x8080
 500 100 l 1
 500 -100 l 1
 400 -100 l 1x8040
 400 100 l 1x8080
 300 100 l 1x4080
 300 300 l 1x41
 200 300 l 1x21
 200 500 l 1x22
 100 500 l 1x12
 100 700 l 1x14
 0 700 l 1
 0 900 l 1x0c
EndSplineSet
Validated: 5
EndChar

StartChar: b
Encoding: 38 98 38
Width: 575
GlyphClass: 2
Flags: W
HStem: 0 100<150 350> 500 100<250 350> 800 100<-50 50>
VStem: -50 200<800 900> 50 200<400 500> 50 100<100 400 500 800> 250 200<500 600> 350 100<100 500>
LayerCount: 2
Fore
SplineSet
50 800 m 1xe5
 -50 800 l 1
 -50 900 l 1
 150 900 l 1xf0
 150 500 l 1xe4
 250 500 l 1
 250 400 l 1xe8
 150 400 l 1
 150 100 l 1xe4
 350 100 l 1
 350 500 l 1
 250 500 l 1xe9
 250 600 l 1
 450 600 l 1xe2
 450 100 l 1
 350 100 l 1
 350 0 l 1
 50 0 l 1
 50 800 l 1xe5
EndSplineSet
Validated: 5
AlternateSubs2: "'aalt' Access All Alternates lookup 0 subtable" b.sc
EndChar

StartChar: c
Encoding: 39 99 39
Width: 500
GlyphClass: 2
Flags: W
HStem: 0 100<100 300> 100 100<300 400> 400 200<300 400> 500 100<100 300>
VStem: 0 100<100 500> 100 200<0 100> 300 100<100 200 400 500>
LayerCount: 2
Fore
SplineSet
100 600 m 1x14
 400 600 l 1
 400 400 l 1
 300 400 l 1x22
 300 500 l 1
 100 500 l 1x1a
 100 600 l 1x14
300 200 m 1x42
 400 200 l 1
 400 100 l 1x42
 300 100 l 1x84
 300 200 l 1x42
100 500 m 1x58
 100 100 l 1x98
 0 100 l 1
 0 500 l 1
 100 500 l 1x58
100 100 m 1
 300 100 l 1
 300 0 l 1
 100 0 l 1x84
 100 100 l 1
EndSplineSet
Validated: 5
AlternateSubs2: "'aalt' Access All Alternates lookup 0 subtable" c.sc
EndChar

StartChar: d
Encoding: 40 100 40
Width: 600
GlyphClass: 2
Flags: W
HStem: 0 100<100 200 400 500> 100 100<200 300> 500 100<100 300> 800 100<200 300>
VStem: 0 100<100 500> 100 100<0 100> 200 200<100 200 800 900> 300 200<0 100> 300 100<200 500 600 800>
LayerCount: 2
Fore
SplineSet
0 100 m 1x78
 0 500 l 1
 100 500 l 1x78
 100 600 l 1
 300 600 l 1
 300 800 l 1x7480
 200 800 l 1
 200 900 l 1
 400 900 l 1
 400 100 l 1xb2
 500 100 l 1
 500 0 l 1
 300 0 l 1xb1
 300 100 l 1x71
 200 100 l 1xb5
 200 200 l 1x72
 300 200 l 1x7080
 300 500 l 1
 100 500 l 1
 100 100 l 1xb880
 200 100 l 1
 200 0 l 1
 100 0 l 1xb4
 100 100 l 1xb8
 0 100 l 1x78
EndSplineSet
Validated: 5
AlternateSubs2: "'aalt' Access All Alternates lookup 0 subtable" d.sc
EndChar

StartChar: e
Encoding: 41 101 41
Width: 500
GlyphClass: 2
Flags: W
HStem: 0 100<100 300> 100 100<300 400> 300 100<100 300> 400 200<300 400> 500 100<100 300>
VStem: 0 100<100 300 400 500> 100 200<0 100> 300 100<100 200 400 500>
LayerCount: 2
Fore
SplineSet
300 200 m 1x41
 400 200 l 1
 400 100 l 1x41
 300 100 l 1
 300 0 l 1
 100 0 l 1x82
 100 100 l 1x84
 0 100 l 1
 0 500 l 1
 100 500 l 1
 100 400 l 1
 300 400 l 1
 300 500 l 1
 100 500 l 1x6d
 100 600 l 1x6a
 400 600 l 1
 400 400 l 1x11
 300 400 l 1
 300 300 l 1
 100 300 l 1
 100 100 l 1xa5
 300 100 l 1xa2
 300 200 l 1x41
EndSplineSet
Validated: 5
AlternateSubs2: "'aalt' Access All Alternates lookup 0 subtable" e.sc
EndChar

StartChar: f
Encoding: 42 102 42
Width: 500
GlyphClass: 2
Flags: W
HStem: 0 100<0 100 200 300> 500 100<0 100 200 400> 700 200<300 400> 780 20G<100 200> 800 100<200 300>
VStem: 100 100<100 500 600 800> 200 200<800 900> 300 100<700 800>
LayerCount: 2
Fore
SplineSet
200 900 m 1xca
 400 900 l 1xe2
 400 700 l 1
 300 700 l 1xe1
 300 800 l 1xc9
 200 800 l 1xd5
 200 900 l 1xca
200 800 m 1xd5
 200 600 l 1
 400 600 l 1
 400 500 l 1
 200 500 l 1
 200 100 l 1
 300 100 l 1
 300 0 l 1
 0 0 l 1
 0 100 l 1
 100 100 l 1
 100 500 l 1
 0 500 l 1
 0 600 l 1
 100 600 l 1
 100 800 l 1
 200 800 l 1xd5
EndSplineSet
Validated: 5
AlternateSubs2: "'aalt' Access All Alternates lookup 0 subtable" f.sc
EndChar

StartChar: g
Encoding: 43 103 43
Width: 575
GlyphClass: 2
Flags: W
HStem: -300 100<100 400> -200 100<400 500> -100 100<100 400> 100 100<100 300> 200 300<0 100 300 400> 500 100<100 300 400 500>
VStem: 0 100<-200 -100 0 100 200 500> 100 200<100 200 500 600> 300 100<200 500> 400 100<-200 -100 500 600>
LayerCount: 2
Fore
SplineSet
400 600 m 1x0440
 500 600 l 1
 500 500 l 1x0440
 400 500 l 1x0880
 400 600 l 1x0440
100 600 m 1x05
 300 600 l 1x05
 300 500 l 1x09
 400 500 l 1
 400 200 l 1x0880
 300 200 l 1
 300 100 l 1x11
 100 100 l 1
 100 0 l 1
 400 0 l 1x3240
 400 -100 l 1
 500 -100 l 1
 500 -200 l 1x4240
 400 -200 l 1
 400 -300 l 1
 0 -300 l 1
 0 -100 l 1
 100 -100 l 1
 100 -200 l 1
 400 -200 l 1xa240
 400 -100 l 1x4240
 100 -100 l 1
 100 0 l 1
 0 0 l 1
 0 100 l 1
 100 100 l 1
 100 200 l 1x3240
 300 200 l 1x31
 300 500 l 1x09
 100 500 l 1x0a
 100 600 l 1x05
100 200 m 1x12
 0 200 l 1
 0 500 l 1
 100 500 l 1x0a
 100 200 l 1x12
EndSplineSet
Validated: 5
AlternateSubs2: "'aalt' Access All Alternates lookup 0 subtable" g.sc
EndChar

StartChar: h
Encoding: 44 104 44
Width: 700
GlyphClass: 2
Flags: W
HStem: 0 100<0 100 200 300 500 600> 500 100<300 400> 800 100<0 100>
VStem: 0 200<800 900> 100 200<400 500> 100 100<100 400 500 800> 300 200<500 600> 400 200<0 100> 400 100<100 500>
LayerCount: 2
Fore
SplineSet
300 600 m 1xe2
 500 600 l 1xe2
 500 100 l 1xe080
 600 100 l 1
 600 0 l 1
 400 0 l 1xe1
 400 500 l 1
 300 500 l 1xe880
 300 600 l 1xe2
0 900 m 1xf0
 200 900 l 1xf0
 200 500 l 1xe4
 300 500 l 1
 300 400 l 1xe8
 200 400 l 1
 200 100 l 1xe4
 300 100 l 1
 300 0 l 1
 0 0 l 1
 0 100 l 1xf2
 100 100 l 1
 100 800 l 1xe4
 0 800 l 1
 0 900 l 1xf0
EndSplineSet
Validated: 5
AlternateSubs2: "'aalt' Access All Alternates lookup 0 subtable" h.sc
EndChar

StartChar: i
Encoding: 45 105 45
Width: 400
GlyphClass: 2
Flags: W
HStem: 0 100<0 100 200 300> 500 100<0 100> 700 100<100 200>
VStem: 0 200<500 600> 100 100<100 500 700 800>
LayerCount: 2
Fore
SplineSet
200 100 m 1xe8
 300 100 l 1
 300 0 l 1
 0 0 l 1
 0 100 l 1xf0
 100 100 l 1
 100 500 l 1xe8
 0 500 l 1
 0 600 l 1
 200 600 l 1xf0
 200 100 l 1xe8
100 800 m 1xe8
 200 800 l 1
 200 700 l 1
 100 700 l 1
 100 800 l 1xe8
EndSplineSet
Validated: 1
AlternateSubs2: "'aalt' Access All Alternates lookup 0 subtable" i.sc
EndChar

StartChar: j
Encoding: 46 106 46
Width: 350
GlyphClass: 2
Flags: W
HStem: -300 200<-100 0> -300 100<0 100> 500 100<0 100> 700 100<100 200>
VStem: -100 200<-300 -200> -100 100<-200 -100> 0 200<500 600> 100 100<-200 500 700 800>
LayerCount: 2
Fore
SplineSet
100 800 m 1x31
 200 800 l 1
 200 700 l 1
 100 700 l 1
 100 800 l 1x31
100 500 m 1
 0 500 l 1
 0 600 l 1
 200 600 l 1x72
 200 -200 l 1x71
 100 -200 l 1x78
 100 500 l 1
100 -200 m 1x78
 100 -300 l 1x78
 -100 -300 l 1xb8
 -100 -100 l 1
 0 -100 l 1xb4
 0 -200 l 1x74
 100 -200 l 1x78
EndSplineSet
Validated: 5
AlternateSubs2: "'aalt' Access All Alternates lookup 0 subtable" j.sc
EndChar

StartChar: k
Encoding: 47 107 47
Width: 600
GlyphClass: 2
Flags: W
HStem: 0 100<0 100 400 500> 300 100<200 300> 400 200<300 400> 500 100<400 500> 800 100<0 100>
VStem: 0 200<0 100 800 900> 100 200<300 400> 100 100<100 300 400 800> 300 200<0 100 500 600> 300 100<100 300 400 500>
LayerCount: 2
Fore
SplineSet
0 900 m 1xcc
 200 900 l 1xcc
 200 400 l 1xc9
 300 400 l 1xca
 300 600 l 1xa880
 500 600 l 1
 500 500 l 1x9880
 400 500 l 1x9840
 400 400 l 1xa840
 300 400 l 1
 300 300 l 1xca
 400 300 l 1
 400 100 l 1xc840
 500 100 l 1
 500 0 l 1
 300 0 l 1xc880
 300 300 l 1xca
 200 300 l 1xc9
 200 0 l 1
 0 0 l 1
 0 100 l 1xcc
 100 100 l 1
 100 800 l 1xc9
 0 800 l 1
 0 900 l 1xcc
EndSplineSet
Validated: 5
AlternateSubs2: "'aalt' Access All Alternates lookup 0 subtable" k.sc
EndChar

StartChar: l
Encoding: 48 108 48
Width: 400
GlyphClass: 2
Flags: W
HStem: 0 100<0 100 200 300> 800 100<0 100>
VStem: 0 200<800 900> 100 100<100 800>
LayerCount: 2
Fore
SplineSet
0 900 m 1xe0
 200 900 l 1xe0
 200 100 l 1xd0
 300 100 l 1
 300 0 l 1
 0 0 l 1
 0 100 l 1xe0
 100 100 l 1
 100 800 l 1xd0
 0 800 l 1
 0 900 l 1xe0
EndSplineSet
Validated: 1
AlternateSubs2: "'aalt' Access All Alternates lookup 0 subtable" l.sc
EndChar

StartChar: m
Encoding: 49 109 49
Width: 1000
GlyphClass: 2
Flags: W
HStem: 0 100<0 100 300 400 600 700 800 900> 400 100<200 300 500 600> 500 100<0 100 300 400 600 700>
VStem: 0 200<0 100 500 600> 100 200<400 500> 100 100<100 400> 300 200<0 100 500 600> 400 200<400 500> 400 100<100 400> 600 200<500 600> 700 100<100 500>
LayerCount: 2
Fore
SplineSet
600 600 m 1xa040
 800 600 l 1xa040
 800 100 l 1xa020
 900 100 l 1
 900 0 l 1
 600 0 l 1
 600 100 l 1xa040
 700 100 l 1
 700 500 l 1xa020
 600 500 l 1xc120
 600 600 l 1xa040
300 600 m 1xa2
 500 600 l 1xa2
 500 500 l 1xc2
 600 500 l 1
 600 400 l 1xc1
 500 400 l 1xc080
 500 0 l 1
 300 0 l 1
 300 100 l 1xc2
 400 100 l 1xc080
 400 500 l 1xa1
 300 500 l 1xc9
 300 600 l 1xa2
0 500 m 1xb0
 0 600 l 1
 200 600 l 1xb0
 200 500 l 1xd0
 300 500 l 1
 300 400 l 1xc8
 200 400 l 1xc4
 200 0 l 1
 0 0 l 1
 0 100 l 1xd0
 100 100 l 1xc4
 100 500 l 1xa8
 0 500 l 1xb0
EndSplineSet
Validated: 5
AlternateSubs2: "'aalt' Access All Alternates lookup 0 subtable" m.sc
EndChar

StartChar: n
Encoding: 50 110 50
Width: 700
GlyphClass: 2
Flags: W
HStem: 0 100<0 100 300 400 500 600> 500 100<0 100 300 400>
VStem: 0 200<0 100 500 600> 100 200<400 500> 100 100<100 400> 300 200<500 600> 400 100<100 500>
LayerCount: 2
Fore
SplineSet
300 600 m 1xc4
 500 600 l 1xc4
 500 100 l 1xc2
 600 100 l 1
 600 0 l 1
 300 0 l 1
 300 100 l 1xc4
 400 100 l 1
 400 500 l 1
 300 500 l 1xd2
 300 600 l 1xc4
300 500 m 1xd0
 300 400 l 1xd0
 200 400 l 1xc8
 200 0 l 1
 0 0 l 1
 0 100 l 1xe0
 100 100 l 1xc8
 100 500 l 1xd0
 0 500 l 1
 0 600 l 1
 200 600 l 1
 200 500 l 1xe0
 300 500 l 1xd0
EndSplineSet
Validated: 5
AlternateSubs2: "'aalt' Access All Alternates lookup 0 subtable" n.sc
EndChar

StartChar: o
Encoding: 51 111 51
Width: 500
GlyphClass: 2
Flags: W
HStem: 0 100<100 300> 500 100<100 300>
VStem: 0 100<100 500> 100 200<0 100 500 600> 300 100<100 500>
LayerCount: 2
Fore
SplineSet
100 600 m 1xd0
 300 600 l 1
 300 500 l 1xd0
 100 500 l 1
 100 100 l 1
 0 100 l 1
 0 500 l 1
 100 500 l 1xe0
 100 600 l 1xd0
100 100 m 1xe0
 300 100 l 1
 300 500 l 1xd0
 400 500 l 1
 400 100 l 1xc8
 300 100 l 1
 300 0 l 1
 100 0 l 1xd0
 100 100 l 1xe0
EndSplineSet
Validated: 5
AlternateSubs2: "'aalt' Access All Alternates lookup 0 subtable" o.sc
EndChar

StartChar: p
Encoding: 52 112 52
Width: 625
GlyphClass: 2
Flags: W
HStem: -300 100<0 100 200 300> 0 100<200 400> 400 100<200 300> 500 100<0 100 300 400>
VStem: 0 200<500 600> 100 200<400 500> 100 100<-200 0 100 400> 300 200<500 600> 400 100<100 500>
LayerCount: 2
Fore
SplineSet
300 600 m 1xd1
 500 600 l 1xd1
 500 100 l 1
 400 100 l 1
 400 0 l 1
 200 0 l 1
 200 -200 l 1xd280
 300 -200 l 1
 300 -300 l 1
 0 -300 l 1
 0 -200 l 1xd9
 100 -200 l 1xd2
 100 500 l 1xd4
 0 500 l 1
 0 600 l 1
 200 600 l 1xd8
 200 500 l 1xe8
 300 500 l 1xe4
 300 600 l 1xd1
300 500 m 1xe480
 300 400 l 1xe480
 200 400 l 1xe2
 200 100 l 1
 400 100 l 1
 400 500 l 1xd280
 300 500 l 1xe480
EndSplineSet
Validated: 5
AlternateSubs2: "'aalt' Access All Alternates lookup 0 subtable" p.sc
EndChar

StartChar: q
Encoding: 53 113 53
Width: 575
GlyphClass: 2
Flags: W
HStem: -300 100<200 300 400 500> 0 100<100 300> 400 100<200 300> 500 100<100 200 400 500>
VStem: 0 200<500 600> 0 100<100 500> 200 200<400 500> 300 200<500 600> 300 100<-200 0 100 400>
LayerCount: 2
Fore
SplineSet
300 600 m 1xd9
 500 600 l 1
 500 500 l 1xd9
 400 500 l 1xd2
 400 -200 l 1xd080
 500 -200 l 1
 500 -300 l 1xd1
 200 -300 l 1
 200 -200 l 1xd2
 300 -200 l 1
 300 0 l 1
 100 0 l 1
 100 100 l 1
 0 100 l 1xd480
 0 600 l 1
 200 600 l 1xd8
 200 500 l 1
 300 500 l 1xe9
 300 600 l 1xd9
200 500 m 1xe8
 100 500 l 1xd4
 100 100 l 1
 300 100 l 1
 300 400 l 1xe480
 200 400 l 1xe2
 200 500 l 1xe8
EndSplineSet
Validated: 5
AlternateSubs2: "'aalt' Access All Alternates lookup 0 subtable" q.sc
EndChar

StartChar: r
Encoding: 54 114 54
Width: 600
GlyphClass: 2
Flags: W
HStem: 0 100<0 100 200 300> 400 100<200 300> 500 100<0 100 300 400>
VStem: 0 200<500 600> 100 200<400 500> 100 100<100 400> 300 200<500 600> 400 100<400 500>
LayerCount: 2
Fore
SplineSet
300 600 m 1xa2
 500 600 l 1xa2
 500 400 l 1
 400 400 l 1xc1
 400 500 l 1xa1
 300 500 l 1xc9
 300 600 l 1xa2
300 500 m 1xc8
 300 400 l 1xc8
 200 400 l 1
 200 100 l 1xc4
 300 100 l 1
 300 0 l 1
 0 0 l 1
 0 100 l 1xd2
 100 100 l 1xc4
 100 500 l 1xa8
 0 500 l 1
 0 600 l 1
 200 600 l 1xb0
 200 500 l 1xd0
 300 500 l 1xc8
EndSplineSet
AlternateSubs2: "'aalt' Access All Alternates lookup 0 subtable" r.sc
EndChar

StartChar: s
Encoding: 55 115 55
Width: 500
GlyphClass: 2
Flags: W
HStem: 0 100<100 300> 100 100<300 400> 200 100<200 300> 300 100<100 200> 400 100<0 100> 500 100<100 300>
VStem: 0 100<100 200 400 500> 100 100<300 400> 200 100<200 300> 300 100<100 200 400 500>
LayerCount: 2
Fore
SplineSet
0 200 m 1xa240
 100 200 l 1
 100 100 l 1
 300 100 l 1xa240
 300 200 l 1x4080
 200 200 l 1x2080
 200 300 l 1x21
 100 300 l 1x11
 100 400 l 1x12
 0 400 l 1
 0 500 l 1
 100 500 l 1x0a
 100 600 l 1
 400 600 l 1x0540
 400 400 l 1
 300 400 l 1x0940
 300 500 l 1x0540
 100 500 l 1x0a40
 100 400 l 1x1240
 200 400 l 1x11
 200 300 l 1x21
 300 300 l 1x2080
 300 200 l 1x4080
 400 200 l 1
 400 100 l 1x4040
 300 100 l 1
 300 0 l 1
 0 0 l 1
 0 200 l 1xa240
EndSplineSet
Validated: 5
AlternateSubs2: "'aalt' Access All Alternates lookup 0 subtable" s.sc longs
EndChar

StartChar: t
Encoding: 56 116 56
Width: 500
GlyphClass: 2
Flags: W
HStem: 0 200<300 400> 0 100<200 300> 500 100<0 100 200 400>
VStem: 100 100<100 500 600 700> 200 200<0 100> 300 100<100 200>
LayerCount: 2
Fore
SplineSet
400 200 m 1xb4
 400 0 l 1xa8
 200 0 l 1x68
 200 100 l 1
 300 100 l 1x74
 300 200 l 1
 400 200 l 1xb4
200 100 m 1x74
 100 100 l 1
 100 500 l 1
 0 500 l 1
 0 600 l 1
 100 600 l 1
 100 700 l 1
 200 700 l 1
 200 600 l 1
 400 600 l 1
 400 500 l 1
 200 500 l 1
 200 100 l 1x74
EndSplineSet
Validated: 5
AlternateSubs2: "'aalt' Access All Alternates lookup 0 subtable" t.sc
EndChar

StartChar: u
Encoding: 57 117 57
Width: 700
GlyphClass: 2
Flags: W
HStem: 0 100<200 300 500 600> 100 100<300 400> 500 100<0 100 300 400>
VStem: 0 200<500 600> 100 100<100 500> 200 100<0 100> 300 200<100 200 500 600> 400 200<0 100> 400 100<200 500>
LayerCount: 2
Fore
SplineSet
300 600 m 1x62
 500 600 l 1
 500 100 l 1xa2
 600 100 l 1
 600 0 l 1
 400 0 l 1xa1
 400 100 l 1x61
 300 100 l 1xa5
 300 200 l 1x62
 400 200 l 1
 400 500 l 1x6080
 300 500 l 1
 300 600 l 1x62
200 100 m 1xa8
 300 100 l 1
 300 0 l 1
 200 0 l 1xa4
 200 100 l 1xa8
200 100 m 1xa8
 100 100 l 1
 100 500 l 1x68
 0 500 l 1
 0 600 l 1
 200 600 l 1x70
 200 100 l 1xa8
EndSplineSet
Validated: 5
AlternateSubs2: "'aalt' Access All Alternates lookup 0 subtable" u.sc
EndChar

StartChar: v
Encoding: 58 118 58
Width: 625
GlyphClass: 2
Flags: W
HStem: 0 100<200 300> 100 100<300 400> 500 100<0 100 300 400>
VStem: 0 200<500 600> 100 200<0 100> 100 100<100 500> 300 100<100 200> 400 100<200 500>
LayerCount: 2
Fore
SplineSet
300 0 m 5xa8
 100 0 l 5xa8
 100 500 l 5xa4
 0 500 l 5
 0 600 l 5
 200 600 l 5xb0
 200 100 l 5xa4
 300 100 l 5
 300 0 l 5xa8
300 100 m 5
 300 200 l 5
 400 200 l 5
 400 100 l 5x62
 300 100 l 5
300 600 m 5
 500 600 l 5
 500 200 l 5x61
 400 200 l 5x62
 400 500 l 5x61
 300 500 l 5
 300 600 l 5
EndSplineSet
Validated: 5
AlternateSubs2: "'aalt' Access All Alternates lookup 0 subtable" v.sc
EndChar

StartChar: w
Encoding: 59 119 59
Width: 800
GlyphClass: 2
Flags: W
HStem: 0 200<200 300 400 500> 200 200<300 400> 500 100<0 100 200 300 400 500 600 700>
VStem: 200 100<0 200> 300 100<200 400> 400 100<0 200> 500 100<200 500>
LayerCount: 2
Fore
SplineSet
300 400 m 1x68
 400 400 l 1x68
 400 200 l 1xa8
 500 200 l 1xa4
 500 500 l 1xa2
 400 500 l 1
 400 600 l 1xa4
 700 600 l 1
 700 500 l 1
 600 500 l 1
 600 200 l 1x62
 500 200 l 1
 500 0 l 1
 400 0 l 1xa4
 400 200 l 1xa8
 300 200 l 1xb0
 300 400 l 1x68
200 200 m 1xb0
 300 200 l 1
 300 0 l 1
 200 0 l 1
 200 200 l 1xb0
200 200 m 1
 100 200 l 1
 100 500 l 1
 0 500 l 1
 0 600 l 1
 300 600 l 1
 300 500 l 1x68
 200 500 l 1
 200 200 l 1
EndSplineSet
Validated: 5
AlternateSubs2: "'aalt' Access All Alternates lookup 0 subtable" w.sc
EndChar

StartChar: x
Encoding: 60 120 60
Width: 600
GlyphClass: 2
Flags: W
HStem: 0 200<100 200 300 400> 0 100<0 100 400 500> 400 200<100 200 300 400> 500 100<0 100 400 500>
VStem: 0 200<0 100 500 600> 100 100<100 200 400 500> 300 200<0 100 500 600> 300 100<100 200 400 500>
LayerCount: 2
Fore
SplineSet
0 600 m 1x18
 200 600 l 1x28
 200 400 l 1
 300 400 l 1x25
 300 600 l 1x22
 500 600 l 1
 500 500 l 1x12
 400 500 l 1x11
 400 400 l 1
 300 400 l 1
 300 200 l 1
 400 200 l 1xa1
 400 100 l 1x41
 500 100 l 1
 500 0 l 1x42
 300 0 l 1x82
 300 200 l 1
 200 200 l 1x85
 200 0 l 1x88
 0 0 l 1
 0 100 l 1x48
 100 100 l 1x44
 100 200 l 1
 200 200 l 1
 200 400 l 1
 100 400 l 1xa4
 100 500 l 1x14
 0 500 l 1
 0 600 l 1x18
EndSplineSet
Validated: 5
AlternateSubs2: "'aalt' Access All Alternates lookup 0 subtable" x.sc
EndChar

StartChar: y
Encoding: 61 121 61
Width: 700
GlyphClass: 2
Flags: W
HStem: -300 100<0 100> -200 100<100 200> 100 200<300 400> 500 100<0 100 300 400 500 600>
VStem: -100 200<-300 -200> -100 100<-200 -100> 0 200<500 600> 100 100<-200 -100 200 500> 200 100<-100 100> 300 100<200 300>
LayerCount: 2
Fore
SplineSet
-100 -100 m 1x74
 0 -100 l 1x74
 0 -200 l 1xb4
 100 -200 l 1
 100 -300 l 1
 -100 -300 l 1xb8
 -100 -100 l 1x74
0 600 m 1x32
 200 600 l 1x32
 200 200 l 5
 100 200 l 5
 100 500 l 1x31
 0 500 l 1
 0 600 l 1x32
100 -200 m 1xb8
 100 -100 l 1
 200 -100 l 1
 200 -200 l 1x71
 100 -200 l 1xb8
200 -100 m 1
 200 200 l 5
 300 200 l 5
 300 300 l 5
 400 300 l 5
 400 100 l 1x7140
 300 100 l 1
 300 -100 l 1x7080
 200 -100 l 1
400 300 m 5
 400 500 l 1
 300 500 l 1
 300 600 l 1
 600 600 l 1
 600 500 l 1
 500 500 l 1
 500 300 l 5
 400 300 l 5
EndSplineSet
AlternateSubs2: "'aalt' Access All Alternates lookup 0 subtable" y.sc
EndChar

StartChar: z
Encoding: 62 122 62
Width: 550
GlyphClass: 2
Flags: W
HStem: 0 200<25 125 325 425> 0 100<125 325> 200 100<125 225> 300 100<225 325> 400 200<25 125 325 425> 500 100<125 325>
VStem: 25 100<100 200 400 500> 125 100<200 300> 225 100<300 400> 325 100<100 200 400 500>
LayerCount: 2
Fore
SplineSet
325 200 m 1x8240
 425 200 l 1
 425 0 l 1
 25 0 l 1
 25 200 l 1
 125 200 l 1x8240
 125 100 l 1
 325 100 l 1x4240
 325 200 l 1x8240
325 400 m 1x1080
 325 300 l 1x1080
 225 300 l 1
 225 200 l 1x21
 125 200 l 1x82
 125 300 l 1
 225 300 l 1x21
 225 400 l 1
 325 400 l 1x1080
325 400 m 1
 325 500 l 1
 125 500 l 1x1640
 125 400 l 1
 25 400 l 1
 25 600 l 1
 425 600 l 1
 425 400 l 1x0a40
 325 400 l 1
EndSplineSet
Validated: 5
AlternateSubs2: "'aalt' Access All Alternates lookup 0 subtable" z.sc
EndChar

StartChar: bar
Encoding: 63 124 63
Width: 200
GlyphClass: 2
Flags: W
HStem: 880 20G<0 100>
VStem: 0 100<-200 900>
LayerCount: 2
Fore
SplineSet
0 -200 m 1
 0 900 l 1
 100 900 l 1
 100 -200 l 1
 0 -200 l 1
EndSplineSet
Validated: 1
EndChar

StartChar: braceleft
Encoding: 64 123 64
Width: 400
GlyphClass: 2
Flags: W
HStem: -200 100<200 300> 300 100<0 100> 800 100<200 300>
VStem: 0 100<300 400> 100 100<-100 300 400 800> 200 100<-200 -100 800 900>
CounterMasks: 1 e0
LayerCount: 2
Fore
SplineSet
300 900 m 1xe4
 300 800 l 1xe4
 200 800 l 1
 200 400 l 1xe8
 100 400 l 1
 100 300 l 1xf0
 200 300 l 1
 200 -100 l 1xe8
 300 -100 l 1
 300 -200 l 1
 200 -200 l 1xe4
 200 -100 l 1
 100 -100 l 1xe8
 100 300 l 1
 0 300 l 1
 0 400 l 1
 100 400 l 1xf0
 100 800 l 1
 200 800 l 1xe8
 200 900 l 1
 300 900 l 1xe4
EndSplineSet
Validated: 5
EndChar

StartChar: braceright
Encoding: 65 125 65
Width: 400
GlyphClass: 2
Flags: W
HStem: -200 100<0 100> 300 100<200 300> 800 100<0 100>
VStem: 0 100<-200 -100 800 900> 100 100<-100 300 400 800> 200 100<300 400>
CounterMasks: 1 e0
LayerCount: 2
Fore
SplineSet
0 -200 m 1xf0
 0 -100 l 1
 100 -100 l 1
 100 -200 l 1
 0 -200 l 1xf0
0 900 m 1
 100 900 l 1
 100 800 l 1xf0
 200 800 l 1
 200 400 l 1xe8
 300 400 l 1
 300 300 l 1xe4
 200 300 l 1
 200 -100 l 1xe8
 100 -100 l 1xf0
 100 300 l 1
 200 300 l 1
 200 400 l 1
 100 400 l 1xe8
 100 800 l 1
 0 800 l 1
 0 900 l 1
EndSplineSet
Validated: 5
EndChar

StartChar: asciitilde
Encoding: 66 126 66
Width: 700
GlyphClass: 2
Flags: W
HStem: 700 100<0 100 300 500> 800 100<100 300 500 600>
VStem: 0 100<700 800> 100 200<800 900> 300 200<700 800> 500 100<800 900>
LayerCount: 2
Fore
SplineSet
500 900 m 1x44
 600 900 l 1
 600 800 l 1x44
 500 800 l 1x88
 500 900 l 1x44
100 900 m 1x50
 300 900 l 1x50
 300 800 l 1x90
 500 800 l 1
 500 700 l 1
 300 700 l 1x88
 300 800 l 1x90
 100 800 l 1xa0
 100 900 l 1x50
100 800 m 1xa0
 100 700 l 1
 0 700 l 1
 0 800 l 1
 100 800 l 1xa0
EndSplineSet
EndChar

StartChar: underscore
Encoding: 67 95 67
Width: 600
GlyphClass: 2
Flags: W
HStem: 0 100<0 500>
LayerCount: 2
Fore
SplineSet
0 100 m 1
 500 100 l 1
 500 0 l 1
 0 0 l 1
 0 100 l 1
EndSplineSet
Validated: 1
EndChar

StartChar: parenleft
Encoding: 68 40 68
Width: 400
GlyphClass: 2
Flags: W
HStem: -200 100<200 300> -100 200<100 200> 600 200<100 200> 800 100<200 300>
VStem: 0 100<100 600> 100 100<-100 100 600 800> 200 100<-200 -100 800 900>
LayerCount: 2
Fore
SplineSet
200 900 m 1x12
 300 900 l 1
 300 800 l 1x12
 200 800 l 1x24
 200 900 l 1x12
200 -100 m 1x84
 100 -100 l 1x44
 100 100 l 1
 0 100 l 1
 0 600 l 1
 100 600 l 1x68
 100 800 l 1
 200 800 l 1
 200 600 l 1x64
 100 600 l 1
 100 100 l 1x68
 200 100 l 1x64
 200 -100 l 1x84
200 -100 m 1x84
 300 -100 l 1
 300 -200 l 1
 200 -200 l 1x82
 200 -100 l 1x84
EndSplineSet
Validated: 5
EndChar

StartChar: parenright
Encoding: 69 41 69
Width: 400
GlyphClass: 2
Flags: W
HStem: -200 100<0 100> -100 200<100 200> 600 200<100 200> 800 100<0 100>
VStem: 0 100<-200 -100 800 900> 100 100<-100 100 600 800> 200 100<100 600>
LayerCount: 2
Fore
SplineSet
0 900 m 1x18
 100 900 l 1x18
 100 800 l 1x28
 200 800 l 1
 200 600 l 1x24
 300 600 l 1
 300 100 l 1x62
 200 100 l 1
 200 -100 l 1x64
 100 -100 l 1
 100 -200 l 1
 0 -200 l 1
 0 -100 l 1
 100 -100 l 1x88
 100 100 l 1
 200 100 l 1
 200 600 l 1
 100 600 l 1x64
 100 800 l 1x68
 0 800 l 1
 0 900 l 1x18
EndSplineSet
Validated: 5
EndChar

StartChar: asterisk
Encoding: 70 42 70
Width: 600
GlyphClass: 2
Flags: W
HStem: 200 100<0 100 400 500> 300 100<100 200 300 400> 400 100<0 100 400 500> 580 20G<200 300>
VStem: 0 100<200 300 400 500> 200 100<100 300 400 600> 400 100<200 300 400 500>
CounterMasks: 1 0e
LayerCount: 2
Fore
SplineSet
0 500 m 1x3e
 100 500 l 1x3e
 100 400 l 1x5e
 0 400 l 1
 0 500 l 1x3e
400 500 m 1
 500 500 l 1
 500 400 l 1x3e
 400 400 l 1x5e
 400 500 l 1
200 600 m 1
 300 600 l 1
 300 400 l 1
 400 400 l 1x5e
 400 300 l 1
 500 300 l 1
 500 200 l 1
 400 200 l 1
 400 300 l 1x9e
 300 300 l 1
 300 100 l 1
 200 100 l 1
 200 300 l 1x5e
 100 300 l 1
 100 200 l 1
 0 200 l 1
 0 300 l 1
 100 300 l 1x9e
 100 400 l 1
 200 400 l 1x5e
 200 600 l 1
EndSplineSet
Validated: 5
EndChar

StartChar: percent
Encoding: 71 37 71
Width: 800
GlyphClass: 2
Flags: W
HStem: 0 100<100 200 500 600> 100 200<200 300 400 500 600 700> 300 100<500 600> 400 100<100 200> 500 200<0 100 200 300 400 500> 700 100<100 200 500 600>
VStem: 0 100<500 700> 100 100<0 100 400 500 700 800> 200 100<100 300 500 700> 300 100<300 500> 400 100<100 300 500 700> 500 100<0 100 300 400 700 800> 600 100<100 300>
LayerCount: 2
Fore
SplineSet
100 800 m 1x05
 200 800 l 1x05
 200 700 l 1x09
 100 700 l 1x0a
 100 500 l 1x12
 200 500 l 1
 200 400 l 1
 100 400 l 1x11
 100 500 l 1x12
 0 500 l 1
 0 700 l 1
 100 700 l 1x0a
 100 800 l 1x05
500 400 m 1x2010
 600 400 l 1x2010
 600 300 l 1x4010
 700 300 l 1
 700 100 l 1x4008
 600 100 l 1x8010
 600 300 l 1x4010
 500 300 l 1x4020
 500 400 l 1x2010
500 800 m 1x0410
 600 800 l 1
 600 700 l 1x0410
 500 700 l 1x0820
 500 800 l 1x0410
600 100 m 1x8010
 600 0 l 1
 500 0 l 1x8010
 500 100 l 1x8020
 600 100 l 1x8010
200 500 m 1x11
 200 700 l 1x09
 300 700 l 1
 300 500 l 1x0880
 200 500 l 1x11
500 100 m 1x8020
 400 100 l 1x4020
 400 300 l 1x4040
 500 300 l 1x4020
 500 100 l 1x8020
300 500 m 1x4880
 400 500 l 1x4840
 400 700 l 1
 500 700 l 1
 500 500 l 1x4820
 400 500 l 1
 400 300 l 1x4840
 300 300 l 1
 300 500 l 1x4880
200 100 m 1x81
 200 300 l 1
 300 300 l 1
 300 100 l 1x4080
 200 100 l 1x81
200 100 m 1x81
 200 0 l 1
 100 0 l 1
 100 100 l 1
 200 100 l 1x81
EndSplineSet
Validated: 5
EndChar

StartChar: plus
Encoding: 72 43 72
Width: 600
GlyphClass: 2
Flags: W
HStem: 300 100<0 200 300 500> 580 20G<200 300>
VStem: 200 100<100 300 400 600>
LayerCount: 2
Fore
SplineSet
200 600 m 1
 300 600 l 1
 300 400 l 1
 500 400 l 1
 500 300 l 1
 300 300 l 1
 300 100 l 1
 200 100 l 1
 200 300 l 1
 0 300 l 1
 0 400 l 1
 200 400 l 1
 200 600 l 1
EndSplineSet
Validated: 1
EndChar

StartChar: ampersand
Encoding: 73 38 73
Width: 800
GlyphClass: 2
Flags: W
HStem: 0 100<100 400 500 700> 100 200<0 100 400 500> 200 100<500 600> 300 100<100 200 600 700> 400 100<200 300> 500 200<100 200 400 500> 700 100<200 400>
VStem: 0 100<100 300> 100 100<300 400 500 700> 200 200<400 500 700 800> 300 100<300 400> 400 200<200 300> 400 100<100 200 500 700> 500 200<0 100> 600 100<300 400>
LayerCount: 2
Fore
SplineSet
200 800 m 1x0240
 400 800 l 1x0240
 400 700 l 1x0440
 200 700 l 1x0480
 200 500 l 1x0880
 100 500 l 1
 100 700 l 1
 200 700 l 1x0480
 200 800 l 1x0240
600 400 m 1x1002
 700 400 l 1
 700 300 l 1x1002
 600 300 l 1x2010
 600 400 l 1x1002
0 100 m 1x41
 0 300 l 1
 100 300 l 1x41
 100 400 l 1
 200 400 l 1x1080
 200 500 l 1x0880
 400 500 l 1
 400 700 l 1x0440
 500 700 l 1
 500 500 l 1x0408
 400 500 l 1x0440
 400 300 l 1x4420
 600 300 l 1
 600 200 l 1x2010
 500 200 l 1
 500 100 l 1xa008
 700 100 l 1
 700 0 l 1
 500 0 l 1xa004
 500 100 l 1
 400 100 l 1xa008
 400 300 l 1x4020
 300 300 l 1x1020
 300 400 l 1x0820
 200 400 l 1
 200 300 l 1x10a0
 100 300 l 1x41
 100 100 l 1x81
 0 100 l 1x41
400 100 m 1x8108
 400 0 l 1
 100 0 l 1x8088
 100 100 l 1
 400 100 l 1x8108
EndSplineSet
Validated: 5
AlternateSubs2: "'aalt' Access All Alternates lookup 0 subtable" ampersand.sc
EndChar

StartChar: numbersign
Encoding: 74 35 74
Width: 600
GlyphClass: 2
Flags: W
HStem: 0 21G<100 200 300 400> 0 21G<100 200 300 400> 200 100<0 100 200 300 400 500> 500 100<0 100 200 300 400 500> 780 20G<100 200 300 400>
VStem: 100 100<0 200 300 500 600 800> 300 100<0 200 300 500 600 800>
LayerCount: 2
Fore
SplineSet
100 800 m 1xbe
 200 800 l 1
 200 600 l 1
 300 600 l 1
 300 800 l 1
 400 800 l 1
 400 600 l 1
 500 600 l 1
 500 500 l 1
 400 500 l 1
 400 300 l 1
 500 300 l 1
 500 200 l 1
 400 200 l 1
 400 0 l 1
 300 0 l 1
 300 200 l 1
 200 200 l 1
 200 0 l 1
 100 0 l 1
 100 200 l 1
 0 200 l 1
 0 300 l 1
 100 300 l 1
 100 500 l 1
 0 500 l 1
 0 600 l 1
 100 600 l 1
 100 800 l 1xbe
300 500 m 1
 200 500 l 1
 200 300 l 1
 300 300 l 1
 300 500 l 1
EndSplineSet
Validated: 1
EndChar

StartChar: dollar
Encoding: 75 36 75
Width: 600
GlyphClass: 2
Flags: W
HStem: 0 200<0 100> 0 100<100 200 300 400> 300 100<300 400> 400 100<100 200> 500 200<0 100> 600 200<400 500> 700 100<100 200 300 400> 880 20G<200 300>
VStem: 0 100<100 200 500 700> 100 200<400 500> 200 200<300 400> 200 100<-100 0 100 300 500 700 800 900> 400 100<100 300 600 700>
LayerCount: 2
Fore
SplineSet
0 200 m 1x8198
 100 200 l 1x8198
 100 100 l 1
 200 100 l 1x4198
 200 400 l 1x5120
 100 400 l 1x5140
 100 500 l 1
 200 500 l 1
 200 700 l 1x5390
 100 700 l 1x0990
 100 500 l 1x1190
 0 500 l 1
 0 700 l 1
 100 700 l 1x0990
 100 800 l 1x0340
 200 800 l 1
 200 900 l 1
 300 900 l 1
 300 800 l 1x0310
 500 800 l 1
 500 600 l 1
 400 600 l 1x0518
 400 700 l 1
 300 700 l 1x0318
 300 400 l 1x2340
 400 400 l 1
 400 300 l 1x2320
 500 300 l 1
 500 100 l 1
 400 100 l 1
 400 0 l 1
 300 0 l 1
 300 -100 l 1
 200 -100 l 1
 200 0 l 1x6318
 0 0 l 1
 0 200 l 1x8198
400 100 m 1x6118
 400 300 l 1x6120
 300 300 l 1
 300 100 l 1
 400 100 l 1x6118
EndSplineSet
Validated: 5
EndChar

StartChar: zero
Encoding: 76 48 76
Width: 625
GlyphClass: 2
Flags: W
HStem: 0 100<100 400> 700 100<100 400>
VStem: 0 100<100 700> 100 300<0 100 700 800> 400 100<100 700>
LayerCount: 2
Fore
SplineSet
100 800 m 1xd0
 400 800 l 1
 400 700 l 1xd0
 500 700 l 1
 500 100 l 1xc8
 400 100 l 1
 400 700 l 1xd0
 100 700 l 1xe0
 100 800 l 1xd0
400 100 m 1
 400 0 l 1
 100 0 l 1xd0
 100 100 l 1
 0 100 l 1
 0 700 l 1
 100 700 l 1
 100 100 l 1xe0
 400 100 l 1
EndSplineSet
Validated: 5
AlternateSubs2: "'aalt' Access All Alternates lookup 0 subtable" zero.slash
EndChar

StartChar: one
Encoding: 77 49 77
Width: 425
GlyphClass: 2
Flags: W
HStem: 0 100<0 100 200 300> 600 100<0 100> 780 20G<100 200>
VStem: 0 200<600 700> 100 100<100 600 700 800>
LayerCount: 2
Fore
SplineSet
200 100 m 1xe8
 300 100 l 1
 300 0 l 1
 0 0 l 1
 0 100 l 1xf0
 100 100 l 1
 100 600 l 1xe8
 0 600 l 1
 0 700 l 1xf0
 100 700 l 1
 100 800 l 1
 200 800 l 1
 200 100 l 1xe8
EndSplineSet
Validated: 1
AlternateSubs2: "'aalt' Access All Alternates lookup 0 subtable" one.oldstyle
Substitution2: "'onum' Oldstyle Figures in Latin lookup 0-1" one.oldstyle
EndChar

StartChar: two
Encoding: 78 50 78
Width: 625
GlyphClass: 2
Flags: W
HStem: 0 200<0 100 400 500> 0 100<100 400> 200 100<100 200> 300 100<200 300> 400 100<300 400> 500 200<400 500> 600 100<0 100> 700 100<100 400>
VStem: 0 100<100 200 600 700> 100 100<200 300> 200 100<300 400> 300 100<400 500> 400 100<100 200 500 700>
LayerCount: 2
Fore
SplineSet
100 800 m 1x0140
 400 800 l 1x0148
 400 700 l 1
 500 700 l 1
 500 500 l 1x0448
 400 500 l 1
 400 400 l 1x0810
 300 400 l 1
 300 300 l 1x1020
 200 300 l 1
 200 200 l 1x2040
 100 200 l 1x8080
 100 300 l 1
 200 300 l 1x2040
 200 400 l 1
 300 400 l 1x1020
 300 500 l 1
 400 500 l 1x0810
 400 700 l 1x0408
 100 700 l 1
 100 600 l 1
 0 600 l 1
 0 700 l 1
 100 700 l 1x0288
 100 800 l 1x0140
400 200 m 1x8088
 500 200 l 1
 500 0 l 1
 0 0 l 1
 0 200 l 1
 100 200 l 1x8088
 100 100 l 1
 400 100 l 1x4088
 400 200 l 1x8088
EndSplineSet
Validated: 5
AlternateSubs2: "'aalt' Access All Alternates lookup 0 subtable" two.oldstyle
Substitution2: "'onum' Oldstyle Figures in Latin lookup 0-1" two.oldstyle
EndChar

StartChar: three
Encoding: 79 51 79
Width: 625
GlyphClass: 2
Flags: W
HStem: 0 100<100 400> 100 100<0 100> 400 200<300 400> 400 100<200 300> 600 200<0 100 400 500> 700 100<100 400>
VStem: 0 100<100 200 600 700> 200 200<400 500> 300 100<500 600> 400 100<100 400 600 700>
LayerCount: 2
Fore
SplineSet
0 200 m 1x42
 100 200 l 1x42
 100 100 l 1x82
 0 100 l 1
 0 200 l 1x42
0 800 m 1x0a40
 500 800 l 1
 500 600 l 1x0a40
 400 600 l 1x2280
 400 400 l 1x23
 500 400 l 1
 500 100 l 1x5240
 400 100 l 1
 400 0 l 1
 100 0 l 1
 100 100 l 1
 400 100 l 1x8240
 400 400 l 1xa3
 200 400 l 1
 200 500 l 1x13
 300 500 l 1x1280
 300 600 l 1
 400 600 l 1x2280
 400 700 l 1
 100 700 l 1x2640
 100 600 l 1
 0 600 l 1
 0 800 l 1x0a40
EndSplineSet
Validated: 5
AlternateSubs2: "'aalt' Access All Alternates lookup 0 subtable" three.oldstyle
Substitution2: "'onum' Oldstyle Figures in Latin lookup 0-1" three.oldstyle
EndChar

StartChar: four
Encoding: 80 52 80
Width: 625
GlyphClass: 2
Flags: W
HStem: 0 100<200 300 400 500> 200 200<0 100> 200 100<100 300 400 500> 400 200<100 200> 600 200<200 300>
VStem: 0 100<300 400> 100 100<400 600> 200 100<600 800> 300 100<100 200 300 600>
LayerCount: 2
Fore
SplineSet
200 800 m 1x89
 300 800 l 1
 300 600 l 1x89
 400 600 l 1
 400 300 l 1
 500 300 l 1
 500 200 l 1
 400 200 l 1
 400 100 l 1xa880
 500 100 l 1
 500 0 l 1
 200 0 l 1
 200 100 l 1xa9
 300 100 l 1
 300 200 l 1xa880
 0 200 l 1
 0 400 l 1
 100 400 l 1xc480
 100 600 l 1
 200 600 l 1x92
 200 800 l 1x89
100 400 m 1xc4
 100 300 l 1
 300 300 l 1xa480
 300 600 l 1xa9
 200 600 l 1
 200 400 l 1x92
 100 400 l 1xc4
EndSplineSet
Validated: 5
AlternateSubs2: "'aalt' Access All Alternates lookup 0 subtable" four.oldstyle
Substitution2: "'onum' Oldstyle Figures in Latin lookup 0-1" four.oldstyle
EndChar

StartChar: five
Encoding: 81 53 81
Width: 625
GlyphClass: 2
Flags: W
HStem: 0 100<100 400> 100 100<0 100> 400 100<100 400> 700 100<100 500>
VStem: 0 100<100 200 500 700> 400 100<100 400>
LayerCount: 2
Fore
SplineSet
0 200 m 5x7c
 100 200 l 5x7c
 100 100 l 5xbc
 0 100 l 5
 0 200 l 5x7c
100 100 m 5xbc
 400 100 l 5
 400 0 l 5
 100 0 l 5
 100 100 l 5xbc
400 100 m 5
 400 400 l 5
 500 400 l 5
 500 100 l 5x7c
 400 100 l 5
0 800 m 5
 500 800 l 5
 500 700 l 5
 100 700 l 5
 100 500 l 5
 400 500 l 5
 400 400 l 5
 0 400 l 5
 0 800 l 5
EndSplineSet
Validated: 5
AlternateSubs2: "'aalt' Access All Alternates lookup 0 subtable" five.oldstyle
Substitution2: "'onum' Oldstyle Figures in Latin lookup 0-1" five.oldstyle
EndChar

StartChar: six
Encoding: 82 54 82
Width: 625
GlyphClass: 2
Flags: W
HStem: 0 100<100 400> 400 100<100 400> 600 100<100 200> 700 100<200 400>
VStem: 0 100<100 400 500 600> 100 100<600 700> 200 200<700 800> 400 100<100 400>
LayerCount: 2
Fore
SplineSet
200 800 m 1xd2
 400 800 l 1
 400 700 l 1xd2
 200 700 l 1
 200 600 l 1xe4
 100 600 l 1
 100 500 l 1xe8
 400 500 l 1
 400 400 l 1
 500 400 l 1
 500 100 l 1
 400 100 l 1
 400 0 l 1
 100 0 l 1xe5
 100 100 l 1
 400 100 l 1
 400 400 l 1
 100 400 l 1
 100 100 l 1
 0 100 l 1
 0 600 l 1
 100 600 l 1xe9
 100 700 l 1
 200 700 l 1xe4
 200 800 l 1xd2
EndSplineSet
Validated: 5
AlternateSubs2: "'aalt' Access All Alternates lookup 0 subtable" six.oldstyle
Substitution2: "'onum' Oldstyle Figures in Latin lookup 0-1" six.oldstyle
EndChar

StartChar: seven
Encoding: 83 55 83
Width: 625
GlyphClass: 2
Flags: W
HStem: 0 21G<200 300> 0 21G<200 300> 300 200<300 400> 600 200<0 100> 700 100<100 400>
VStem: 0 100<600 700> 200 100<0 300> 300 100<300 500> 400 100<500 700>
LayerCount: 2
Fore
SplineSet
0 800 m 1x3480
 500 800 l 1
 500 500 l 1x2c80
 400 500 l 1
 400 300 l 1x2d
 300 300 l 1
 300 0 l 1
 200 0 l 1
 200 300 l 1
 300 300 l 1xae
 300 500 l 1
 400 500 l 1xad
 400 700 l 1
 100 700 l 1xac80
 100 600 l 1
 0 600 l 1
 0 800 l 1x3480
EndSplineSet
Validated: 5
AlternateSubs2: "'aalt' Access All Alternates lookup 0 subtable" seven.oldstyle
Substitution2: "'onum' Oldstyle Figures in Latin lookup 0-1" seven.oldstyle
EndChar

StartChar: eight
Encoding: 84 56 84
Width: 625
GlyphClass: 2
Flags: W
HStem: 0 100<100 400> 100 300<0 100 400 500> 400 100<100 400> 500 200<0 100 400 500> 700 100<100 400>
VStem: 0 100<100 400 500 700> 100 300<0 100 400 500 700 800> 400 100<100 400 500 700>
LayerCount: 2
Fore
SplineSet
100 800 m 1x0a
 400 800 l 1x0a
 400 700 l 1x12
 500 700 l 1
 500 500 l 1x11
 400 500 l 1x22
 400 400 l 1x42
 500 400 l 1
 500 100 l 1x41
 400 100 l 1x82
 400 400 l 1x42
 100 400 l 1x44
 100 100 l 1x84
 400 100 l 1
 400 0 l 1
 100 0 l 1x82
 100 100 l 1x84
 0 100 l 1
 0 400 l 1
 100 400 l 1x44
 100 500 l 1x24
 400 500 l 1x22
 400 700 l 1x12
 100 700 l 1x14
 100 500 l 1x24
 0 500 l 1
 0 700 l 1
 100 700 l 1x14
 100 800 l 1x0a
EndSplineSet
Validated: 5
AlternateSubs2: "'aalt' Access All Alternates lookup 0 subtable" eight.oldstyle
Substitution2: "'onum' Oldstyle Figures in Latin lookup 0-1" eight.oldstyle
EndChar

StartChar: nine
Encoding: 85 57 85
Width: 625
GlyphClass: 2
Flags: W
HStem: 0 100<100 300> 100 100<300 400> 300 100<100 400> 700 100<100 400>
VStem: 0 100<400 700> 100 200<0 100> 300 100<100 200> 400 100<200 300 400 700>
LayerCount: 2
Fore
SplineSet
300 0 m 1xb4
 100 0 l 1
 100 100 l 1
 300 100 l 1
 300 0 l 1xb4
400 700 m 1x79
 500 700 l 1
 500 200 l 1x79
 400 200 l 1
 400 100 l 1x72
 300 100 l 1xb4
 300 200 l 1
 400 200 l 1x72
 400 300 l 1
 100 300 l 1x75
 100 400 l 1
 400 400 l 1
 400 700 l 1x79
400 700 m 1
 100 700 l 1
 100 400 l 1
 0 400 l 1
 0 700 l 1
 100 700 l 1x39
 100 800 l 1x34
 400 800 l 1
 400 700 l 1
EndSplineSet
Validated: 5
AlternateSubs2: "'aalt' Access All Alternates lookup 0 subtable" nine.oldstyle
Substitution2: "'onum' Oldstyle Figures in Latin lookup 0-1" nine.oldstyle
EndChar

StartChar: colon
Encoding: 86 58 86
Width: 200
GlyphClass: 2
Flags: W
HStem: 100 100<0 100> 400 100<0 100>
VStem: 0 100<100 200 400 500>
LayerCount: 2
Fore
SplineSet
0 500 m 1
 100 500 l 1
 100 400 l 1
 0 400 l 1
 0 500 l 1
0 200 m 1
 100 200 l 1
 100 100 l 1
 0 100 l 1
 0 200 l 1
EndSplineSet
Validated: 1
EndChar

StartChar: semicolon
Encoding: 87 59 87
Width: 300
GlyphClass: 2
Flags: W
HStem: -100 100<0 100> 0 200<100 200> 400 100<100 200>
VStem: 0 100<-100 0> 100 100<0 200 400 500>
LayerCount: 2
Fore
SplineSet
100 200 m 1x68
 200 200 l 1
 200 0 l 1x68
 100 0 l 1
 100 -100 l 1
 0 -100 l 1
 0 0 l 1
 100 0 l 1xb0
 100 200 l 1x68
100 500 m 1
 200 500 l 1
 200 400 l 1
 100 400 l 1
 100 500 l 1
EndSplineSet
Validated: 5
EndChar

StartChar: less
Encoding: 88 60 88
Width: 600
GlyphClass: 2
Flags: W
HStem: 100 100<400 500> 200 100<200 400> 300 100<0 200> 400 100<200 400> 500 100<400 500>
VStem: 0 200<300 400> 200 200<200 300 400 500> 400 100<100 200 500 600>
LayerCount: 2
Fore
SplineSet
400 600 m 1x09
 500 600 l 1
 500 500 l 1x09
 400 500 l 1x12
 400 600 l 1x09
400 200 m 1x82
 500 200 l 1
 500 100 l 1
 400 100 l 1x81
 400 200 l 1x82
400 200 m 1x82
 200 200 l 1x42
 200 300 l 1x44
 400 300 l 1x42
 400 200 l 1x82
200 300 m 1x44
 0 300 l 1
 0 400 l 1
 200 400 l 1x24
 200 500 l 1
 400 500 l 1
 400 400 l 1x12
 200 400 l 1x24
 200 300 l 1x44
EndSplineSet
Validated: 5
EndChar

StartChar: equal
Encoding: 89 61 89
Width: 600
GlyphClass: 2
Flags: W
HStem: 200 100<0 500> 400 100<0 500>
LayerCount: 2
Fore
SplineSet
0 500 m 1
 500 500 l 5
 500 400 l 5
 0 400 l 1
 0 500 l 1
0 300 m 1
 500 300 l 5
 500 200 l 5
 0 200 l 1
 0 300 l 1
EndSplineSet
Validated: 1
EndChar

StartChar: greater
Encoding: 90 62 90
Width: 600
GlyphClass: 2
Flags: W
HStem: 100 100<0 100> 200 100<100 300> 400 100<100 300> 500 100<0 100>
VStem: 0 100<100 200 500 600> 100 200<200 300 400 500> 300 200<300 400>
LayerCount: 2
Fore
SplineSet
0 600 m 1x18
 100 600 l 1x18
 100 500 l 1x28
 0 500 l 1
 0 600 l 1x18
100 200 m 1x88
 100 300 l 1
 300 300 l 1
 300 400 l 1
 100 400 l 1x64
 100 500 l 1x68
 300 500 l 1
 300 400 l 1x64
 500 400 l 1
 500 300 l 1x62
 300 300 l 1
 300 200 l 1x64
 100 200 l 1x88
100 200 m 1x88
 100 100 l 1
 0 100 l 1
 0 200 l 1
 100 200 l 1x88
EndSplineSet
Validated: 5
EndChar

StartChar: question
Encoding: 91 63 91
Width: 500
GlyphClass: 2
Flags: W
HStem: 0 100<100 200> 200 200<100 200> 300 100<200 300> 700 100<200 300> 800 100<0 200>
VStem: 0 200<800 900> 100 100<0 100 200 300> 200 100<700 800> 300 100<400 700>
LayerCount: 2
Fore
SplineSet
0 900 m 1x8c
 200 900 l 1x8c
 200 800 l 1x94
 0 800 l 1
 0 900 l 1x8c
100 200 m 1xc280
 100 400 l 1xc280
 300 400 l 1xa280
 300 700 l 1
 200 700 l 1xb1
 200 800 l 1xb4
 300 800 l 1
 300 700 l 1xb1
 400 700 l 1
 400 400 l 1
 300 400 l 1
 300 300 l 1
 200 300 l 1xb280
 200 200 l 1
 100 200 l 1xc280
100 100 m 1
 200 100 l 1
 200 0 l 1
 100 0 l 1
 100 100 l 1
EndSplineSet
Validated: 5
AlternateSubs2: "'aalt' Access All Alternates lookup 0 subtable" question.sc
EndChar

StartChar: grave
Encoding: 92 96 92
Width: 300
GlyphClass: 2
Flags: W
HStem: 600 100<100 200> 700 100<0 100>
VStem: 0 100<700 800> 100 100<600 700>
LayerCount: 2
Fore
SplineSet
0 800 m 5x60
 100 800 l 5x60
 100 700 l 5xa0
 200 700 l 5
 200 600 l 5
 100 600 l 5x90
 100 700 l 5xa0
 0 700 l 5
 0 800 l 5x60
EndSplineSet
Validated: 5
EndChar

StartChar: quotesingle
Encoding: 93 39 93
Width: 300
GlyphClass: 2
Flags: W
HStem: 600 100<0 100> 700 200<100 200>
VStem: 0 100<600 700> 100 100<700 900>
LayerCount: 2
Fore
SplineSet
100 900 m 5x50
 200 900 l 5
 200 700 l 5x50
 100 700 l 5
 100 600 l 5
 0 600 l 5
 0 700 l 5
 100 700 l 5xa0
 100 900 l 5x50
EndSplineSet
Validated: 5
EndChar

StartChar: at
Encoding: 94 64 94
Width: 800
GlyphClass: 2
Flags: W
HStem: 0 100<200 600> 100 100<100 200> 200 200<200 300> 200 100<300 400 500 600> 500 100<300 400> 600 100<100 200 500 600> 700 100<200 500>
VStem: 0 100<200 600> 100 100<100 200 600 700> 200 100<300 400> 300 200<500 600> 400 100<300 500> 500 100<600 700> 600 100<300 600>
LayerCount: 2
Fore
SplineSet
200 400 m 1x2040
 300 400 l 1x2040
 300 300 l 1
 400 300 l 1
 400 500 l 1x1850
 300 500 l 1
 300 600 l 1x1820
 500 600 l 1x0420
 500 300 l 1
 600 300 l 1
 600 200 l 1x1414
 200 200 l 1x4094
 200 400 l 1x2040
200 800 m 1x0240
 500 800 l 1x0248
 500 700 l 1
 600 700 l 1
 600 600 l 1x0448
 700 600 l 1
 700 300 l 1
 600 300 l 1x1404
 600 600 l 1x1408
 500 600 l 1x1420
 500 700 l 1
 200 700 l 1x1488
 200 800 l 1x0240
0 200 m 1x11
 0 600 l 1
 100 600 l 1x15
 100 700 l 1
 200 700 l 1
 200 600 l 1x1480
 100 600 l 1
 100 200 l 1x45
 0 200 l 1x11
200 100 m 1x8080
 100 100 l 1x4080
 100 200 l 1x41
 200 200 l 1x4080
 200 100 l 1x8080
200 100 m 1x8080
 600 100 l 1
 600 0 l 1
 200 0 l 1x8044
 200 100 l 1x8080
EndSplineSet
Validated: 5
EndChar

StartChar: exclamdown
Encoding: 95 161 95
Width: 300
GlyphClass: 2
Flags: W
HStem: 500 100<100 200>
VStem: 100 100<-200 400 500 600>
LayerCount: 2
Fore
SplineSet
100 600 m 1
 200 600 l 1
 200 500 l 1
 100 500 l 1
 100 600 l 1
100 -200 m 1
 100 400 l 1
 200 400 l 1
 200 -200 l 1
 100 -200 l 1
EndSplineSet
Validated: 1
AlternateSubs2: "'aalt' Access All Alternates lookup 0 subtable" exclamdown.sc
EndChar

StartChar: cent
Encoding: 96 162 96
Width: 600
GlyphClass: 2
Flags: W
HStem: 0 100<100 200 300 400> 100 100<400 500> 400 200<400 500> 500 100<100 200 300 400>
VStem: 0 100<100 500> 200 100<-100 0 100 500 600 700> 400 100<100 200 400 500>
CounterMasks: 1 0e
LayerCount: 2
Fore
SplineSet
500 600 m 5x2e
 500 400 l 5
 400 400 l 5x2e
 400 500 l 5
 300 500 l 5
 300 100 l 5
 400 100 l 5
 400 0 l 5
 300 0 l 5
 300 -100 l 5
 200 -100 l 5
 200 0 l 5
 100 0 l 5
 100 100 l 5x9e
 0 100 l 5
 0 500 l 5
 100 500 l 5
 100 600 l 5
 200 600 l 5
 200 700 l 5
 300 700 l 5
 300 600 l 5x5e
 500 600 l 5x2e
100 500 m 5x9e
 100 100 l 5
 200 100 l 5
 200 500 l 5
 100 500 l 5x9e
400 100 m 5
 400 200 l 5
 500 200 l 5
 500 100 l 5x4e
 400 100 l 5
EndSplineSet
Validated: 5
EndChar

StartChar: sterling
Encoding: 97 163 97
Width: 700
GlyphClass: 2
Flags: W
HStem: 0 200<100 200 500 600> 0 100<0 100 200 500> 400 100<100 200 300 500> 600 200<500 600> 700 100<300 500>
VStem: 100 100<100 200> 200 100<200 400 500 700> 500 100<100 200 600 700>
LayerCount: 2
Fore
SplineSet
300 800 m 1x2b
 600 800 l 1
 600 600 l 1
 500 600 l 1x33
 500 700 l 1
 300 700 l 1
 300 800 l 1x2b
500 200 m 1xa5
 600 200 l 1
 600 0 l 1xa5
 0 0 l 1
 0 100 l 1
 100 100 l 1x65
 100 200 l 1
 200 200 l 1xa5
 200 400 l 1xa3
 100 400 l 1
 100 500 l 1xa5
 200 500 l 1
 200 700 l 1
 300 700 l 1
 300 500 l 1
 500 500 l 1
 500 400 l 1
 300 400 l 1
 300 200 l 1xab
 200 200 l 1xad
 200 100 l 1
 500 100 l 1x65
 500 200 l 1xa5
EndSplineSet
Validated: 5
EndChar

StartChar: yen
Encoding: 98 165 98
Width: 800
GlyphClass: 2
Flags: W
HStem: 0 100<200 300 400 500> 200 100<100 300 400 600> 400 200<200 300 400 500> 600 200<100 200 500 600> 700 100<0 100 200 300 400 500 600 700>
VStem: 100 100<600 700> 200 100<400 600> 300 100<100 200 300 400> 400 100<400 600> 500 100<600 700>
LayerCount: 2
Fore
SplineSet
400 800 m 1xe880
 700 800 l 1
 700 700 l 1
 600 700 l 1xe840
 600 600 l 1xd040
 500 600 l 1
 500 400 l 1xe080
 400 400 l 1
 400 300 l 1
 600 300 l 1
 600 200 l 1
 400 200 l 1
 400 100 l 1xe140
 500 100 l 1
 500 0 l 1
 200 0 l 1
 200 100 l 1xe240
 300 100 l 1
 300 200 l 1
 100 200 l 1
 100 300 l 1
 300 300 l 1xe5
 300 400 l 1xe2
 400 400 l 1xe1
 400 600 l 1
 500 600 l 1xe080
 500 700 l 1xe840
 400 700 l 1
 400 800 l 1xe880
0 800 m 1
 300 800 l 1
 300 700 l 1
 200 700 l 1
 200 600 l 1xed
 300 600 l 1
 300 400 l 1
 200 400 l 1xea
 200 600 l 1xec
 100 600 l 1xd4
 100 700 l 1xcc
 0 700 l 1
 0 800 l 1
EndSplineSet
Validated: 5
EndChar

StartChar: zero.oldstyle
Encoding: 99 57344 99
Width: 625
GlyphClass: 2
Flags: W
HStem: 0 100<100 400> 500 100<100 400>
VStem: 0 100<100 500> 100 300<0 100 500 600> 400 100<100 500>
LayerCount: 2
Fore
SplineSet
100 600 m 1xd0
 400 600 l 1
 400 500 l 1xd0
 500 500 l 1
 500 100 l 1xc8
 400 100 l 1
 400 500 l 1xd0
 100 500 l 1xe0
 100 600 l 1xd0
400 100 m 1
 400 0 l 1
 100 0 l 1xd0
 100 100 l 1
 0 100 l 1
 0 500 l 1
 100 500 l 1
 100 100 l 1xe0
 400 100 l 1
EndSplineSet
EndChar

StartChar: one.oldstyle
Encoding: 100 57345 100
Width: 425
GlyphClass: 2
Flags: W
HStem: 0 100<0 100 200 300> 500 100<0 100>
VStem: 0 200<500 600> 100 100<100 500>
LayerCount: 2
Fore
SplineSet
0 600 m 1xe0
 200 600 l 1xe0
 200 100 l 1xd0
 300 100 l 1
 300 0 l 1
 0 0 l 1
 0 100 l 1xe0
 100 100 l 1
 100 500 l 1xd0
 0 500 l 1
 0 600 l 1xe0
EndSplineSet
EndChar

StartChar: two.oldstyle
Encoding: 101 57346 101
Width: 525
GlyphClass: 2
Flags: W
HStem: 0 200<0 100 300 400> 0 100<100 300> 200 100<100 200> 300 100<200 300> 400 100<0 100> 500 100<100 300>
VStem: 0 100<100 200 400 500> 100 100<200 300> 200 100<300 400> 300 100<100 200 400 500>
LayerCount: 2
Fore
SplineSet
300 200 m 1x8240
 400 200 l 1
 400 0 l 1
 0 0 l 1
 0 200 l 1
 100 200 l 1x8240
 100 100 l 1
 300 100 l 1x4240
 300 200 l 1x8240
100 600 m 1x05
 400 600 l 1x0540
 400 400 l 1x0940
 300 400 l 1
 300 300 l 1x1080
 200 300 l 1
 200 200 l 1x21
 100 200 l 1x82
 100 300 l 1
 200 300 l 1x21
 200 400 l 1
 300 400 l 1x1080
 300 500 l 1x1440
 100 500 l 1x0a40
 100 600 l 1x05
0 400 m 1x0a
 0 500 l 1
 100 500 l 1
 100 400 l 1
 0 400 l 1x0a
EndSplineSet
EndChar

StartChar: three.oldstyle
Encoding: 102 57347 102
Width: 525
GlyphClass: 2
Flags: W
HStem: -200 100<0 200> -100 100<200 300> 200 200<200 300> 200 100<100 200> 400 200<0 100 300 400> 500 100<100 300>
VStem: 0 200<-200 -100> 0 100<400 500> 100 200<200 300> 200 100<-100 0 300 400> 300 100<0 200 400 500>
LayerCount: 2
Fore
SplineSet
100 500 m 1x2520
 100 400 l 1
 0 400 l 1
 0 600 l 1
 400 600 l 1
 400 400 l 1x0920
 300 400 l 1x2040
 300 200 l 1x2080
 400 200 l 1
 400 0 l 1x5020
 300 0 l 1
 300 -100 l 1x5040
 200 -100 l 1
 200 -200 l 1
 0 -200 l 1
 0 -100 l 1
 200 -100 l 1x82
 200 0 l 1
 300 0 l 1x4040
 300 200 l 1x6080
 100 200 l 1
 100 300 l 1x1080
 200 300 l 1x1040
 200 400 l 1
 300 400 l 1x2040
 300 500 l 1
 100 500 l 1x2520
EndSplineSet
EndChar

StartChar: four.oldstyle
Encoding: 103 57348 103
Width: 625
GlyphClass: 2
Flags: W
HStem: 0 200<0 100> 0 100<100 300 400 500> 200 100<100 200> 300 100<200 300> 400 100<300 400> 500 100<400 500>
VStem: 0 100<100 200> 100 100<200 300> 200 100<300 400> 300 100<-200 0 100 300 400 500> 400 100<500 600>
LayerCount: 2
Fore
SplineSet
400 600 m 1x0420
 500 600 l 1
 500 500 l 1x0420
 400 500 l 1x0840
 400 600 l 1x0420
100 200 m 1x8240
 100 300 l 1
 200 300 l 1x21
 200 400 l 1
 300 400 l 1x1080
 300 500 l 1
 400 500 l 1
 400 400 l 1x0840
 300 400 l 1
 300 300 l 1x1080
 400 300 l 1
 400 100 l 1x5040
 500 100 l 1
 500 0 l 1x5020
 400 0 l 1
 400 -200 l 1
 300 -200 l 1
 300 0 l 1x5040
 0 0 l 1
 0 200 l 1
 100 200 l 1x8240
100 200 m 1x82
 100 100 l 1
 300 100 l 1x4240
 300 300 l 1x5080
 200 300 l 1
 200 200 l 1x21
 100 200 l 1x82
EndSplineSet
EndChar

StartChar: five.oldstyle
Encoding: 104 57349 104
Width: 525
GlyphClass: 2
Flags: W
HStem: -200 100<0 200> -100 100<200 300> 300 100<100 300> 500 100<100 400>
VStem: 0 200<-200 -100> 0 100<400 500> 200 100<-100 0> 300 100<0 300>
LayerCount: 2
Fore
SplineSet
0 -200 m 1xb8
 0 -100 l 1
 200 -100 l 1
 200 -200 l 1
 0 -200 l 1xb8
300 300 m 1x71
 400 300 l 1
 400 0 l 1x71
 300 0 l 1
 300 -100 l 1x72
 200 -100 l 1xb8
 200 0 l 1
 300 0 l 1x72
 300 300 l 1x71
300 300 m 1
 0 300 l 1
 0 600 l 1
 400 600 l 1
 400 500 l 1
 100 500 l 1
 100 400 l 1x35
 300 400 l 1
 300 300 l 1
EndSplineSet
EndChar

StartChar: six.oldstyle
Encoding: 105 57350 105
Width: 600
GlyphClass: 2
InSpiro: 1
Flags: W
HStem: 0 100<100 300> 100 200<300 400> 300 100<100 300> 500 100<100 200> 600 100<200 300> 700 100<300 500>
VStem: 0 100<100 300 400 500> 100 100<500 600> 200 100<600 700> 300 200<700 800> 300 100<100 300>
LayerCount: 2
Fore
SplineSet
300 800 m 1x0440
 500 800 l 1
 500 700 l 1x0440
 300 700 l 1x0880
 300 800 l 1x0440
  Spiro
    300 800 v
    500 800 v
    500 700 v
    300 700 v
    0 0 z
  EndSpiro
100 100 m 1xa220
 0 100 l 1
 0 500 l 1
 100 500 l 1x5220
 100 600 l 1
 200 600 l 1x51
 200 700 l 1
 300 700 l 1
 300 600 l 1x0880
 200 600 l 1
 200 500 l 1x11
 100 500 l 1
 100 400 l 1
 300 400 l 1x3220
 300 300 l 1x4220
 100 300 l 1
 100 100 l 1xa220
  Spiro
    100 100 v
    0 100 v
    0 500 v
    100 500 v
    100 600 v
    200 600 v
    200 700 v
    300 700 v
    300 600 v
    200 600 v
    200 500 v
    100 500 v
    100 400 v
    300 400 v
    300 300 v
    100 300 v
    0 0 z
  EndSpiro
100 100 m 1x82
 300 100 l 1x8220
 300 300 l 1
 400 300 l 1
 400 100 l 1x4220
 300 100 l 1
 300 0 l 1
 100 0 l 1x8120
 100 100 l 1x82
  Spiro
    100 100 v
    300 100 v
    300 300 v
    400 300 v
    400 100 v
    300 100 v
    300 0 v
    100 0 v
    0 0 z
  EndSpiro
EndSplineSet
EndChar

StartChar: seven.oldstyle
Encoding: 106 57351 106
Width: 625
GlyphClass: 2
Flags: W
HStem: -200 200<100 200> 0 200<200 300> 200 200<300 400> 400 200<0 100 400 500> 500 100<100 400>
VStem: 0 100<400 500> 100 100<-200 0> 200 100<0 200> 300 100<200 400> 400 100<400 500>
LayerCount: 2
Fore
SplineSet
0 600 m 1x1440
 500 600 l 1
 500 400 l 1x1440
 400 400 l 1
 400 200 l 1x2080
 300 200 l 1
 300 0 l 1x41
 200 0 l 1
 200 -200 l 1
 100 -200 l 1
 100 0 l 1
 200 0 l 1x82
 200 200 l 1
 300 200 l 1x41
 300 400 l 1
 400 400 l 1x2080
 400 500 l 1
 100 500 l 1x2c40
 100 400 l 1
 0 400 l 1
 0 600 l 1x1440
EndSplineSet
EndChar

StartChar: eight.oldstyle
Encoding: 107 57352 107
Width: 625
GlyphClass: 2
Flags: W
HStem: 0 100<100 400> 100 200<0 100 400 500> 300 100<100 200 300 400> 400 100<200 300> 500 100<100 200 300 400> 600 100<0 100 400 500> 700 100<100 400>
VStem: 0 100<100 300 600 700> 100 100<300 400 500 600> 200 100<400 500> 300 100<300 400 500 600> 400 100<100 300 600 700>
LayerCount: 2
Fore
SplineSet
100 800 m 1x0280
 400 800 l 1x0290
 400 700 l 1
 500 700 l 1
 500 600 l 1x0490
 400 600 l 1
 400 500 l 1x0820
 300 500 l 1x1040
 300 600 l 1
 400 600 l 1x0820
 400 700 l 1
 100 700 l 1x0510
 100 800 l 1x0280
100 100 m 1x81
 400 100 l 1
 400 0 l 1
 100 0 l 1x8090
 100 100 l 1x81
100 100 m 1x81
 0 100 l 1
 0 300 l 1
 100 300 l 1x41
 100 100 l 1x81
100 300 m 1
 100 400 l 1
 200 400 l 1
 200 300 l 1x2080
 100 300 l 1
400 100 m 1x8010
 400 300 l 1x4020
 500 300 l 1
 500 100 l 1x4010
 400 100 l 1x8010
400 300 m 1
 300 300 l 1x2020
 300 400 l 1x2040
 400 400 l 1x2020
 400 300 l 1
200 400 m 1x2080
 200 500 l 1x1080
 300 500 l 1x1040
 300 400 l 1x2040
 200 400 l 1x2080
200 500 m 1
 100 500 l 1x0880
 100 600 l 1x09
 200 600 l 1x0880
 200 500 l 1
100 600 m 1x09
 0 600 l 1
 0 700 l 1
 100 700 l 1x05
 100 600 l 1x09
EndSplineSet
EndChar

StartChar: nine.oldstyle
Encoding: 108 57353 108
Width: 525
GlyphClass: 2
Flags: W
HStem: -200 100<-100 100> -100 100<100 200> 0 100<200 300> 200 100<100 300> 300 200<0 100> 500 100<100 300>
VStem: -100 200<-200 -100> 0 100<300 500> 100 100<-100 0> 200 100<0 100> 300 100<100 200 300 500>
LayerCount: 2
Fore
SplineSet
100 600 m 1x0480
 300 600 l 1
 300 500 l 1
 400 500 l 1
 400 100 l 1x24a0
 300 100 l 1
 300 0 l 1x2440
 200 0 l 1
 200 -100 l 1x4080
 100 -100 l 1
 100 -200 l 1
 -100 -200 l 1
 -100 -100 l 1
 100 -100 l 1x82
 100 0 l 1
 200 0 l 1x4080
 200 100 l 1
 300 100 l 1x2040
 300 200 l 1
 100 200 l 1x30a0
 100 300 l 1
 300 300 l 1
 300 500 l 1x3520
 100 500 l 1x0920
 100 300 l 1x1120
 0 300 l 1
 0 500 l 1
 100 500 l 1x0920
 100 600 l 1x0480
EndSplineSet
EndChar

StartChar: currency
Encoding: 109 164 109
Width: 700
GlyphClass: 2
Flags: W
HStem: 100 100<0 100 200 400 500 600> 200 100<100 200 400 500> 300 200<0 100 500 600> 500 100<100 200 400 500> 600 100<0 100 200 400 500 600>
VStem: 0 100<100 200 300 500 600 700> 100 100<200 300 500 600> 200 200<100 200 600 700> 400 100<200 300 500 600> 500 100<100 200 300 500 600 700>
LayerCount: 2
Fore
SplineSet
200 700 m 1x09
 400 700 l 1x09
 400 600 l 1x11
 200 600 l 1
 200 500 l 1x12
 100 500 l 1x24
 100 300 l 1x44
 0 300 l 1
 0 500 l 1
 100 500 l 1x24
 100 600 l 1x14
 200 600 l 1x12
 200 700 l 1x09
500 700 m 1x0840
 600 700 l 1
 600 600 l 1x0840
 500 600 l 1x1080
 500 500 l 1x2080
 400 500 l 1x1080
 400 600 l 1x11
 500 600 l 1x1080
 500 700 l 1x0840
0 700 m 1x0c
 100 700 l 1x0c
 100 600 l 1x14
 0 600 l 1
 0 700 l 1x0c
100 300 m 1x44
 200 300 l 1x42
 200 200 l 1x82
 100 200 l 1x84
 100 300 l 1x44
100 200 m 1x84
 100 100 l 1
 0 100 l 1
 0 200 l 1
 100 200 l 1x84
200 200 m 1x82
 400 200 l 1
 400 100 l 1
 200 100 l 1x81
 200 200 l 1x82
400 200 m 1
 400 300 l 1
 500 300 l 1x4080
 500 500 l 1x2080
 600 500 l 1
 600 300 l 1x2040
 500 300 l 1x4080
 500 200 l 1x8080
 400 200 l 1
500 200 m 1x8080
 600 200 l 1
 600 100 l 1
 500 100 l 1x8040
 500 200 l 1x8080
EndSplineSet
Validated: 5
EndChar

StartChar: brokenbar
Encoding: 110 166 110
Width: 200
GlyphClass: 2
Flags: W
HStem: 880 20G<0 100>
VStem: 0 100<-200 300 400 900>
LayerCount: 2
Fore
SplineSet
0 900 m 1
 100 900 l 1
 100 400 l 1
 0 400 l 1
 0 900 l 1
0 300 m 1
 100 300 l 1
 100 -200 l 1
 0 -200 l 1
 0 300 l 1
EndSplineSet
EndChar

StartChar: dieresis
Encoding: 111 168 111
Width: 400
GlyphClass: 2
Flags: W
HStem: 600 100<0 100 200 300>
VStem: 0 100<600 700> 200 100<600 700>
LayerCount: 2
Fore
SplineSet
0 700 m 1
 100 700 l 1
 100 600 l 1
 0 600 l 1
 0 700 l 1
200 700 m 1
 300 700 l 1
 300 600 l 1
 200 600 l 1
 200 700 l 1
EndSplineSet
Validated: 1
EndChar

StartChar: Agrave
Encoding: 112 192 112
Width: 775
VWidth: -31072
GlyphClass: 2
Flags: W
HStem: 0 100<0 100 200 300 400 500 600 700> 0 300<100 200 500 600> 300 100<300 400> 300 300<200 300 400 500> 600 200<300 400> 900 100<300 400> 1000 100<200 300>
VStem: 100 100<100 300> 200 100<400 600 1000 1100> 300 100<900 1000> 400 100<400 600> 500 100<100 300>
LayerCount: 2
Fore
SplineSet
200 1100 m 1x0280
 300 1100 l 1x0280
 300 1000 l 1x0480
 400 1000 l 1
 400 900 l 1
 300 900 l 1x0440
 300 1000 l 1x0480
 200 1000 l 1
 200 1100 l 1x0280
EndSplineSet
Refer: 0 65 N 1 0 0 1 0 0 2
Validated: 5
AlternateSubs2: "'aalt' Access All Alternates lookup 0 subtable" agrave.sc
EndChar

StartChar: Aacute
Encoding: 113 193 113
Width: 775
VWidth: -31072
GlyphClass: 2
Flags: W
HStem: 0 100<0 100 200 300 400 500 600 700> 0 300<100 200 500 600> 300 100<300 400> 300 300<200 300 400 500> 600 200<300 400> 900 100<300 400> 1000 100<400 500>
VStem: 100 100<100 300> 200 100<400 600> 300 100<900 1000> 400 100<400 600 1000 1100> 500 100<100 300>
LayerCount: 2
Fore
SplineSet
400 1100 m 1x0220
 500 1100 l 1
 500 1000 l 1x0220
 400 1000 l 1
 400 900 l 1
 300 900 l 1
 300 1000 l 1
 400 1000 l 1x0440
 400 1100 l 1x0220
EndSplineSet
Refer: 0 65 N 1 0 0 1 0 0 2
Validated: 5
AlternateSubs2: "'aalt' Access All Alternates lookup 0 subtable" aacute.sc
EndChar

StartChar: Acircumflex
Encoding: 114 194 114
Width: 775
VWidth: -31072
GlyphClass: 2
Flags: W
HStem: 0 100<0 100 200 300 400 500 600 700> 0 300<100 200 500 600> 300 100<300 400> 300 300<200 300 400 500> 600 200<300 400> 900 100<200 300 400 500> 1000 100<300 400>
VStem: 100 100<100 300> 200 100<400 600 900 1000> 300 100<1000 1100> 400 100<400 600 900 1000> 500 100<100 300>
LayerCount: 2
Fore
SplineSet
300 1100 m 1x0240
 400 1100 l 1x0240
 400 1000 l 1x0440
 300 1000 l 1x0480
 300 1100 l 1x0240
300 1000 m 1x0480
 300 900 l 1
 200 900 l 1
 200 1000 l 1
 300 1000 l 1x0480
400 1000 m 1x0440
 500 1000 l 1
 500 900 l 1
 400 900 l 1x0420
 400 1000 l 1x0440
EndSplineSet
Refer: 0 65 N 1 0 0 1 0 0 2
Validated: 5
AlternateSubs2: "'aalt' Access All Alternates lookup 0 subtable" acircumflex.sc
EndChar

StartChar: Adieresis
Encoding: 115 196 115
Width: 775
VWidth: -31072
GlyphClass: 2
Flags: W
HStem: 0 100<0 100 200 300 400 500 600 700> 0 300<100 200 500 600> 300 100<300 400> 300 300<200 300 400 500> 600 200<300 400> 900 100<200 300 400 500>
VStem: 100 100<100 300> 200 100<400 600 900 1000> 400 100<400 600 900 1000> 500 100<100 300>
LayerCount: 2
Fore
SplineSet
200 1000 m 1x05
 300 1000 l 1
 300 900 l 1
 200 900 l 1
 200 1000 l 1x05
400 1000 m 1x0480
 500 1000 l 1
 500 900 l 1
 400 900 l 1
 400 1000 l 1x0480
EndSplineSet
Refer: 0 65 N 1 0 0 1 0 0 2
Validated: 5
AlternateSubs2: "'aalt' Access All Alternates lookup 0 subtable" adieresis.sc
EndChar

StartChar: Aring
Encoding: 116 197 116
Width: 775
VWidth: -31072
GlyphClass: 2
Flags: W
HStem: 0 100<0 100 200 300 400 500 600 700> 0 300<100 200 500 600> 300 100<300 400> 300 300<200 300 400 500> 600 200<300 400> 800 100<200 300 400 500> 900 100<300 400>
VStem: 100 100<100 300> 200 100<400 600 800 900> 300 100<900 1000> 400 100<400 600 800 900> 500 100<100 300>
LayerCount: 2
Fore
SplineSet
500 900 m 1x0420
 500 800 l 1x0420
 400 800 l 1x0820
 400 900 l 1x0440
 500 900 l 1x0420
300 1000 m 1x0240
 400 1000 l 1x0240
 400 900 l 1x0440
 300 900 l 1x0480
 300 800 l 1x0880
 200 800 l 1
 200 900 l 1
 300 900 l 1x0480
 300 1000 l 1x0240
EndSplineSet
Refer: 0 65 N 1 0 0 1 0 0 2
Validated: 5
AlternateSubs2: "'aalt' Access All Alternates lookup 0 subtable" aring.sc
EndChar

StartChar: Atilde
Encoding: 117 195 117
Width: 775
VWidth: -31072
GlyphClass: 2
Flags: W
HStem: 0 100<0 100 200 300 400 500 600 700> 0 300<100 200 500 600> 300 100<300 400> 300 300<200 300 400 500> 600 200<300 400> 900 100<100 200 400 500> 1000 100<200 300 500 600>
VStem: 100 100<100 300 900 1000> 200 100<400 600> 300 200<900 1000> 400 100<400 600> 500 100<100 300 1000 1100>
LayerCount: 2
Fore
SplineSet
200 1100 m 1x0280
 400 1100 l 1x02a0
 400 1000 l 1x04a0
 500 1000 l 1
 500 900 l 1
 300 900 l 1x0440
 300 1000 l 1x0240
 200 1000 l 1
 200 900 l 1
 100 900 l 1
 100 1000 l 1
 200 1000 l 1x0540
 200 1100 l 1x0280
500 1100 m 1x0210
 600 1100 l 1
 600 1000 l 1x0210
 500 1000 l 1x0440
 500 1100 l 1x0210
EndSplineSet
Refer: 0 65 N 1 0 0 1 0 0 2
Validated: 5
AlternateSubs2: "'aalt' Access All Alternates lookup 0 subtable" atilde.sc
EndChar

StartChar: Ccedilla
Encoding: 118 199 118
Width: 600
GlyphClass: 2
Flags: W
HStem: -200 100<200 300> -100 100<300 400> 0 100<200 400> 100 100<100 200 400 500> 580 20G<0 100> 600 100<100 200> 700 100<200 400>
VStem: 0 100<200 600> 100 100<100 200 600 700> 200 100<-200 -100> 200 200<0 100> 300 100<-100 0> 400 100<100 200 600 700>
LayerCount: 2
Fore
SplineSet
400 0 m 1x4020
 400 -100 l 1x4010
 300 -100 l 1
 300 -200 l 1
 200 -200 l 1
 200 -100 l 1
 300 -100 l 1x8040
 300 0 l 1x4010
 400 0 l 1x4020
EndSplineSet
Refer: 2 67 N 1 0 0 1 0 0 2
Validated: 5
AlternateSubs2: "'aalt' Access All Alternates lookup 0 subtable" ccedilla.sc
EndChar

StartChar: Egrave
Encoding: 119 200 119
Width: 600
GlyphClass: 2
Flags: W
HStem: 0 100<0 100 200 400> 0 200<400 500> 300 200<300 400> 400 100<200 300> 600 200<400 500> 700 100<0 100 200 400> 900 100<200 300> 1000 100<100 200>
VStem: 100 100<100 400 500 700 1000 1100> 200 100<900 1000> 300 100<300 400> 400 100<100 200 600 700>
LayerCount: 2
Fore
SplineSet
100 1100 m 1x0180
 200 1100 l 1x0180
 200 1000 l 1x0280
 300 1000 l 1
 300 900 l 1
 200 900 l 1x0240
 200 1000 l 1x0280
 100 1000 l 1
 100 1100 l 1x0180
EndSplineSet
Refer: 4 69 N 1 0 0 1 0 0 2
Validated: 5
AlternateSubs2: "'aalt' Access All Alternates lookup 0 subtable" egrave.sc
EndChar

StartChar: Eacute
Encoding: 120 201 120
Width: 600
GlyphClass: 2
Flags: W
HStem: 0 100<0 100 200 400> 0 200<400 500> 300 200<300 400> 400 100<200 300> 600 200<400 500> 700 100<0 100 200 400> 900 100<200 300> 1000 100<300 400>
VStem: 100 100<100 400 500 700> 200 100<900 1000> 300 100<300 400 1000 1100> 400 100<100 200 600 700>
LayerCount: 2
Fore
SplineSet
300 1100 m 1x0120
 400 1100 l 1
 400 1000 l 1x0120
 300 1000 l 1
 300 900 l 1
 200 900 l 1
 200 1000 l 1
 300 1000 l 1x0240
 300 1100 l 1x0120
EndSplineSet
Refer: 4 69 N 1 0 0 1 0 0 2
Validated: 5
AlternateSubs2: "'aalt' Access All Alternates lookup 0 subtable" eacute.sc
EndChar

StartChar: Ecircumflex
Encoding: 121 202 121
Width: 600
GlyphClass: 2
Flags: W
HStem: 0 100<0 100 200 400> 0 200<400 500> 300 200<300 400> 400 100<200 300> 600 200<400 500> 700 100<0 100 200 400> 900 100<100 200 300 400> 1000 100<200 300>
VStem: 100 100<100 400 500 700 900 1000> 200 100<1000 1100> 300 100<300 400 900 1000> 400 100<100 200 600 700>
LayerCount: 2
Fore
SplineSet
200 1100 m 1x0140
 300 1100 l 1x0140
 300 1000 l 1x0240
 200 1000 l 1
 200 900 l 1
 100 900 l 1
 100 1000 l 1
 200 1000 l 1x0280
 200 1100 l 1x0140
300 1000 m 1x0240
 400 1000 l 1
 400 900 l 1
 300 900 l 1x0220
 300 1000 l 1x0240
EndSplineSet
Refer: 4 69 N 1 0 0 1 0 0 2
Validated: 5
AlternateSubs2: "'aalt' Access All Alternates lookup 0 subtable" ecircumflex.sc
EndChar

StartChar: Edieresis
Encoding: 122 203 122
Width: 600
GlyphClass: 2
Flags: W
HStem: 0 100<0 100 200 400> 0 200<400 500> 300 200<300 400> 400 100<200 300> 600 200<400 500> 700 100<0 100 200 400> 900 100<100 200 300 400>
VStem: 100 100<100 400 500 700 900 1000> 300 100<300 400 900 1000> 400 100<100 200 600 700>
LayerCount: 2
Fore
SplineSet
100 1000 m 1x03
 200 1000 l 1
 200 900 l 1
 100 900 l 1
 100 1000 l 1x03
300 1000 m 1x0380
 400 1000 l 1
 400 900 l 1
 300 900 l 1
 300 1000 l 1x0380
EndSplineSet
Refer: 4 69 N 1 0 0 1 0 0 2
Validated: 1
AlternateSubs2: "'aalt' Access All Alternates lookup 0 subtable" edieresis.sc
EndChar

StartChar: Igrave
Encoding: 123 204 123
Width: 400
GlyphClass: 2
Flags: W
HStem: 0 100<0 100 200 300> 700 100<0 100 200 300> 900 100<100 200> 1000 100<0 100>
VStem: 0 100<1000 1100> 0 300<0 100 700 800> 100 100<900 1000>
LayerCount: 2
Fore
SplineSet
0 1100 m 1xd8
 100 1100 l 1xd8
 100 1000 l 1xe8
 0 1000 l 1
 0 1100 l 1xd8
100 1000 m 1xe8
 200 1000 l 1
 200 900 l 1
 100 900 l 1xe2
 100 1000 l 1xe8
EndSplineSet
Refer: 8 73 N 1 0 0 1 0 0 2
Validated: 5
AlternateSubs2: "'aalt' Access All Alternates lookup 0 subtable" igrave.sc
EndChar

StartChar: Iacute
Encoding: 124 205 124
Width: 400
GlyphClass: 2
Flags: W
HStem: 0 100<0 100 200 300> 700 100<0 100 200 300> 900 100<100 200> 1000 100<200 300>
VStem: 0 300<0 100 700 800> 100 100<900 1000> 200 100<1000 1100>
LayerCount: 2
Fore
SplineSet
200 1100 m 1xd2
 300 1100 l 1
 300 1000 l 1xd2
 200 1000 l 1
 200 900 l 1
 100 900 l 1
 100 1000 l 1
 200 1000 l 1xe4
 200 1100 l 1xd2
EndSplineSet
Refer: 8 73 N 1 0 0 1 0 0 2
Validated: 5
AlternateSubs2: "'aalt' Access All Alternates lookup 0 subtable" iacute.sc
EndChar

StartChar: Icircumflex
Encoding: 125 206 125
Width: 400
GlyphClass: 2
Flags: W
HStem: 0 100<0 100 200 300> 700 100<0 100 200 300> 900 100<0 100 200 300> 1000 100<100 200>
VStem: 0 100<900 1000> 0 300<0 100 700 800> 100 100<1000 1100> 200 100<900 1000>
LayerCount: 2
Fore
SplineSet
100 1100 m 1xd2
 200 1100 l 1xd2
 200 1000 l 1xe2
 100 1000 l 1
 100 900 l 1
 0 900 l 1
 0 1000 l 1
 100 1000 l 1xe8
 100 1100 l 1xd2
200 1000 m 1xe2
 300 1000 l 1
 300 900 l 1
 200 900 l 1xe1
 200 1000 l 1xe2
EndSplineSet
Refer: 8 73 N 1 0 0 1 0 0 2
Validated: 5
AlternateSubs2: "'aalt' Access All Alternates lookup 0 subtable" icircumflex.sc
EndChar

StartChar: Idieresis
Encoding: 126 207 126
Width: 400
GlyphClass: 2
Flags: W
HStem: 0 100<0 100 200 300> 700 100<0 100 200 300> 900 100<0 100 200 300>
VStem: 0 100<900 1000> 0 300<0 100 700 800> 200 100<900 1000>
LayerCount: 2
Fore
SplineSet
0 1000 m 1xf0
 100 1000 l 1
 100 900 l 1
 0 900 l 1
 0 1000 l 1xf0
200 1000 m 1xe4
 300 1000 l 1
 300 900 l 1
 200 900 l 1
 200 1000 l 1xe4
EndSplineSet
Refer: 8 73 N 1 0 0 1 0 0 2
Validated: 1
AlternateSubs2: "'aalt' Access All Alternates lookup 0 subtable" idieresis.sc
EndChar

StartChar: AE
Encoding: 127 198 127
Width: 900
GlyphClass: 2
Flags: W
HStem: 0 200<700 800> 0 100<0 100 300 400 500 700> 300 100<300 400> 400 100<500 600> 580 20G<200 300> 600 200<300 400 700 800> 700 100<200 300 500 700>
VStem: 0 200<0 100> 100 100<100 300> 200 100<400 600> 300 200<600 700> 400 100<100 300 500 600> 600 100<300 400> 700 100<100 200 600 700>
LayerCount: 2
Fore
SplineSet
700 200 m 1x8014
 800 200 l 1
 800 0 l 1x8014
 300 0 l 1
 300 100 l 1x4024
 400 100 l 1
 400 300 l 1
 200 300 l 1x6090
 200 0 l 1
 0 0 l 1
 0 100 l 1x61
 100 100 l 1
 100 300 l 1
 200 300 l 1x6080
 200 600 l 1
 300 600 l 1x6840
 300 400 l 1
 400 400 l 1
 400 600 l 1x2450
 300 600 l 1x0850
 300 700 l 1x0a20
 200 700 l 1
 200 800 l 1x0a40
 800 800 l 1
 800 600 l 1
 700 600 l 1x0444
 700 700 l 1
 500 700 l 1x0224
 500 500 l 1
 700 500 l 1x1214
 700 300 l 1
 600 300 l 1x2008
 600 400 l 1x1008
 500 400 l 1
 500 100 l 1
 700 100 l 1x5014
 700 200 l 1x8014
EndSplineSet
Validated: 5
AlternateSubs2: "'aalt' Access All Alternates lookup 0 subtable" ae.sc
EndChar

StartChar: Eth
Encoding: 128 208 128
Width: 700
GlyphClass: 2
Flags: W
HStem: 0 100<0 100 200 400> 100 100<400 500> 400 100<0 300> 600 100<400 500> 700 100<0 100 200 400>
VStem: 100 100<100 700> 400 100<100 200 600 700> 500 100<200 600>
LayerCount: 2
Fore
SplineSet
300 400 m 1x24
 0 400 l 1
 0 500 l 1
 300 500 l 1
 300 400 l 1x24
EndSplineSet
Refer: 3 68 S 1 0 0 1 0 0 2
Validated: 5
AlternateSubs2: "'aalt' Access All Alternates lookup 0 subtable" eth.sc
EndChar

StartChar: Ntilde
Encoding: 129 209 129
Width: 775
GlyphClass: 2
Flags: W
HStem: 0 100<0 100 200 300> 100 200<400 500> 300 200<300 400> 500 200<200 300> 700 100<0 100 400 500 600 700> 900 100<100 200 400 500> 1000 100<200 300 500 600>
VStem: 0 200<700 800> 100 100<100 500 900 1000> 100 200<500 700> 200 200<1000 1100> 300 100<300 500> 300 200<900 1000> 400 200<100 300> 500 100<0 100 300 700 1000 1100>
LayerCount: 2
Fore
SplineSet
500 1100 m 1x0202
 600 1100 l 1
 600 1000 l 1x0202
 500 1000 l 1x0408
 500 1100 l 1x0202
200 1000 m 1x0488
 200 1100 l 1
 400 1100 l 1x0220
 400 1000 l 1x0420
 500 1000 l 1
 500 900 l 1
 300 900 l 1x0408
 300 1000 l 1x0208
 200 1000 l 1x0488
200 1000 m 1x0480
 200 900 l 1
 100 900 l 1
 100 1000 l 1
 200 1000 l 1x0480
EndSplineSet
Refer: 13 78 S 1 0 0 1 0 0 2
Validated: 5
AlternateSubs2: "'aalt' Access All Alternates lookup 0 subtable" ntilde.sc
EndChar

StartChar: Ograve
Encoding: 130 210 130
Width: 800
GlyphClass: 2
Flags: W
HStem: 0 100<200 500> 100 100<100 200 500 600> 600 100<100 200 500 600> 700 100<200 500> 900 100<300 400> 1000 100<200 300>
VStem: 0 100<200 600> 100 100<100 200 600 700> 200 100<1000 1100> 200 300<0 100 700 800> 300 100<900 1000> 500 100<100 200 600 700> 600 100<200 600>
LayerCount: 2
Fore
SplineSet
200 1100 m 1x0480
 300 1100 l 1x0480
 300 1000 l 1x0880
 400 1000 l 1
 400 900 l 1
 300 900 l 1x0820
 300 1000 l 1x0880
 200 1000 l 1
 200 1100 l 1x0480
EndSplineSet
Refer: 14 79 N 1 0 0 1 0 0 2
Validated: 5
AlternateSubs2: "'aalt' Access All Alternates lookup 0 subtable" ograve.sc
EndChar

StartChar: Otilde
Encoding: 133 213 133
Width: 800
GlyphClass: 2
Flags: W
HStem: 0 100<200 500> 100 100<100 200 500 600> 600 100<100 200 500 600> 700 100<200 500> 900 100<100 200 400 500> 1000 100<200 300 500 600>
VStem: 0 100<200 600> 100 100<100 200 600 700 900 1000> 200 200<1000 1100> 200 300<0 100 700 800> 300 200<900 1000> 500 100<100 200 600 700 1000 1100> 600 100<200 600>
LayerCount: 2
Fore
SplineSet
500 1100 m 1x0410
 600 1100 l 1
 600 1000 l 1x0410
 500 1000 l 1x0820
 500 1100 l 1x0410
200 1000 m 1x0920
 200 1100 l 1
 400 1100 l 1x0480
 400 1000 l 1x0880
 500 1000 l 1
 500 900 l 1
 300 900 l 1x0820
 300 1000 l 1x0420
 200 1000 l 1x0920
200 1000 m 1x09
 200 900 l 1
 100 900 l 1
 100 1000 l 1
 200 1000 l 1x09
EndSplineSet
Refer: 14 79 S 1 0 0 1 0 0 2
Validated: 5
AlternateSubs2: "'aalt' Access All Alternates lookup 0 subtable" otilde.sc
EndChar

StartChar: Oslash
Encoding: 134 216 134
Width: 800
GlyphClass: 2
Flags: W
HStem: 0 100<0 100 200 500> 100 100<100 200 500 600> 200 100<200 300> 300 200<300 400> 500 100<400 500> 600 100<100 200 500 600> 700 100<200 500 600 700>
VStem: 0 100<0 100 200 600> 100 100<100 200 600 700> 200 100<200 300> 200 300<0 100 700 800> 300 100<300 500> 400 100<500 600> 500 100<100 200 600 700> 600 100<200 600 700 800>
LayerCount: 2
Fore
SplineSet
0 100 m 1x81
 100 100 l 1
 100 0 l 1
 0 0 l 1
 0 100 l 1x81
400 600 m 1x0808
 500 600 l 1
 500 500 l 1x0808
 400 500 l 1x1010
 400 600 l 1x0808
600 800 m 1x0202
 700 800 l 1
 700 700 l 1x0202
 600 700 l 1x0404
 600 800 l 1x0202
300 300 m 1x2040
 300 200 l 1x2040
 200 200 l 1x4080
 200 300 l 1
 300 300 l 1x2040
300 300 m 1
 300 500 l 1
 400 500 l 1
 400 300 l 1x1010
 300 300 l 1
EndSplineSet
Refer: 14 79 N 1 0 0 1 0 0 2
Validated: 5
AlternateSubs2: "'aalt' Access All Alternates lookup 0 subtable" oslash.sc
EndChar

StartChar: Ugrave
Encoding: 135 217 135
Width: 775
GlyphClass: 2
Flags: W
HStem: 0 100<200 500> 700 100<0 100 200 300 400 500 600 700> 900 100<300 400> 1000 100<200 300>
VStem: 100 100<100 700> 200 100<1000 1100> 300 100<900 1000> 500 100<100 700>
LayerCount: 2
Fore
SplineSet
200 1100 m 1xd5
 300 1100 l 1xd5
 300 1000 l 1xe5
 400 1000 l 1
 400 900 l 1
 300 900 l 1xe3
 300 1000 l 1xe5
 200 1000 l 1
 200 1100 l 1xd5
EndSplineSet
Refer: 20 85 N 1 0 0 1 0 0 2
Validated: 5
AlternateSubs2: "'aalt' Access All Alternates lookup 0 subtable" ugrave.sc
EndChar

StartChar: Uacute
Encoding: 136 218 136
Width: 775
GlyphClass: 2
Flags: W
HStem: 0 100<200 500> 700 100<0 100 200 300 400 500 600 700> 900 100<300 400> 1000 100<400 500>
VStem: 100 100<100 700> 300 100<900 1000> 400 100<1000 1100> 500 100<100 700>
LayerCount: 2
Fore
SplineSet
400 1100 m 1xda
 500 1100 l 1
 500 1000 l 1xda
 400 1000 l 1
 400 900 l 1
 300 900 l 1
 300 1000 l 1
 400 1000 l 1xec
 400 1100 l 1xda
EndSplineSet
Refer: 20 85 N 1 0 0 1 0 0 2
Validated: 5
AlternateSubs2: "'aalt' Access All Alternates lookup 0 subtable" uacute.sc
EndChar

StartChar: Ucircumflex
Encoding: 137 219 137
Width: 775
GlyphClass: 2
Flags: W
HStem: 0 100<200 500> 700 100<0 100 200 300 400 500 600 700> 900 100<200 300 400 500> 1000 100<300 400>
VStem: 100 100<100 700> 200 100<900 1000> 300 100<1000 1100> 400 100<900 1000> 500 100<100 700>
LayerCount: 2
Fore
SplineSet
300 1100 m 1xd2
 400 1100 l 1xd2
 400 1000 l 1xe2
 300 1000 l 1
 300 900 l 1
 200 900 l 1
 200 1000 l 1
 300 1000 l 1xe4
 300 1100 l 1xd2
400 1000 m 1xe2
 500 1000 l 1
 500 900 l 1
 400 900 l 1xe1
 400 1000 l 1xe2
EndSplineSet
Refer: 20 85 N 1 0 0 1 0 0 2
Validated: 5
AlternateSubs2: "'aalt' Access All Alternates lookup 0 subtable" ucircumflex.sc
EndChar

StartChar: Udieresis
Encoding: 138 220 138
Width: 775
GlyphClass: 2
Flags: W
HStem: 0 100<200 500> 700 100<0 100 200 300 400 500 600 700> 900 100<200 300 400 500>
VStem: 100 100<100 700> 200 100<900 1000> 400 100<900 1000> 500 100<100 700>
LayerCount: 2
Fore
SplineSet
200 1000 m 1xe8
 300 1000 l 1
 300 900 l 1
 200 900 l 1
 200 1000 l 1xe8
400 1000 m 1xe4
 500 1000 l 1
 500 900 l 1
 400 900 l 1
 400 1000 l 1xe4
EndSplineSet
Refer: 20 85 N 1 0 0 1 0 0 2
Validated: 5
AlternateSubs2: "'aalt' Access All Alternates lookup 0 subtable" udieresis.sc
EndChar

StartChar: Yacute
Encoding: 139 221 139
Width: 775
GlyphClass: 2
Flags: W
HStem: 0 100<200 300 400 500> 400 200<200 300 400 500> 600 200<100 200 500 600> 700 100<0 100 200 300 400 500 600 700> 900 100<300 400> 1000 100<400 500>
VStem: 100 100<600 700> 200 100<400 600> 300 100<100 400 900 1000> 400 100<400 600 1000 1100> 500 100<600 700>
LayerCount: 2
Fore
SplineSet
400 1100 m 1x8440
 500 1100 l 1
 500 1000 l 1x8440
 400 1000 l 1
 400 900 l 1
 300 900 l 1
 300 1000 l 1
 400 1000 l 1x8880
 400 1100 l 1x8440
EndSplineSet
Refer: 24 89 N 1 0 0 1 0 0 2
Validated: 5
EndChar

StartChar: Thorn
Encoding: 140 222 140
Width: 600
GlyphClass: 2
Flags: W
HStem: 0 100<0 100 200 300> 200 100<200 400> 300 200<400 500> 500 100<200 400> 700 100<0 100 200 300>
VStem: 0 300<0 100 700 800> 100 300<200 300 500 600> 100 100<100 200 300 500 600 700> 400 100<300 500>
LayerCount: 2
Fore
SplineSet
0 800 m 1xdc
 300 800 l 1
 300 700 l 1xdc
 200 700 l 1
 200 600 l 1xd9
 400 600 l 1xda
 400 500 l 1xaa
 200 500 l 1
 200 300 l 1xd9
 400 300 l 1
 400 200 l 1xda
 200 200 l 1
 200 100 l 1xd9
 300 100 l 1
 300 0 l 1
 0 0 l 1
 0 100 l 1xdc
 100 100 l 1
 100 700 l 1xd9
 0 700 l 1
 0 800 l 1xdc
400 300 m 1xca
 400 500 l 1xaa
 500 500 l 1
 500 300 l 1xa880
 400 300 l 1xca
EndSplineSet
Validated: 5
AlternateSubs2: "'aalt' Access All Alternates lookup 0 subtable" thorn.sc
EndChar

StartChar: agrave
Encoding: 141 224 141
Width: 525
GlyphClass: 2
Flags: W
HStem: 0 100<125 325> 100 100<25 125> 200 100<125 225> 400 100<25 125> 500 100<125 325> 700 100<226 326> 800 100<126 226>
VStem: 25 100<100 200 400 500> 125 100<200 300> 125 200<500 600> 126 100<800 900> 225 200<300 400> 226 100<700 800> 325 100<100 300 400 500>
LayerCount: 2
Fore
SplineSet
126 900 m 5x0220
 226 900 l 5x0220
 226 800 l 5x0420
 126 800 l 5
 126 900 l 5x0220
226 800 m 5x0420
 326 800 l 5
 326 700 l 5
 226 700 l 5x0408
 226 800 l 5x0420
EndSplineSet
Refer: 36 97 N 1 0 0 1 0 0 2
AlternateSubs2: "'aalt' Access All Alternates lookup 0 subtable" agrave.sc
EndChar

StartChar: aacute
Encoding: 142 225 142
Width: 525
GlyphClass: 2
Flags: W
HStem: 0 100<125 325> 100 100<25 125> 200 100<125 225> 400 100<25 125> 500 100<125 325> 700 100<126 226> 800 100<226 326>
VStem: 25 100<100 200 400 500> 125 100<200 300> 125 200<500 600> 126 100<700 800> 225 200<300 400> 226 100<800 900> 325 100<100 300 400 500>
LayerCount: 2
Fore
SplineSet
226 900 m 5x0208
 326 900 l 5
 326 800 l 5x0208
 226 800 l 5
 226 700 l 5
 126 700 l 5
 126 800 l 5
 226 800 l 5x0420
 226 900 l 5x0208
EndSplineSet
Refer: 36 97 N 1 0 0 1 0 0 2
AlternateSubs2: "'aalt' Access All Alternates lookup 0 subtable" aacute.sc
EndChar

StartChar: acircumflex
Encoding: 143 226 143
Width: 525
GlyphClass: 2
Flags: W
HStem: 0 100<125 325> 100 100<25 125> 200 100<125 225> 400 100<25 125> 500 100<125 325> 700 100<126 226 326 426> 800 100<226 326>
VStem: 25 100<100 200 400 500> 125 100<200 300> 125 200<500 600> 126 100<700 800> 225 200<300 400> 226 100<800 900> 325 100<100 300 400 500> 326 100<700 800>
LayerCount: 2
Fore
SplineSet
226 900 m 5x0208
 326 900 l 5x0208
 326 800 l 5x0408
 226 800 l 5
 226 700 l 5
 126 700 l 5
 126 800 l 5
 226 800 l 5x0420
 226 900 l 5x0208
326 800 m 5x0408
 426 800 l 5
 426 700 l 5
 326 700 l 5x0402
 326 800 l 5x0408
EndSplineSet
Refer: 36 97 N 1 0 0 1 0 0 2
AlternateSubs2: "'aalt' Access All Alternates lookup 0 subtable" acircumflex.sc
EndChar

StartChar: atilde
Encoding: 144 227 144
Width: 525
GlyphClass: 2
Flags: W
HStem: 0 100<125 325> 100 100<25 125> 200 100<125 225> 400 100<25 125> 500 100<125 325> 700 100<26 126 226 326> 800 100<126 226 326 426>
VStem: 25 100<100 200 400 500> 26 100<700 800> 125 100<200 300> 125 200<500 600> 126 100<800 900> 225 200<300 400> 226 100<700 800> 325 100<100 300 400 500> 326 100<800 900>
LayerCount: 2
Fore
SplineSet
126 900 m 5x0210
 226 900 l 5x0210
 226 800 l 5x0410
 126 800 l 5
 126 700 l 5
 26 700 l 5
 26 800 l 5
 126 800 l 5x0480
 126 900 l 5x0210
326 900 m 5x0201
 426 900 l 5
 426 800 l 5x0201
 326 800 l 5
 326 700 l 5
 226 700 l 5x0404
 226 800 l 5x0410
 326 800 l 5x0404
 326 900 l 5x0201
EndSplineSet
Refer: 36 97 N 1 0 0 1 0 0 2
AlternateSubs2: "'aalt' Access All Alternates lookup 0 subtable" atilde.sc
EndChar

StartChar: adieresis
Encoding: 145 228 145
Width: 525
GlyphClass: 2
Flags: W
HStem: 0 100<125 325> 100 100<25 125> 200 100<125 225> 400 100<25 125> 500 100<125 325> 700 100<26 126 326 426>
VStem: 25 100<100 200 400 500> 26 100<700 800> 125 100<200 300> 125 200<500 600> 225 200<300 400> 325 100<100 300 400 500> 326 100<700 800>
LayerCount: 2
Fore
SplineSet
26 800 m 5x05
 126 800 l 5
 126 700 l 5
 26 700 l 5
 26 800 l 5x05
326 800 m 5x0408
 426 800 l 5
 426 700 l 5
 326 700 l 5
 326 800 l 5x0408
EndSplineSet
Refer: 36 97 N 1 0 0 1 0 0 2
AlternateSubs2: "'aalt' Access All Alternates lookup 0 subtable" adieresis.sc
EndChar

StartChar: aring
Encoding: 146 229 146
Width: 525
GlyphClass: 2
Flags: W
HStem: 0 100<125 325> 100 100<25 125> 200 100<125 225> 400 100<25 125> 500 100<125 325> 700 100<150 250> 800 100<50 150 250 350> 900 100<150 250>
VStem: 25 100<100 200 400 500> 50 100<800 900> 125 100<200 300> 125 200<500 600> 150 100<700 800 900 1000> 225 200<300 400> 250 100<800 900> 325 100<100 300 400 500>
LayerCount: 2
Fore
SplineSet
150 1000 m 5x0108
 250 1000 l 5x0108
 250 900 l 5x0208
 350 900 l 5
 350 800 l 5x0202
 250 800 l 5
 250 700 l 5
 150 700 l 5x0408
 150 800 l 5x0440
 250 800 l 5x0408
 250 900 l 5x0208
 150 900 l 5x0240
 150 800 l 5x0440
 50 800 l 5
 50 900 l 5
 150 900 l 5x0240
 150 1000 l 5x0108
EndSplineSet
Refer: 36 97 N 1 0 0 1 0 0 2
AlternateSubs2: "'aalt' Access All Alternates lookup 0 subtable" aring.sc
EndChar

StartChar: ae
Encoding: 147 230 147
Width: 825
GlyphClass: 2
Flags: W
HStem: 0 100<125 325 425 625> 100 100<25 125 625 725> 200 100<125 225> 300 100<225 325 425 625> 400 100<25 125 625 725> 500 100<125 325 425 625>
VStem: 25 100<100 200 400 500> 125 200<0 100 500 600> 125 100<200 300> 325 100<100 300 400 500> 425 200<0 100 500 600> 625 100<100 200 400 500>
LayerCount: 2
Fore
SplineSet
125 600 m 1x05
 325 600 l 1
 325 500 l 1x05
 125 500 l 1
 125 400 l 1
 25 400 l 1
 25 500 l 1
 125 500 l 1x0a
 125 600 l 1x05
425 600 m 1x1420
 625 600 l 1x1420
 625 500 l 1x0820
 425 500 l 1
 425 400 l 1
 625 400 l 1x1450
 625 500 l 1x0820
 725 500 l 1
 725 400 l 1x0810
 625 400 l 1
 625 300 l 1
 425 300 l 1
 425 100 l 1x9050
 325 100 l 1
 325 0 l 1
 125 0 l 1x91
 125 100 l 1x92
 25 100 l 1
 25 200 l 1
 125 200 l 1x42
 125 100 l 1x82
 325 100 l 1x81
 325 300 l 1x9040
 225 300 l 1
 225 200 l 1x20c0
 125 200 l 1x42
 125 300 l 1
 225 300 l 1x2080
 225 400 l 1
 325 400 l 1x10c0
 325 500 l 1x15
 425 500 l 1x1440
 425 600 l 1x1420
625 200 m 1x4010
 725 200 l 1
 725 100 l 1x4010
 625 100 l 1
 625 0 l 1
 425 0 l 1x8020
 425 100 l 1x8040
 625 100 l 1x8020
 625 200 l 1x4010
EndSplineSet
Validated: 5
AlternateSubs2: "'aalt' Access All Alternates lookup 0 subtable" ae.sc
EndChar

StartChar: ccedilla
Encoding: 148 231 148
Width: 500
GlyphClass: 2
Flags: W
HStem: -200 100<100 200> -100 100<200 300> 0 100<100 300> 100 100<300 400> 400 200<300 400> 500 100<100 300>
VStem: 0 100<100 500> 100 100<-200 -100> 100 200<0 100> 200 100<-100 0> 300 100<100 200 400 500>
LayerCount: 2
Fore
SplineSet
200 0 m 5x4040
 300 0 l 5x4080
 300 -100 l 5x4040
 200 -100 l 5x81
 200 0 l 5x4040
200 -100 m 5x81
 200 -200 l 5
 100 -200 l 5
 100 -100 l 5
 200 -100 l 5x81
EndSplineSet
Refer: 39 99 S 1 0 0 1 0 0 2
Validated: 5
AlternateSubs2: "'aalt' Access All Alternates lookup 0 subtable" ccedilla.sc
EndChar

StartChar: egrave
Encoding: 149 232 149
Width: 500
GlyphClass: 2
Flags: W
HStem: 0 100<100 300> 100 100<300 400> 300 100<100 300> 400 200<300 400> 500 100<100 300> 700 100<200 300> 800 100<100 200>
VStem: 0 100<100 300 400 500> 100 100<800 900> 100 200<0 100> 200 100<700 800> 300 100<100 200 400 500>
LayerCount: 2
Fore
SplineSet
100 900 m 1x0280
 200 900 l 1x0280
 200 800 l 1x0480
 300 800 l 1
 300 700 l 1
 200 700 l 1x0420
 200 800 l 1x0480
 100 800 l 1
 100 900 l 1x0280
EndSplineSet
Refer: 41 101 N 1 0 0 1 0 0 2
Validated: 5
AlternateSubs2: "'aalt' Access All Alternates lookup 0 subtable" egrave.sc
EndChar

StartChar: eacute
Encoding: 150 233 150
Width: 500
GlyphClass: 2
Flags: W
HStem: 0 100<100 300> 100 100<300 400> 300 100<100 300> 400 200<300 400> 500 100<100 300> 700 100<100 200> 800 100<200 300>
VStem: 0 100<100 300 400 500> 100 100<700 800> 100 200<0 100> 200 100<800 900> 300 100<100 200 400 500>
LayerCount: 2
Fore
SplineSet
200 900 m 1x0220
 300 900 l 1
 300 800 l 1x0220
 200 800 l 1
 200 700 l 1
 100 700 l 1
 100 800 l 1
 200 800 l 1x0480
 200 900 l 1x0220
EndSplineSet
Refer: 41 101 N 1 0 0 1 0 0 2
Validated: 5
AlternateSubs2: "'aalt' Access All Alternates lookup 0 subtable" eacute.sc
EndChar

StartChar: ecircumflex
Encoding: 151 234 151
Width: 500
GlyphClass: 2
Flags: W
HStem: 0 100<100 300> 100 100<300 400> 300 100<100 300> 400 200<300 400> 500 100<100 300> 700 100<100 200 300 400> 800 100<200 300>
VStem: 0 100<100 300 400 500> 100 100<700 800> 100 200<0 100> 200 100<800 900> 300 100<100 200 400 500 700 800>
LayerCount: 2
Fore
SplineSet
200 900 m 1x0220
 300 900 l 1x0220
 300 800 l 1x0420
 200 800 l 1
 200 700 l 1
 100 700 l 1
 100 800 l 1
 200 800 l 1x0480
 200 900 l 1x0220
300 800 m 1x0420
 400 800 l 1
 400 700 l 1
 300 700 l 1x0410
 300 800 l 1x0420
EndSplineSet
Refer: 41 101 N 1 0 0 1 0 0 2
Validated: 5
AlternateSubs2: "'aalt' Access All Alternates lookup 0 subtable" ecircumflex.sc
EndChar

StartChar: edieresis
Encoding: 152 235 152
Width: 500
GlyphClass: 2
Flags: W
HStem: 0 100<100 300> 100 100<300 400> 300 100<100 300> 400 200<300 400> 500 100<100 300> 700 100<0 100 300 400>
VStem: 0 100<100 300 400 500 700 800> 100 200<0 100> 300 100<100 200 400 500 700 800>
LayerCount: 2
Fore
SplineSet
100 800 m 1x06
 100 700 l 1
 0 700 l 1
 0 800 l 1
 100 800 l 1x06
300 800 m 1x0480
 400 800 l 1
 400 700 l 1
 300 700 l 1
 300 800 l 1x0480
EndSplineSet
Refer: 41 101 N 1 0 0 1 0 0 2
Validated: 5
AlternateSubs2: "'aalt' Access All Alternates lookup 0 subtable" edieresis.sc
EndChar

StartChar: igrave
Encoding: 153 236 153
Width: 400
GlyphClass: 2
Flags: W
HStem: 0 100<0 100 200 300> 500 100<0 100> 700 100<100 200> 800 100<0 100>
VStem: 0 100<800 900> 0 200<500 600> 100 100<100 500 700 800>
LayerCount: 2
Fore
SplineSet
0 900 m 1xd8
 100 900 l 1xd8
 100 800 l 1xe8
 0 800 l 1
 0 900 l 1xd8
EndSplineSet
Refer: 45 105 N 1 0 0 1 0 0 2
Validated: 5
AlternateSubs2: "'aalt' Access All Alternates lookup 0 subtable" igrave.sc
EndChar

StartChar: iacute
Encoding: 154 237 154
Width: 400
GlyphClass: 2
Flags: W
HStem: 0 100<0 100 200 300> 500 100<0 100> 700 100<100 200> 800 100<200 300>
VStem: 0 200<500 600> 100 100<100 500 700 800> 200 100<800 900>
LayerCount: 2
Fore
SplineSet
200 900 m 1xd2
 300 900 l 1
 300 800 l 1xd2
 200 800 l 1xe4
 200 900 l 1xd2
EndSplineSet
Refer: 45 105 N 1 0 0 1 0 0 2
Validated: 5
AlternateSubs2: "'aalt' Access All Alternates lookup 0 subtable" iacute.sc
EndChar

StartChar: icircumflex
Encoding: 155 238 155
Width: 400
GlyphClass: 2
Flags: W
HStem: 0 100<0 100 200 300> 500 100<0 100> 700 100<0 100 200 300> 800 100<100 200>
VStem: 0 100<700 800> 100 100<100 500 800 900> 200 100<700 800>
LayerCount: 2
Fore
SplineSet
100 900 m 1xd4
 200 900 l 1xd4
 200 800 l 1xe4
 100 800 l 1xe8
 100 900 l 1xd4
200 100 m 1
 300 100 l 1
 300 0 l 1
 0 0 l 1
 0 100 l 1xca
 100 100 l 1
 100 500 l 1xc4
 0 500 l 1
 0 600 l 1
 200 600 l 1xca
 200 100 l 1
100 800 m 1xe8
 100 700 l 1
 0 700 l 1
 0 800 l 1
 100 800 l 1xe8
200 800 m 1xe4
 300 800 l 1
 300 700 l 1
 200 700 l 1xe2
 200 800 l 1xe4
EndSplineSet
Validated: 5
AlternateSubs2: "'aalt' Access All Alternates lookup 0 subtable" icircumflex.sc
EndChar

StartChar: idieresis
Encoding: 156 239 156
Width: 400
GlyphClass: 2
Flags: W
HStem: 0 100<0 100 200 300> 500 100<0 100> 700 100<0 100 200 300>
VStem: 0 100<700 800> 100 100<100 500> 200 100<700 800>
LayerCount: 2
Fore
SplineSet
0 800 m 1xf0
 100 800 l 1
 100 700 l 1
 0 700 l 1
 0 800 l 1xf0
200 100 m 1xe8
 300 100 l 1
 300 0 l 1
 0 0 l 1
 0 100 l 1xf4
 100 100 l 1
 100 500 l 1xe8
 0 500 l 1
 0 600 l 1
 200 600 l 1xf4
 200 100 l 1xe8
200 800 m 1
 300 800 l 1
 300 700 l 1
 200 700 l 1
 200 800 l 1
EndSplineSet
Validated: 1
AlternateSubs2: "'aalt' Access All Alternates lookup 0 subtable" idieresis.sc
EndChar

StartChar: ntilde
Encoding: 157 241 157
Width: 700
GlyphClass: 2
Flags: W
HStem: 0 100<0 100 300 400 500 600> 500 100<0 100 300 400> 700 100<100 200 300 400> 800 100<200 300 400 500>
VStem: 0 200<0 100 500 600> 100 100<100 400 700 800> 100 200<400 500> 200 100<800 900> 300 100<700 800> 300 200<500 600> 400 100<100 500 800 900>
LayerCount: 2
Fore
SplineSet
200 900 m 1xd1
 300 900 l 1xd1
 300 800 l 1xe1
 200 800 l 1
 200 700 l 1
 100 700 l 1
 100 800 l 1
 200 800 l 1xe4
 200 900 l 1xd1
400 900 m 1xd020
 500 900 l 1
 500 800 l 1xd020
 400 800 l 1
 400 700 l 1
 300 700 l 1xe080
 300 800 l 1xe1
 400 800 l 1xe080
 400 900 l 1xd020
EndSplineSet
Refer: 50 110 N 1 0 0 1 0 0 2
Validated: 5
AlternateSubs2: "'aalt' Access All Alternates lookup 0 subtable" ntilde.sc
EndChar

StartChar: ograve
Encoding: 158 242 158
Width: 500
GlyphClass: 2
Flags: W
HStem: 0 100<100 300> 500 100<100 300> 700 100<200 300> 800 100<100 200>
VStem: 0 100<100 500> 100 100<800 900> 100 200<0 100 500 600> 200 100<700 800> 300 100<100 500>
LayerCount: 2
Fore
SplineSet
100 900 m 1xd4
 200 900 l 1xd4
 200 800 l 1xe4
 100 800 l 1
 100 900 l 1xd4
200 800 m 1xe4
 300 800 l 1
 300 700 l 1
 200 700 l 1xe1
 200 800 l 1xe4
EndSplineSet
Refer: 51 111 N 1 0 0 1 0 0 2
Validated: 5
AlternateSubs2: "'aalt' Access All Alternates lookup 0 subtable" ograve.sc
EndChar

StartChar: oacute
Encoding: 159 243 159
Width: 500
GlyphClass: 2
Flags: W
HStem: 0 100<100 300> 500 100<100 300> 700 100<100 200> 800 100<200 300>
VStem: 0 100<100 500> 100 100<700 800> 100 200<0 100 500 600> 200 100<800 900> 300 100<100 500>
LayerCount: 2
Fore
SplineSet
200 900 m 1xd1
 300 900 l 1
 300 800 l 1xd1
 200 800 l 1
 200 700 l 1
 100 700 l 1
 100 800 l 1
 200 800 l 1xe4
 200 900 l 1xd1
EndSplineSet
Refer: 51 111 N 1 0 0 1 0 0 2
Validated: 5
AlternateSubs2: "'aalt' Access All Alternates lookup 0 subtable" oacute.sc
EndChar

StartChar: ocircumflex
Encoding: 160 244 160
Width: 500
GlyphClass: 2
Flags: W
HStem: 0 100<100 300> 500 100<100 300> 700 100<0 100 200 300> 800 100<100 200>
VStem: 0 100<100 500 700 800> 100 100<800 900> 100 200<0 100 500 600> 200 100<700 800> 300 100<100 500>
LayerCount: 2
Fore
SplineSet
100 900 m 1xd4
 200 900 l 1xd4
 200 800 l 1xe4
 100 800 l 1
 100 700 l 1
 0 700 l 1
 0 800 l 1
 100 800 l 1xe8
 100 900 l 1xd4
200 800 m 1xe4
 300 800 l 1
 300 700 l 1
 200 700 l 1xe1
 200 800 l 1xe4
EndSplineSet
Refer: 51 111 N 1 0 0 1 0 0 2
Validated: 5
AlternateSubs2: "'aalt' Access All Alternates lookup 0 subtable" ocircumflex.sc
EndChar

StartChar: otilde
Encoding: 161 245 161
Width: 500
GlyphClass: 2
Flags: W
HStem: 0 100<100 300> 500 100<100 300> 700 100<0 100 200 300> 800 100<100 200 300 400>
VStem: 0 100<100 500 700 800> 100 100<800 900> 100 200<0 100 500 600> 200 100<700 800> 300 100<100 500 800 900>
LayerCount: 2
Fore
SplineSet
100 900 m 1xd4
 200 900 l 1xd4
 200 800 l 1xe4
 100 800 l 1
 100 700 l 1
 0 700 l 1
 0 800 l 1
 100 800 l 1xe8
 100 900 l 1xd4
300 900 m 1xd080
 400 900 l 1
 400 800 l 1xd080
 300 800 l 1
 300 700 l 1
 200 700 l 1xe1
 200 800 l 1xe4
 300 800 l 1xe1
 300 900 l 1xd080
EndSplineSet
Refer: 51 111 N 1 0 0 1 0 0 2
Validated: 5
AlternateSubs2: "'aalt' Access All Alternates lookup 0 subtable" otilde.sc
EndChar

StartChar: odieresis
Encoding: 162 246 162
Width: 500
GlyphClass: 2
Flags: W
HStem: 0 100<100 300> 500 100<100 300> 700 100<0 100 300 400>
VStem: 0 100<100 500 700 800> 100 200<0 100 500 600> 300 100<100 500 700 800>
LayerCount: 2
Fore
SplineSet
0 800 m 1xf0
 100 800 l 1
 100 700 l 1
 0 700 l 1
 0 800 l 1xf0
300 800 m 1xe4
 400 800 l 1
 400 700 l 1
 300 700 l 1
 300 800 l 1xe4
EndSplineSet
Refer: 51 111 N 1 0 0 1 0 0 2
Validated: 5
AlternateSubs2: "'aalt' Access All Alternates lookup 0 subtable" odieresis.sc
EndChar

StartChar: oslash
Encoding: 163 248 163
Width: 700
GlyphClass: 2
Flags: W
HStem: 0 100<0 100 200 400> 200 100<200 300> 300 100<300 400> 500 100<200 400 500 600>
VStem: 0 100<0 100> 100 100<100 500> 200 100<200 300> 200 200<0 100 500 600> 300 100<300 400> 400 100<100 500> 500 100<500 600>
LayerCount: 2
Fore
SplineSet
300 400 m 1xb080
 400 400 l 1
 400 300 l 1xb080
 300 300 l 1xd2
 300 400 l 1xb080
500 600 m 1x9020
 600 600 l 1
 600 500 l 1x9020
 500 500 l 1x9040
 500 600 l 1x9020
0 100 m 1x98
 100 100 l 1
 100 0 l 1
 0 0 l 1
 0 100 l 1x98
300 300 m 1xd2
 300 200 l 1xd2
 200 200 l 1
 200 300 l 1xd4
 300 300 l 1xd2
EndSplineSet
Refer: 51 111 N 1 0 0 1 100 0 2
Validated: 5
AlternateSubs2: "'aalt' Access All Alternates lookup 0 subtable" oslash.sc
EndChar

StartChar: ugrave
Encoding: 164 249 164
Width: 700
GlyphClass: 2
Flags: W
HStem: 0 100<200 300 500 600> 100 100<300 400> 500 100<0 100 300 400> 700 100<200 300> 800 100<100 200>
VStem: 0 200<500 600> 100 100<100 500 800 900> 200 100<0 100 700 800> 300 200<100 200 500 600> 400 100<200 500> 400 200<0 100>
LayerCount: 2
Fore
SplineSet
100 900 m 1x2a
 200 900 l 1x2a
 200 800 l 1x32
 300 800 l 1
 300 700 l 1
 200 700 l 1x31
 200 800 l 1x32
 100 800 l 1
 100 900 l 1x2a
EndSplineSet
Refer: 57 117 N 1 0 0 1 0 0 2
Validated: 5
AlternateSubs2: "'aalt' Access All Alternates lookup 0 subtable" ugrave.sc
EndChar

StartChar: uacute
Encoding: 165 250 165
Width: 700
GlyphClass: 2
Flags: W
HStem: 0 100<200 300 500 600> 100 100<300 400> 500 100<0 100 300 400> 700 100<200 300> 800 100<300 400>
VStem: 0 200<500 600> 100 100<100 500> 200 100<0 100 700 800> 300 100<800 900> 300 200<100 200 500 600> 400 100<200 500> 400 200<0 100>
LayerCount: 2
Fore
SplineSet
300 900 m 1x2880
 400 900 l 1
 400 800 l 1x2880
 300 800 l 1
 300 700 l 1
 200 700 l 1
 200 800 l 1
 300 800 l 1x31
 300 900 l 1x2880
EndSplineSet
Refer: 57 117 N 1 0 0 1 0 0 2
Validated: 5
AlternateSubs2: "'aalt' Access All Alternates lookup 0 subtable" uacute.sc
EndChar

StartChar: ucircumflex
Encoding: 166 251 166
Width: 700
GlyphClass: 2
Flags: W
HStem: 0 100<200 300 500 600> 100 100<300 400> 500 100<0 100 300 400> 700 100<100 200 300 400> 800 100<200 300>
VStem: 0 200<500 600> 100 100<100 500 700 800> 200 100<0 100 800 900> 300 100<700 800> 300 200<100 200 500 600> 400 100<200 500> 400 200<0 100>
LayerCount: 2
Fore
SplineSet
200 900 m 1x29
 300 900 l 1x29
 300 800 l 1x31
 200 800 l 1x32
 200 900 l 1x29
200 800 m 1x32
 200 700 l 1
 100 700 l 1
 100 800 l 1
 200 800 l 1x32
300 800 m 1x31
 400 800 l 1
 400 700 l 1
 300 700 l 1x3080
 300 800 l 1x31
EndSplineSet
Refer: 57 117 N 1 0 0 1 0 0 2
Validated: 5
AlternateSubs2: "'aalt' Access All Alternates lookup 0 subtable" ucircumflex.sc
EndChar

StartChar: udieresis
Encoding: 167 252 167
Width: 700
GlyphClass: 2
Flags: W
HStem: 0 100<200 300 500 600> 100 100<300 400> 500 100<0 100 300 400> 700 100<100 200 300 400>
VStem: 0 200<500 600> 100 100<100 500 700 800> 200 100<0 100> 300 100<700 800> 300 200<100 200 500 600> 400 100<200 500> 400 200<0 100>
LayerCount: 2
Fore
SplineSet
100 800 m 1x34
 200 800 l 1
 200 700 l 1
 100 700 l 1
 100 800 l 1x34
300 800 m 1x31
 400 800 l 1
 400 700 l 1
 300 700 l 1
 300 800 l 1x31
EndSplineSet
Refer: 57 117 N 1 0 0 1 0 0 2
Validated: 5
AlternateSubs2: "'aalt' Access All Alternates lookup 0 subtable" udieresis.sc
EndChar

StartChar: yacute
Encoding: 168 253 168
Width: 700
GlyphClass: 2
Flags: W
HStem: -300 100<0 100> -200 100<100 200> 100 200<300 400> 500 100<0 100 300 400 500 600> 700 100<200 300> 800 100<300 400>
VStem: -100 100<-200 -100> -100 200<-300 -200> 0 200<500 600> 100 100<-200 -100 200 500> 200 100<-100 100 700 800> 300 100<200 300 800 900>
LayerCount: 2
Fore
SplineSet
300 900 m 1x3410
 400 900 l 1
 400 800 l 1x3410
 300 800 l 1
 300 700 l 1
 200 700 l 1
 200 800 l 1
 300 800 l 1x3820
 300 900 l 1x3410
EndSplineSet
Refer: 61 121 N 1 0 0 1 0 0 2
EndChar

StartChar: ydieresis
Encoding: 169 255 169
Width: 700
GlyphClass: 2
Flags: W
HStem: -300 100<0 100> -200 100<100 200> 100 200<300 400> 500 100<0 100 300 400 500 600> 700 100<100 200 400 500>
VStem: -100 100<-200 -100> -100 200<-300 -200> 0 200<500 600> 100 100<-200 -100 200 500 700 800> 200 100<-100 100> 300 100<200 300> 400 100<700 800>
LayerCount: 2
Fore
SplineSet
100 700 m 1x3880
 100 800 l 1
 200 800 l 1
 200 700 l 1
 100 700 l 1x3880
400 800 m 1x3810
 500 800 l 1
 500 700 l 1
 400 700 l 1
 400 800 l 1x3810
EndSplineSet
Refer: 61 121 N 1 0 0 1 0 0 2
AlternateSubs2: "'aalt' Access All Alternates lookup 0 subtable" ydieresis.sc
EndChar

StartChar: thorn
Encoding: 170 254 170
Width: 600
GlyphClass: 2
Flags: W
HStem: -300 100<0 100 200 300> 0 100<200 400> 400 100<200 300> 500 100<300 400> 800 100<0 100>
VStem: 0 200<800 900> 100 200<400 500> 100 100<-200 0 100 400 500 800> 300 200<500 600> 400 100<100 500>
LayerCount: 2
Fore
SplineSet
100 800 m 1xd9
 0 800 l 1
 0 900 l 1
 200 900 l 1xdc
 200 500 l 1xe9
 300 500 l 1xea
 300 600 l 1
 500 600 l 1xd880
 500 100 l 1
 400 100 l 1
 400 0 l 1
 200 0 l 1
 200 -200 l 1xd940
 300 -200 l 1
 300 -300 l 1
 0 -300 l 1
 0 -200 l 1xdc80
 100 -200 l 1
 100 800 l 1xd9
400 100 m 1xe940
 400 500 l 1xd940
 300 500 l 1
 300 400 l 1xea40
 200 400 l 1
 200 100 l 1
 400 100 l 1xe940
EndSplineSet
Validated: 5
AlternateSubs2: "'aalt' Access All Alternates lookup 0 subtable" thorn.sc
EndChar

StartChar: guillemotleft
Encoding: 171 171 171
Width: 700
GlyphClass: 2
Flags: W
HStem: 100 100<200 300 500 600> 200 100<100 200 400 500> 300 100<0 100 300 400> 400 100<100 200 400 500> 500 100<200 300 500 600>
VStem: 0 100<300 400> 100 100<200 300 400 500> 200 100<100 200 500 600> 300 100<300 400> 400 100<200 300 400 500> 500 100<100 200 500 600>
LayerCount: 2
Fore
SplineSet
0 300 m 1x24
 0 400 l 1
 100 400 l 1x24
 100 300 l 1x44
 0 300 l 1x24
300 200 m 1x81
 300 100 l 1
 200 100 l 1x81
 200 200 l 1x82
 100 200 l 1x42
 100 300 l 1x44
 200 300 l 1x42
 200 200 l 1x82
 300 200 l 1x81
200 600 m 1x09
 300 600 l 1
 300 500 l 1x09
 200 500 l 1
 200 400 l 1x12
 100 400 l 1x24
 100 500 l 1
 200 500 l 1x12
 200 600 l 1x09
500 600 m 1x0820
 600 600 l 1
 600 500 l 1x0820
 500 500 l 1
 500 400 l 1x1040
 400 400 l 1x2080
 400 300 l 1x4080
 300 300 l 1
 300 400 l 1
 400 400 l 1x2080
 400 500 l 1
 500 500 l 1x1040
 500 600 l 1x0820
400 300 m 1x4080
 500 300 l 1x4040
 500 200 l 1x8040
 400 200 l 1x4040
 400 300 l 1x4080
500 200 m 1x8040
 600 200 l 1
 600 100 l 1
 500 100 l 1x8020
 500 200 l 1x8040
EndSplineSet
Validated: 5
EndChar

StartChar: guillemotright
Encoding: 172 187 172
Width: 700
GlyphClass: 2
Flags: W
HStem: 100 100<0 100 300 400> 200 100<100 200 400 500> 300 100<200 300 500 600> 400 100<100 200 400 500> 500 100<0 100 300 400>
VStem: 0 100<100 200 500 600> 100 100<200 300 400 500> 200 100<300 400> 300 100<100 200 500 600> 400 100<200 300 400 500> 500 100<300 400>
LayerCount: 2
Fore
SplineSet
0 600 m 1x0c
 100 600 l 1x0c
 100 500 l 1x14
 0 500 l 1
 0 600 l 1x0c
300 600 m 1x0880
 400 600 l 1x0880
 400 500 l 1x1080
 300 500 l 1
 300 600 l 1x0880
100 200 m 1x84
 100 300 l 1
 200 300 l 1x42
 200 400 l 1x22
 100 400 l 1x12
 100 500 l 1x14
 200 500 l 1x12
 200 400 l 1x22
 300 400 l 1
 300 300 l 1x21
 200 300 l 1
 200 200 l 1x42
 100 200 l 1x84
100 200 m 1x84
 100 100 l 1
 0 100 l 1
 0 200 l 1
 100 200 l 1x84
400 200 m 1x8080
 400 300 l 1
 500 300 l 1x4040
 500 400 l 1x2040
 400 400 l 1x1040
 400 500 l 1x1080
 500 500 l 1x1040
 500 400 l 1x2040
 600 400 l 1
 600 300 l 1x2020
 500 300 l 1
 500 200 l 1x4040
 400 200 l 1x8080
400 200 m 1x8080
 400 100 l 1
 300 100 l 1
 300 200 l 1
 400 200 l 1x8080
EndSplineSet
Validated: 5
EndChar

StartChar: onequarter
Encoding: 173 188 173
Width: 800
GlyphClass: 2
Flags: W
HStem: 0 100<100 200> 100 200<200 300 400 500> 100 100<500 600> 300 200<300 400> 300 100<500 600> 500 200<400 500> 700 100<0 100 500 600>
VStem: 0 200<700 800> 100 100<0 100 400 700> 200 100<100 300> 300 100<300 500> 400 100<200 300 500 700> 500 100<700 800> 600 100<0 100 200 300>
LayerCount: 2
Fore
SplineSet
0 800 m 1x0b
 200 800 l 1x0b
 200 400 l 1
 100 400 l 1
 100 700 l 1x0a80
 0 700 l 1
 0 800 l 1x0b
500 800 m 1x0208
 600 800 l 1
 600 700 l 1x0208
 500 700 l 1x0410
 500 800 l 1x0208
500 300 m 1x4014
 500 200 l 1
 600 200 l 1
 600 300 l 1x2814
 500 300 l 1x4014
500 300 m 1x4010
 500 400 l 1x0808
 700 400 l 1
 700 0 l 1
 600 0 l 1x8804
 600 100 l 1x2004
 400 100 l 1x4014
 400 300 l 1x4020
 500 300 l 1x4010
200 100 m 1x8080
 200 300 l 1
 300 300 l 1x4040
 300 500 l 1
 400 500 l 1x1020
 400 700 l 1
 500 700 l 1
 500 500 l 1x0410
 400 500 l 1x1020
 400 300 l 1x4020
 300 300 l 1
 300 100 l 1x4040
 200 100 l 1x8080
200 100 m 1x8080
 200 0 l 1
 100 0 l 1
 100 100 l 1
 200 100 l 1x8080
EndSplineSet
Validated: 5
EndChar

StartChar: onehalf
Encoding: 174 189 174
Width: 800
GlyphClass: 2
Flags: W
HStem: 0 200<500 600> 0 100<100 200 600 700> 100 200<200 300> 200 200<600 700> 300 200<300 400> 300 100<500 600> 500 200<400 500> 700 100<0 100 500 600>
VStem: 0 200<700 800> 100 100<0 100 400 700> 200 100<100 300> 300 100<300 500> 400 100<500 700> 500 100<100 200 700 800> 600 100<200 300>
LayerCount: 2
Fore
SplineSet
100 700 m 1x0540
 0 700 l 1
 0 800 l 1
 200 800 l 1x0580
 200 400 l 1
 100 400 l 1
 100 700 l 1x0540
500 400 m 1x8404
 700 400 l 1
 700 200 l 1x1002
 600 200 l 1x8004
 600 100 l 1x4004
 700 100 l 1
 700 0 l 1x4002
 500 0 l 1
 500 200 l 1
 600 200 l 1x8004
 600 300 l 1x8402
 500 300 l 1
 500 400 l 1x8404
500 800 m 1x0104
 600 800 l 1
 600 700 l 1x0104
 500 700 l 1x0208
 500 800 l 1x0104
200 100 m 1x4040
 200 300 l 1
 300 300 l 1x2020
 300 500 l 1
 400 500 l 1x0810
 400 700 l 1
 500 700 l 1
 500 500 l 1x0208
 400 500 l 1
 400 300 l 1x0810
 300 300 l 1
 300 100 l 1x2020
 200 100 l 1x4040
200 100 m 1x4040
 200 0 l 1
 100 0 l 1
 100 100 l 1
 200 100 l 1x4040
EndSplineSet
Validated: 5
EndChar

StartChar: threequarters
Encoding: 175 190 175
Width: 800
GlyphClass: 2
Flags: W
HStem: 0 100<100 200> 100 200<200 300 400 500> 100 100<500 600> 300 100<500 600> 400 100<0 200> 500 100<200 300> 600 100<100 200> 700 100<500 600> 800 100<0 200>
VStem: 0 200<400 500> 100 100<0 100 600 700> 200 100<100 300 500 600 700 800> 400 100<200 300 500 700> 500 100<700 800> 600 100<0 100 200 300>
LayerCount: 2
Fore
SplineSet
700 400 m 1x0802
 700 0 l 1
 600 0 l 1x8802
 600 100 l 1x2002
 400 100 l 1
 400 300 l 1
 500 300 l 1x400a
 500 200 l 1
 600 200 l 1
 600 300 l 1x300a
 500 300 l 1x400a
 500 400 l 1x1004
 700 400 l 1x0802
500 800 m 1x0104
 600 800 l 1
 600 700 l 1x0104
 500 700 l 1x0108
 500 800 l 1x0104
200 700 m 1x0220
 200 800 l 1x0290
 0 800 l 1
 0 900 l 1x02c0
 300 900 l 1x0290
 300 700 l 1x0110
 200 700 l 1x0220
200 700 m 1x0220
 200 600 l 1x0420
 100 600 l 1
 100 700 l 1
 200 700 l 1x0220
200 600 m 1
 300 600 l 1
 300 500 l 1
 400 500 l 1
 400 700 l 1
 500 700 l 1
 500 500 l 1
 400 500 l 1
 400 300 l 1
 300 300 l 1
 300 500 l 1x4518
 200 500 l 1x0840
 200 600 l 1
200 500 m 1x0840
 200 400 l 1
 0 400 l 1
 0 500 l 1
 200 500 l 1x0840
200 100 m 1x8020
 200 300 l 1
 300 300 l 1
 300 100 l 1x4010
 200 100 l 1x8020
200 100 m 1x8020
 200 0 l 1
 100 0 l 1
 100 100 l 1
 200 100 l 1x8020
EndSplineSet
Validated: 5
EndChar

StartChar: multiply
Encoding: 176 215 176
Width: 600
GlyphClass: 2
Flags: W
HStem: 100 100<0 100 400 500> 200 100<100 200 300 400> 400 100<100 200 300 400> 500 100<0 100 400 500>
VStem: 0 100<100 200 500 600> 100 100<200 300 400 500> 200 100<300 400> 300 100<200 300 400 500> 400 100<100 200 500 600>
LayerCount: 2
Fore
SplineSet
0 600 m 1x18
 100 600 l 1x18
 100 500 l 1x28
 0 500 l 1
 0 600 l 1x18
100 200 m 1x88
 100 300 l 1
 200 300 l 1
 200 400 l 1
 100 400 l 1x64
 100 500 l 1x68
 200 500 l 1
 200 400 l 1x64
 300 400 l 1
 300 300 l 1x62
 200 300 l 1
 200 200 l 1x64
 100 200 l 1x88
100 200 m 1x88
 100 100 l 1
 0 100 l 1
 0 200 l 1
 100 200 l 1x88
400 200 m 1x81
 300 200 l 1x41
 300 300 l 1x42
 400 300 l 1x41
 400 200 l 1x81
400 200 m 1x81
 500 200 l 1
 500 100 l 1
 400 100 l 1x8080
 400 200 l 1x81
400 500 m 1x21
 400 400 l 1x21
 300 400 l 1x22
 300 500 l 1
 400 500 l 1x21
400 500 m 1
 400 600 l 1
 500 600 l 1
 500 500 l 1x1080
 400 500 l 1
EndSplineSet
Validated: 5
EndChar

StartChar: logicalnot
Encoding: 177 172 177
Width: 600
GlyphClass: 2
Flags: W
HStem: 200 200<400 500> 300 100<0 400>
VStem: 400 100<200 300>
LayerCount: 2
Fore
SplineSet
0 400 m 1x60
 500 400 l 1
 500 200 l 1
 400 200 l 1xa0
 400 300 l 1
 0 300 l 1
 0 400 l 1x60
EndSplineSet
Validated: 1
EndChar

StartChar: uni00AD
Encoding: 178 173 178
Width: 500
GlyphClass: 2
Flags: W
HStem: 300 100<100 400>
VStem: 100 300<300 400>
LayerCount: 2
Fore
SplineSet
100 300 m 1
 100 400 l 1
 400 400 l 1
 400 300 l 1
 100 300 l 1
EndSplineSet
Validated: 1
EndChar

StartChar: macron
Encoding: 179 175 179
Width: 400
GlyphClass: 2
Flags: W
HStem: 600 100<0 300>
VStem: 0 300<600 700>
LayerCount: 2
Fore
SplineSet
0 700 m 1
 300 700 l 1
 300 600 l 1
 0 600 l 1
 0 700 l 1
EndSplineSet
Validated: 1
EndChar

StartChar: degree
Encoding: 180 176 180
Width: 500
GlyphClass: 2
Flags: W
HStem: 600 100<200 300> 700 100<100 200 300 400> 800 100<200 300>
VStem: 100 100<700 800> 200 100<600 700 800 900> 300 100<700 800>
LayerCount: 2
Fore
SplineSet
200 900 m 1x28
 300 900 l 1x28
 300 800 l 1x48
 200 800 l 1x50
 200 700 l 1x90
 100 700 l 1
 100 800 l 1
 200 800 l 1x50
 200 900 l 1x28
200 700 m 1x90
 300 700 l 1x88
 300 800 l 1x48
 400 800 l 1
 400 700 l 1x44
 300 700 l 1
 300 600 l 1
 200 600 l 1x88
 200 700 l 1x90
EndSplineSet
Validated: 5
EndChar

StartChar: plusminus
Encoding: 181 177 181
Width: 600
GlyphClass: 2
Flags: W
HStem: 100 100<0 200 300 500> 400 100<0 200 300 500>
VStem: 200 100<200 400 500 700>
LayerCount: 2
Fore
SplineSet
200 700 m 1
 300 700 l 1
 300 500 l 1
 500 500 l 1
 500 400 l 1
 300 400 l 1
 300 200 l 1
 500 200 l 1
 500 100 l 1
 0 100 l 1
 0 200 l 1
 200 200 l 1
 200 400 l 1
 0 400 l 1
 0 500 l 1
 200 500 l 1
 200 700 l 1
EndSplineSet
Validated: 1
EndChar

StartChar: uni00B2
Encoding: 182 178 182
Width: 400
GlyphClass: 2
Flags: W
HStem: 400 200<0 100> 400 100<100 300> 600 100<100 200> 700 100<200 300> 800 100<0 200>
VStem: 0 100<500 600> 100 100<600 700> 200 100<700 800>
LayerCount: 2
Fore
SplineSet
0 900 m 1x0d
 200 900 l 1x0d
 200 800 l 1x15
 0 800 l 1
 0 900 l 1x0d
100 600 m 1x84
 100 700 l 1
 200 700 l 1x22
 200 800 l 1
 300 800 l 1
 300 700 l 1x11
 200 700 l 1
 200 600 l 1x22
 100 600 l 1x84
100 600 m 1x85
 100 500 l 1
 300 500 l 1
 300 400 l 1x45
 0 400 l 1
 0 600 l 1
 100 600 l 1x85
EndSplineSet
Validated: 5
EndChar

StartChar: uni00B3
Encoding: 183 179 183
Width: 400
GlyphClass: 2
Flags: W
HStem: 400 100<0 200> 500 100<200 300> 600 100<100 200> 700 200<200 300> 800 100<0 200>
VStem: 0 200<400 500> 100 100<600 700> 200 100<500 600 700 800>
LayerCount: 2
Fore
SplineSet
0 900 m 1x2c
 300 900 l 1
 300 700 l 1x11
 200 700 l 1x22
 200 800 l 1x29
 0 800 l 1
 0 900 l 1x2c
200 500 m 1x84
 200 600 l 1x42
 100 600 l 1
 100 700 l 1
 200 700 l 1x22
 200 600 l 1x42
 300 600 l 1
 300 500 l 1x41
 200 500 l 1x84
200 500 m 1x84
 200 400 l 1
 0 400 l 1
 0 500 l 1
 200 500 l 1x84
EndSplineSet
Validated: 5
EndChar

StartChar: uni00B9
Encoding: 184 185 184
Width: 400
GlyphClass: 2
Flags: W
HStem: 400 100<0 100 200 300> 800 100<0 100>
VStem: 0 200<800 900> 100 100<500 800>
LayerCount: 2
Fore
SplineSet
100 800 m 1xd0
 0 800 l 1
 0 900 l 1
 200 900 l 1xe0
 200 500 l 1xd0
 300 500 l 1
 300 400 l 1
 0 400 l 1
 0 500 l 1xe0
 100 500 l 1
 100 800 l 1xd0
EndSplineSet
Validated: 1
EndChar

StartChar: eth
Encoding: 185 240 185
Width: 500
GlyphClass: 2
Flags: W
HStem: 0 100<100 300> 500 100<100 300> 700 100<0 200> 800 100<200 300> 900 100<0 200 300 400>
VStem: 0 200<700 800 900 1000> 0 100<100 500> 100 200<0 100> 200 100<800 900> 300 100<100 500 600 800 900 1000>
LayerCount: 2
Fore
SplineSet
300 1000 m 1xc840
 400 1000 l 1
 400 900 l 1xc840
 300 900 l 1xd080
 300 1000 l 1xc840
400 800 m 1xd040
 400 100 l 1xd040
 300 100 l 1xd1
 300 500 l 1
 100 500 l 1xd240
 100 600 l 1xd1
 300 600 l 1xd040
 300 800 l 1xd080
 400 800 l 1xd040
300 900 m 1xd080
 300 800 l 1xd080
 200 800 l 1
 200 700 l 1
 0 700 l 1
 0 800 l 1
 200 800 l 1xe4
 200 900 l 1xd4
 300 900 l 1xd080
200 900 m 1xd4
 0 900 l 1
 0 1000 l 1
 200 1000 l 1xcc
 200 900 l 1xd4
100 500 m 1xc2
 100 100 l 1
 0 100 l 1
 0 500 l 1
 100 500 l 1xc2
100 100 m 1
 300 100 l 1
 300 0 l 1
 100 0 l 1xc1
 100 100 l 1
EndSplineSet
Validated: 5
AlternateSubs2: "'aalt' Access All Alternates lookup 0 subtable" eth.sc
EndChar

StartChar: ordmasculine
Encoding: 186 186 186
Width: 500
GlyphClass: 2
Flags: W
HStem: 600 100<200 300> 700 100<100 200 300 400> 800 100<200 300>
VStem: 100 100<700 800> 200 100<600 700 800 900> 300 100<700 800>
LayerCount: 2
Fore
SplineSet
200 900 m 1x28
 300 900 l 1x28
 300 800 l 1x48
 400 800 l 1
 400 700 l 1x44
 300 700 l 1
 300 600 l 1
 200 600 l 1x88
 200 700 l 1x90
 300 700 l 1x88
 300 800 l 1x48
 200 800 l 1x50
 200 700 l 1x90
 100 700 l 1
 100 800 l 1
 200 800 l 1x50
 200 900 l 1x28
EndSplineSet
Validated: 5
EndChar

StartChar: questiondown
Encoding: 187 191 187
Width: 500
GlyphClass: 2
Flags: W
HStem: -300 100<200 400> -200 100<100 200> 200 200<200 300> 200 100<100 200> 500 100<200 300>
VStem: 0 100<-100 200> 100 100<-200 -100> 200 200<-300 -200> 200 100<300 400 500 600>
LayerCount: 2
Fore
SplineSet
300 500 m 1x0880
 200 500 l 1
 200 600 l 1
 300 600 l 1
 300 500 l 1x0880
300 400 m 1x2880
 300 200 l 1x2880
 100 200 l 1x1c80
 100 300 l 1x1a
 200 300 l 1x1880
 200 400 l 1
 300 400 l 1x2880
400 -300 m 1x89
 200 -300 l 1x89
 200 -200 l 1x8a
 100 -200 l 1x4a
 100 -100 l 1
 0 -100 l 1
 0 200 l 1
 100 200 l 1
 100 -100 l 1x5c
 200 -100 l 1x5a
 200 -200 l 1x8a
 400 -200 l 1
 400 -300 l 1x89
EndSplineSet
Validated: 5
AlternateSubs2: "'aalt' Access All Alternates lookup 0 subtable" questiondown.sc
EndChar

StartChar: paragraph
Encoding: 188 182 188
Width: 700
GlyphClass: 2
Flags: W
HStem: 0 21G<200 300 400 500> 0 21G<200 300 400 500> 500 200<0 100> 700 100<300 400 500 600>
VStem: 0 300<500 700> 100 200<400 500> 400 100<0 700>
LayerCount: 2
Fore
SplineSet
300 700 m 1x9a
 300 0 l 1
 200 0 l 1
 200 400 l 1
 100 400 l 1
 100 500 l 1xa6
 0 500 l 1
 0 700 l 1xaa
 100 700 l 1xa6
 100 800 l 1x16
 600 800 l 1
 600 700 l 1
 500 700 l 1
 500 0 l 1
 400 0 l 1
 400 700 l 1
 300 700 l 1x9a
EndSplineSet
Validated: 1
EndChar

StartChar: periodcentered
Encoding: 189 183 189
Width: 200
GlyphClass: 2
Flags: W
HStem: 300 100<0 100>
VStem: 0 100<300 400>
LayerCount: 2
Fore
SplineSet
0 400 m 5
 100 400 l 5
 100 300 l 5
 0 300 l 5
 0 400 l 5
EndSplineSet
EndChar

StartChar: cedilla
Encoding: 190 184 190
Width: 300
GlyphClass: 2
Flags: W
HStem: -200 100<0 100> -100 100<100 200>
VStem: 0 100<-200 -100> 100 100<-100 0>
LayerCount: 2
Fore
SplineSet
100 0 m 1x50
 200 0 l 1
 200 -100 l 1x50
 100 -100 l 1
 100 -200 l 1
 0 -200 l 1
 0 -100 l 1
 100 -100 l 1xa0
 100 0 l 1x50
EndSplineSet
Validated: 5
EndChar

StartChar: acute
Encoding: 191 180 191
Width: 300
GlyphClass: 2
Flags: W
HStem: 600 100<0 100> 700 100<100 200>
VStem: 0 100<600 700> 100 100<700 800>
LayerCount: 2
Fore
SplineSet
100 800 m 5x50
 200 800 l 5
 200 700 l 5x50
 100 700 l 5xa0
 100 800 l 5x50
100 700 m 5xa0
 100 600 l 5
 0 600 l 5
 0 700 l 5
 100 700 l 5xa0
EndSplineSet
Validated: 5
EndChar

StartChar: copyright
Encoding: 192 169 192
Width: 900
GlyphClass: 2
Flags: W
HStem: 0 100<200 600> 100 100<100 200 600 700> 200 100<300 500> 300 200<200 300> 300 100<500 600> 500 100<300 500> 600 100<100 200 600 700> 700 100<200 600>
VStem: 0 100<200 600> 100 100<100 200 600 700> 200 100<300 500> 300 200<200 300 500 600> 500 100<300 400> 600 100<100 200 600 700> 700 100<200 600>
LayerCount: 2
Fore
SplineSet
500 400 m 1x0808
 600 400 l 1
 600 300 l 1x0808
 500 300 l 1x2010
 500 400 l 1x0808
300 600 m 1x0410
 500 600 l 1
 500 500 l 1x0410
 300 500 l 1x1020
 300 600 l 1x0410
100 600 m 1x2280
 100 200 l 1x4280
 0 200 l 1
 0 600 l 1
 100 600 l 1x2280
100 600 m 1
 100 700 l 1
 200 700 l 1
 200 600 l 1x0240
 100 600 l 1
200 700 m 1
 200 800 l 1
 600 800 l 1x0124
 600 700 l 1x0224
 200 700 l 1
600 700 m 1x0204
 700 700 l 1
 700 600 l 1
 600 600 l 1
 600 700 l 1x0204
700 600 m 1
 800 600 l 1
 800 200 l 1x2202
 700 200 l 1x4004
 700 600 l 1
700 200 m 1x4004
 700 100 l 1x4004
 600 100 l 1x8004
 600 200 l 1
 700 200 l 1x4004
100 200 m 1x4080
 200 200 l 1x4040
 200 100 l 1x8040
 100 100 l 1x4040
 100 200 l 1x4080
200 100 m 1x8040
 600 100 l 1
 600 0 l 1
 200 0 l 1x8024
 200 100 l 1x8040
500 300 m 1x2010
 500 200 l 1
 300 200 l 1x2010
 300 300 l 1x2020
 500 300 l 1x2010
300 300 m 1x2020
 200 300 l 1
 200 500 l 1
 300 500 l 1x1020
 300 300 l 1x2020
EndSplineSet
Validated: 5
EndChar

StartChar: micro
Encoding: 193 181 193
Width: 700
GlyphClass: 2
Flags: W
HStem: 0 100<200 300 500 600> 100 100<300 400> 500 100<0 100 300 400>
VStem: 0 200<500 600> 100 200<0 100> 100 100<-300 0 100 500> 300 200<100 200 500 600> 400 200<0 100> 400 100<200 500>
LayerCount: 2
Fore
SplineSet
300 600 m 1x62
 500 600 l 1
 500 100 l 1xa2
 600 100 l 1
 600 0 l 1
 400 0 l 1xa1
 400 100 l 1x61
 300 100 l 1
 300 0 l 1xa9
 200 0 l 1
 200 -300 l 1
 100 -300 l 1
 100 500 l 1xa4
 0 500 l 1
 0 600 l 1
 200 600 l 1xb0
 200 100 l 1xa4
 300 100 l 1xa8
 300 200 l 1x62
 400 200 l 1
 400 500 l 1x6080
 300 500 l 1
 300 600 l 1x62
EndSplineSet
Validated: 5
EndChar

StartChar: divide
Encoding: 194 247 194
Width: 600
GlyphClass: 2
Flags: W
HStem: 100 100<200 300> 300 100<0 500> 500 100<200 300>
VStem: 200 100<100 200 500 600>
CounterMasks: 1 e0
LayerCount: 2
Fore
SplineSet
200 600 m 1
 300 600 l 1
 300 500 l 1
 200 500 l 1
 200 600 l 1
200 200 m 1
 300 200 l 1
 300 100 l 1
 200 100 l 1
 200 200 l 1
0 400 m 1
 500 400 l 1
 500 300 l 1
 0 300 l 1
 0 400 l 1
EndSplineSet
Validated: 1
EndChar

StartChar: section
Encoding: 195 167 195
Width: 600
GlyphClass: 2
Flags: W
HStem: -100 100<200 400> 0 200<400 500> 0 100<100 200> 200 200<300 400> 200 100<200 300> 300 200<100 200> 400 100<200 300> 500 200<0 100> 600 100<300 400> 700 100<100 300>
VStem: 0 100<-100 0 500 700> 100 200<400 500 700 800> 100 100<300 400> 200 200<-100 0 200 300> 300 100<300 400> 400 100<0 200 700 800>
LayerCount: 2
Fore
SplineSet
0 100 m 1x2024
 200 100 l 1x2024
 200 0 l 1x8024
 100 0 l 1x2024
 100 -100 l 1
 0 -100 l 1x8024
 0 100 l 1x2024
400 800 m 1x0051
 500 800 l 1x0051
 500 600 l 1x0091
 300 600 l 1x0082
 300 700 l 1
 400 700 l 1x0091
 400 800 l 1x0051
100 800 m 1
 300 800 l 1x0050
 300 700 l 1x0090
 100 700 l 1x0120
 100 500 l 1x0420
 300 500 l 1x0210
 300 400 l 1x1010
 400 400 l 1x1002
 400 200 l 1x4004
 500 200 l 1
 500 0 l 1x4001
 400 0 l 1
 400 -100 l 1
 200 -100 l 1
 200 0 l 1
 400 0 l 1x8004
 400 200 l 1x4004
 200 200 l 1x0804
 200 300 l 1
 300 300 l 1x080a
 300 400 l 1x1010
 200 400 l 1
 200 300 l 1x0a08
 100 300 l 1x0408
 100 500 l 1x0420
 0 500 l 1
 0 700 l 1
 100 700 l 1x0120
 100 800 l 1
EndSplineSet
Validated: 5
EndChar

StartChar: ordfeminine
Encoding: 196 170 196
Width: 600
GlyphClass: 2
Flags: W
HStem: 400 100<100 300 400 500> 500 100<0 100> 600 100<100 300> 800 100<100 300>
VStem: 0 100<500 600> 100 200<400 500 800 900> 300 100<500 600 700 800> 400 100<400 500>
LayerCount: 2
Fore
SplineSet
100 900 m 1x34
 300 900 l 1
 300 800 l 1x34
 400 800 l 1
 400 500 l 1xb2
 500 500 l 1
 500 400 l 1
 400 400 l 1xb1
 400 500 l 1xb2
 300 500 l 1
 300 400 l 1
 100 400 l 1xb4
 100 500 l 1xb8
 300 500 l 1xb4
 300 600 l 1xb2
 100 600 l 1x5a
 100 500 l 1x9a
 0 500 l 1
 0 600 l 1
 100 600 l 1x5a
 100 700 l 1x34
 300 700 l 1x32
 300 800 l 1
 100 800 l 1
 100 900 l 1x34
EndSplineSet
Validated: 5
EndChar

StartChar: registered
Encoding: 197 174 197
Width: 900
GlyphClass: 2
Flags: W
HStem: 0 100<200 600> 100 100<100 200 600 700> 200 100<500 600> 300 100<300 500> 500 100<300 500> 600 100<100 200 600 700> 700 100<200 600>
VStem: 0 100<200 600> 100 100<100 200 600 700> 200 300<300 400 500 600> 200 100<200 300 400 500> 500 100<200 300 400 500> 600 100<100 200 600 700> 700 100<200 600>
LayerCount: 2
Fore
SplineSet
500 300 m 1x2040
 600 300 l 1x2010
 600 200 l 1x4010
 500 200 l 1x2010
 500 300 l 1x2040
500 300 m 1x2040
 300 300 l 1x1020
 300 200 l 1x2020
 200 200 l 1
 200 600 l 1x4480
 500 600 l 1
 500 500 l 1x0840
 600 500 l 1
 600 400 l 1x1810
 500 400 l 1x1840
 500 300 l 1x2040
500 500 m 1x1840
 300 500 l 1
 300 400 l 1x1820
 500 400 l 1
 500 500 l 1x1840
100 600 m 1x25
 100 200 l 1x45
 0 200 l 1
 0 600 l 1
 100 600 l 1x25
100 600 m 1
 100 700 l 1
 200 700 l 1
 200 600 l 1x0480
 100 600 l 1
200 700 m 1
 200 800 l 1
 600 800 l 1x0228
 600 700 l 1x0428
 200 700 l 1
600 700 m 1x0408
 700 700 l 1
 700 600 l 1
 600 600 l 1
 600 700 l 1x0408
700 600 m 1
 800 600 l 1
 800 200 l 1x2404
 700 200 l 1x4008
 700 600 l 1
700 200 m 1x4008
 700 100 l 1x4008
 600 100 l 1x8008
 600 200 l 1x4010
 700 200 l 1x4008
200 200 m 1x4080
 200 100 l 1x8080
 100 100 l 1x4080
 100 200 l 1x41
 200 200 l 1x4080
200 100 m 1
 600 100 l 1
 600 0 l 1
 200 0 l 1x8028
 200 100 l 1
EndSplineSet
Validated: 5
EndChar

StartChar: germandbls
Encoding: 198 223 198
Width: 700
GlyphClass: 2
Flags: W
HStem: 0 100<0 100 300 500> 100 200<500 600> 100 100<200 300> 300 100<400 500> 400 200<300 400> 500 100<0 100> 600 200<400 500> 800 100<200 400>
VStem: 0 200<0 100 500 600> 100 200<100 200> 100 100<200 500 600 800> 200 200<800 900> 300 100<400 600> 400 100<300 400 600 800> 500 100<100 300>
LayerCount: 2
Fore
SplineSet
200 900 m 1x8510
 400 900 l 1x8510
 400 800 l 1x0210
 500 800 l 1
 500 600 l 1x0204
 400 600 l 1x0808
 400 400 l 1x1008
 500 400 l 1x1004
 500 300 l 1x4004
 600 300 l 1
 600 100 l 1x4002
 500 100 l 1
 500 0 l 1
 300 0 l 1x800a
 300 100 l 1x8040
 200 100 l 1x2080
 200 0 l 1
 0 0 l 1
 0 100 l 1x8080
 100 100 l 1x8040
 100 500 l 1x8420
 0 500 l 1
 0 600 l 1x8480
 100 600 l 1
 100 800 l 1
 200 800 l 1x8520
 200 900 l 1x8510
400 600 m 1x0808
 400 800 l 1x0210
 200 800 l 1
 200 200 l 1x2120
 300 200 l 1x2140
 300 100 l 1
 500 100 l 1x8042
 500 300 l 1x4004
 400 300 l 1x1004
 400 400 l 1x1008
 300 400 l 1
 300 600 l 1
 400 600 l 1x0808
EndSplineSet
Validated: 5
AlternateSubs2: "'aalt' Access All Alternates lookup 0 subtable" germandbls.sc
EndChar

StartChar: Aogonek
Encoding: 199 260 199
Width: 775
VWidth: -31072
GlyphClass: 2
Flags: W
HStem: -200 100<600 700> -100 100<500 600> 0 100<0 100 200 300 400 500 600 700> 0 300<100 200 500 600> 300 100<300 400> 300 300<200 300 400 500> 600 200<300 400>
VStem: 100 100<100 300> 200 100<400 600> 400 100<400 600> 500 100<-100 0 100 300> 600 100<-200 -100>
LayerCount: 2
Fore
SplineSet
500 0 m 1x4020
 600 0 l 1x4020
 600 -100 l 1x8020
 700 -100 l 1
 700 -200 l 1
 600 -200 l 1x8010
 600 -100 l 1x8020
 500 -100 l 1
 500 0 l 1x4020
EndSplineSet
Refer: 0 65 N 1 0 0 1 0 0 2
Validated: 5
AlternateSubs2: "'aalt' Access All Alternates lookup 0 subtable" aogonek.sc
EndChar

StartChar: breve
Encoding: 200 728 200
Width: 500
GlyphClass: 2
Flags: W
HStem: 600 100<100 300> 700 100<0 100 300 400>
VStem: 0 100<700 800> 100 200<600 700> 300 100<700 800>
LayerCount: 2
Fore
SplineSet
300 800 m 1x48
 400 800 l 1
 400 700 l 1x48
 300 700 l 1x90
 300 800 l 1x48
0 800 m 1x60
 100 800 l 1x60
 100 700 l 1xa0
 300 700 l 1
 300 600 l 1
 100 600 l 1x90
 100 700 l 1xa0
 0 700 l 1
 0 800 l 1x60
EndSplineSet
Validated: 5
EndChar

StartChar: Lslash
Encoding: 201 321 201
Width: 600
GlyphClass: 2
Flags: W
HStem: 0 100<0 100 200 400> 0 200<400 500> 300 100<0 100> 400 100<200 300> 700 100<0 100 200 300>
VStem: 0 100<300 400> 100 100<100 700> 200 100<400 500> 400 100<100 200>
LayerCount: 2
Fore
SplineSet
200 500 m 1x1a80
 300 500 l 1
 300 400 l 1x1980
 200 400 l 1
 200 500 l 1x1a80
0 400 m 1x2c80
 100 400 l 1
 100 300 l 1
 0 300 l 1
 0 400 l 1x2c80
EndSplineSet
Refer: 11 76 N 1 0 0 1 0 0 2
Validated: 5
AlternateSubs2: "'aalt' Access All Alternates lookup 0 subtable" lslash.sc
EndChar

StartChar: Lcaron
Encoding: 202 317 202
Width: 600
GlyphClass: 2
Flags: W
HStem: 0 100<0 100 200 400> 0 200<400 500> 500 100<300 400> 600 200<400 500> 700 100<0 100 200 300>
VStem: 100 100<100 700> 300 100<500 600> 400 100<100 200 600 800>
LayerCount: 2
Fore
SplineSet
400 800 m 1x15
 500 800 l 1
 500 600 l 1x15
 400 600 l 1
 400 500 l 1
 300 500 l 1
 300 600 l 1
 400 600 l 1x26
 400 800 l 1x15
EndSplineSet
Refer: 11 76 N 1 0 0 1 0 0 2
Validated: 5
AlternateSubs2: "'aalt' Access All Alternates lookup 0 subtable" lcaron.sc
EndChar

StartChar: Sacute
Encoding: 203 346 203
Width: 600
GlyphClass: 2
Flags: W
HStem: 0 100<200 400> 100 200<400 500> 100 100<100 200> 300 100<300 400> 400 100<100 300> 500 200<0 100> 600 100<300 400> 700 100<100 300> 900 100<200 300> 1000 100<300 400>
VStem: 0 200<100 200> 0 100<0 100 500 700> 100 200<400 500 700 800> 200 100<900 1000> 300 100<300 400 1000 1100> 400 100<100 300 700 800>
LayerCount: 2
Fore
SplineSet
300 1100 m 1x0042
 400 1100 l 1
 400 1000 l 1x0042
 300 1000 l 1x0084
 300 1100 l 1x0042
200 900 m 1x0084
 200 1000 l 1
 300 1000 l 1
 300 900 l 1
 200 900 l 1x0084
0 0 m 1x8010
 0 200 l 1
 200 200 l 1x2020
 200 100 l 1x8020
 100 100 l 1x2010
 100 0 l 1
 0 0 l 1x8010
100 800 m 1x0108
 300 800 l 1x0108
 300 700 l 1x0208
 100 700 l 1x0410
 100 500 l 1x0810
 300 500 l 1x0808
 300 400 l 1x1008
 400 400 l 1x1002
 400 300 l 1x4002
 500 300 l 1
 500 100 l 1x4001
 400 100 l 1
 400 0 l 1
 200 0 l 1x8005
 200 100 l 1
 400 100 l 1x8021
 400 300 l 1x4002
 300 300 l 1x1002
 300 400 l 1x1008
 100 400 l 1x0808
 100 500 l 1x0810
 0 500 l 1
 0 700 l 1
 100 700 l 1x0410
 100 800 l 1x0108
400 800 m 1x0109
 500 800 l 1x0109
 500 600 l 1x0209
 300 600 l 1x0202
 300 700 l 1
 400 700 l 1x0209
 400 800 l 1x0109
EndSplineSet
Validated: 5
AlternateSubs2: "'aalt' Access All Alternates lookup 0 subtable" sacute.sc
EndChar

StartChar: Scaron
Encoding: 204 352 204
Width: 600
GlyphClass: 2
Flags: W
HStem: 0 100<200 400> 100 200<400 500> 100 100<100 200> 300 100<300 400> 400 100<100 300> 500 200<0 100> 600 100<300 400> 700 100<100 300> 900 100<200 300> 1000 100<100 200 300 400>
VStem: 0 100<0 100 500 700> 100 100<1000 1100> 200 100<900 1000> 300 100<300 400 1000 1100> 400 100<100 300 700 800>
LayerCount: 2
Fore
SplineSet
300 1100 m 1x0044
 400 1100 l 1
 400 1000 l 1x0044
 300 1000 l 1x0088
 300 1100 l 1x0044
100 1000 m 1x0050
 100 1100 l 1
 200 1100 l 1x0050
 200 1000 l 1x0090
 300 1000 l 1
 300 900 l 1
 200 900 l 1x0088
 200 1000 l 1x0090
 100 1000 l 1x0050
0 0 m 1x8028
 0 200 l 1
 200 200 l 1x2028
 200 100 l 1x8028
 100 100 l 1x2028
 100 0 l 1
 0 0 l 1x8028
100 800 m 1x0110
 300 800 l 1x0114
 300 700 l 1x0214
 100 700 l 1x0424
 100 500 l 1
 300 500 l 1x0824
 300 400 l 1
 400 400 l 1x1024
 400 300 l 1x4024
 500 300 l 1
 500 100 l 1x4002
 400 100 l 1
 400 0 l 1
 200 0 l 1
 200 100 l 1
 400 100 l 1x800a
 400 300 l 1x4004
 300 300 l 1
 300 400 l 1x1004
 100 400 l 1x0814
 100 500 l 1x0820
 0 500 l 1
 0 700 l 1
 100 700 l 1x0420
 100 800 l 1x0110
400 800 m 1x0102
 500 800 l 1x0102
 500 600 l 1x0202
 300 600 l 1
 300 700 l 1x0204
 400 700 l 1x0202
 400 800 l 1x0102
EndSplineSet
Validated: 5
AlternateSubs2: "'aalt' Access All Alternates lookup 0 subtable" scaron.sc
EndChar

StartChar: Scedilla
Encoding: 205 350 205
Width: 600
GlyphClass: 2
Flags: W
HStem: -200 100<100 200> -100 200<200 300> 0 100<300 400> 100 200<400 500> 100 100<100 200> 300 100<300 400> 400 100<100 300> 500 200<0 100> 600 100<300 400> 700 100<100 300>
VStem: 0 100<0 100 500 700> 100 100<-200 -100> 200 100<-100 0> 300 100<300 400> 400 100<100 300 700 800>
LayerCount: 2
Fore
SplineSet
0 0 m 1x2028
 0 200 l 1
 200 200 l 1x0828
 200 100 l 1x4028
 100 100 l 1x0828
 100 0 l 1
 0 0 l 1x2028
100 800 m 1x0050
 300 800 l 1x0054
 300 700 l 1x0094
 100 700 l 1x0124
 100 500 l 1
 300 500 l 1x0224
 300 400 l 1
 400 400 l 1x0424
 400 300 l 1x1024
 500 300 l 1
 500 100 l 1x1002
 400 100 l 1
 400 0 l 1
 300 0 l 1x200a
 300 -100 l 1x400a
 200 -100 l 1
 200 -200 l 1
 100 -200 l 1
 100 -100 l 1
 200 -100 l 1x8010
 200 100 l 1x4008
 400 100 l 1x200a
 400 300 l 1x1004
 300 300 l 1
 300 400 l 1x0404
 100 400 l 1x0214
 100 500 l 1x0220
 0 500 l 1
 0 700 l 1
 100 700 l 1x0120
 100 800 l 1x0050
400 800 m 1x0042
 500 800 l 1x0042
 500 600 l 1x0082
 300 600 l 1
 300 700 l 1x0084
 400 700 l 1x0082
 400 800 l 1x0042
EndSplineSet
Validated: 5
AlternateSubs2: "'aalt' Access All Alternates lookup 0 subtable" scedilla.sc
EndChar

StartChar: Tcaron
Encoding: 206 356 206
Width: 600
GlyphClass: 2
Flags: W
HStem: 0 100<100 200 300 400> 600 200<0 100 400 500> 700 100<100 200 300 400> 900 100<200 300> 1000 100<100 200 300 400>
VStem: 0 100<600 700> 100 100<1000 1100> 200 100<100 700 900 1000> 300 100<1000 1100> 400 100<600 700>
LayerCount: 2
Fore
SplineSet
300 1100 m 1x8880
 400 1100 l 1
 400 1000 l 1x8880
 300 1000 l 1x91
 300 1100 l 1x8880
100 1100 m 1x8a
 200 1100 l 1x8a
 200 1000 l 1x92
 100 1000 l 1
 100 1100 l 1x8a
300 1000 m 1x91
 300 900 l 1
 200 900 l 1x91
 200 1000 l 1x92
 300 1000 l 1x91
EndSplineSet
Refer: 19 84 N 1 0 0 1 0 0 2
Validated: 5
AlternateSubs2: "'aalt' Access All Alternates lookup 0 subtable" tcaron.sc
EndChar

StartChar: Zacute
Encoding: 207 377 207
Width: 650
GlyphClass: 2
Flags: W
HStem: 0 100<150 450> 0 200<50 150 450 550> 200 100<150 250> 300 200<250 350> 500 100<350 450> 600 200<50 150 450 550> 700 100<150 450> 900 100<250 350> 1000 100<350 450>
VStem: 50 100<100 200 600 700> 150 100<200 300> 250 100<300 500 900 1000> 350 100<500 600 1000 1100> 450 100<100 200 600 700>
LayerCount: 2
Fore
SplineSet
350 1100 m 1x0088
 450 1100 l 1
 450 1000 l 1x0088
 350 1000 l 1x0110
 350 1100 l 1x0088
350 1000 m 1x0110
 350 900 l 1
 250 900 l 1
 250 1000 l 1
 350 1000 l 1x0110
EndSplineSet
Refer: 26 90 N 1 0 0 1 0 0 2
Validated: 5
AlternateSubs2: "'aalt' Access All Alternates lookup 0 subtable" zacute.sc
EndChar

StartChar: Zcaron
Encoding: 208 381 208
Width: 650
GlyphClass: 2
Flags: W
HStem: 0 100<150 450> 0 200<50 150 450 550> 200 100<150 250> 300 200<250 350> 500 100<350 450> 600 200<50 150 450 550> 700 100<150 450> 900 100<250 350> 1000 100<150 250 350 450>
VStem: 50 100<100 200 600 700> 150 100<200 300 1000 1100> 250 100<300 500 900 1000> 350 100<500 600 1000 1100> 450 100<100 200 600 700>
LayerCount: 2
Fore
SplineSet
350 1100 m 1x0088
 450 1100 l 1
 450 1000 l 1x0088
 350 1000 l 1x0110
 350 1100 l 1x0088
150 1100 m 1x00a0
 250 1100 l 1x00a0
 250 1000 l 1x0120
 150 1000 l 1
 150 1100 l 1x00a0
350 1000 m 1x0110
 350 900 l 1
 250 900 l 1x0110
 250 1000 l 1x0120
 350 1000 l 1x0110
EndSplineSet
Refer: 26 90 N 1 0 0 1 0 0 2
Validated: 5
AlternateSubs2: "'aalt' Access All Alternates lookup 0 subtable" zcaron.sc
EndChar

StartChar: Zdotaccent
Encoding: 209 379 209
Width: 650
GlyphClass: 2
Flags: W
HStem: 0 100<150 450> 0 200<50 150 450 550> 200 100<150 250> 300 200<250 350> 500 100<350 450> 600 200<50 150 450 550> 700 100<150 450> 900 100<250 350>
VStem: 50 100<100 200 600 700> 150 100<200 300> 250 100<300 500 900 1000> 350 100<500 600> 450 100<100 200 600 700>
LayerCount: 2
Fore
SplineSet
250 1000 m 1x0120
 350 1000 l 1
 350 900 l 1
 250 900 l 1
 250 1000 l 1x0120
EndSplineSet
Refer: 26 90 N 1 0 0 1 0 0 2
Validated: 5
AlternateSubs2: "'aalt' Access All Alternates lookup 0 subtable" zdotaccent.sc
EndChar

StartChar: aogonek
Encoding: 210 261 210
Width: 525
GlyphClass: 2
Flags: W
HStem: -200 100<426 526> -100 100<326 426> 0 100<125 325> 100 100<25 125> 200 100<125 225> 400 100<25 125> 500 100<125 325>
VStem: 25 100<100 200 400 500> 125 100<200 300> 125 200<500 600> 225 200<300 400> 325 100<100 300 400 500> 326 100<-100 0> 426 100<-200 -100>
LayerCount: 2
Fore
SplineSet
326 0 m 5x4008
 426 0 l 5x4008
 426 -100 l 5x8008
 526 -100 l 5
 526 -200 l 5
 426 -200 l 5x8004
 426 -100 l 5x8008
 326 -100 l 5
 326 0 l 5x4008
EndSplineSet
Refer: 36 97 N 1 0 0 1 0 0 2
AlternateSubs2: "'aalt' Access All Alternates lookup 0 subtable" aogonek.sc
EndChar

StartChar: ogonek
Encoding: 211 731 211
Width: 300
GlyphClass: 2
Flags: W
HStem: -200 100<100 200> -100 100<0 100>
VStem: 0 100<-100 0> 100 100<-200 -100>
LayerCount: 2
Fore
SplineSet
0 0 m 1x60
 100 0 l 1x60
 100 -100 l 1xa0
 200 -100 l 1
 200 -200 l 1
 100 -200 l 1x90
 100 -100 l 1xa0
 0 -100 l 1
 0 0 l 1x60
EndSplineSet
Validated: 5
EndChar

StartChar: lslash
Encoding: 212 322 212
Width: 400
GlyphClass: 2
Flags: W
HStem: 0 100<0 100 200 300> 400 100<0 100> 500 100<200 300> 800 100<0 100>
VStem: 0 100<400 500> 0 200<800 900> 100 100<100 800> 200 100<500 600>
LayerCount: 2
Fore
SplineSet
200 600 m 1xb2
 300 600 l 1
 300 500 l 1xb1
 200 500 l 1
 200 600 l 1xb2
0 500 m 1xd8
 100 500 l 1
 100 400 l 1
 0 400 l 1
 0 500 l 1xd8
EndSplineSet
Refer: 48 108 N 1 0 0 1 0 0 2
Validated: 5
AlternateSubs2: "'aalt' Access All Alternates lookup 0 subtable" lslash.sc
EndChar

StartChar: lcaron
Encoding: 213 318 213
Width: 600
GlyphClass: 2
Flags: W
HStem: 0 100<0 100 200 300> 600 100<300 400> 700 200<400 500> 800 100<0 100>
VStem: 0 200<800 900> 100 100<100 800> 300 100<600 700> 400 100<700 900>
LayerCount: 2
Fore
SplineSet
400 900 m 1xa1
 500 900 l 1
 500 700 l 1xa1
 400 700 l 1
 400 600 l 1
 300 600 l 1
 300 700 l 1
 400 700 l 1xc2
 400 900 l 1xa1
EndSplineSet
Refer: 48 108 N 1 0 0 1 0 0 2
Validated: 5
AlternateSubs2: "'aalt' Access All Alternates lookup 0 subtable" lcaron.sc
EndChar

StartChar: sacute
Encoding: 214 347 214
Width: 500
GlyphClass: 2
Flags: W
HStem: 0 100<100 300> 100 100<300 400> 200 100<200 300> 300 100<100 200> 400 100<0 100> 500 100<100 300> 700 100<200 300> 800 100<300 400>
VStem: 0 100<100 200 400 500> 100 100<300 400> 200 100<200 300 700 800> 300 100<100 200 400 500 800 900>
LayerCount: 2
Fore
SplineSet
300 900 m 1x0110
 400 900 l 1
 400 800 l 1x0110
 300 800 l 1x0220
 300 900 l 1x0110
200 700 m 1x0220
 200 800 l 1
 300 800 l 1
 300 700 l 1
 200 700 l 1x0220
EndSplineSet
Refer: 55 115 N 1 0 0 1 0 0 2
Validated: 5
AlternateSubs2: "'aalt' Access All Alternates lookup 0 subtable" sacute.sc
EndChar

StartChar: caron
Encoding: 215 711 215
Width: 400
GlyphClass: 2
Flags: W
HStem: 600 100<100 200> 700 100<0 100 200 300>
VStem: 0 100<700 800> 100 100<600 700> 200 100<700 800>
LayerCount: 2
Fore
SplineSet
200 800 m 1x48
 300 800 l 1
 300 700 l 1x48
 200 700 l 1x90
 200 800 l 1x48
0 800 m 1x60
 100 800 l 1x60
 100 700 l 1xa0
 200 700 l 1
 200 600 l 1
 100 600 l 1x90
 100 700 l 1xa0
 0 700 l 1
 0 800 l 1x60
EndSplineSet
Validated: 5
EndChar

StartChar: scaron
Encoding: 216 353 216
Width: 500
GlyphClass: 2
Flags: W
HStem: 0 100<100 300> 100 100<300 400> 200 100<200 300> 300 100<100 200> 400 100<0 100> 500 100<100 300> 700 100<200 300> 800 100<100 200 300 400>
VStem: 0 100<100 200 400 500> 100 100<300 400 800 900> 200 100<200 300 700 800> 300 100<100 200 400 500 800 900>
LayerCount: 2
Fore
SplineSet
300 900 m 1x0110
 400 900 l 1
 400 800 l 1x0110
 300 800 l 1x0220
 300 900 l 1x0110
100 900 m 1x0140
 200 900 l 1x0140
 200 800 l 1x0240
 100 800 l 1
 100 900 l 1x0140
300 800 m 1x0220
 300 700 l 1
 200 700 l 1x0220
 200 800 l 1x0240
 300 800 l 1x0220
EndSplineSet
Refer: 55 115 N 1 0 0 1 0 0 2
Validated: 5
AlternateSubs2: "'aalt' Access All Alternates lookup 0 subtable" scaron.sc
EndChar

StartChar: scedilla
Encoding: 217 351 217
Width: 500
GlyphClass: 2
Flags: W
HStem: -200 100<100 200> -100 100<200 300> 0 100<100 300> 100 100<300 400> 200 100<200 300> 300 100<100 200> 400 100<0 100> 500 100<100 300>
VStem: 0 100<100 200 400 500> 100 100<-200 -100 300 400> 200 100<-100 0 200 300> 300 100<100 200 400 500>
LayerCount: 2
Fore
SplineSet
200 0 m 1x4020
 300 0 l 1
 300 -100 l 1x4020
 200 -100 l 1
 200 -200 l 1
 100 -200 l 1
 100 -100 l 1
 200 -100 l 1x8040
 200 0 l 1x4020
EndSplineSet
Refer: 55 115 N 1 0 0 1 0 0 2
Validated: 5
AlternateSubs2: "'aalt' Access All Alternates lookup 0 subtable" scedilla.sc
EndChar

StartChar: tcaron
Encoding: 218 357 218
Width: 500
GlyphClass: 2
Flags: W
HStem: 0 100<200 300> 0 200<300 400> 500 100<0 100 200 400> 600 100<398 498> 700 200<498 598>
VStem: 100 100<100 500 600 700> 200 200<0 100> 300 100<100 200> 398 100<600 700> 498 100<700 900>
LayerCount: 2
Fore
SplineSet
498 900 m 5x0840
 598 900 l 5
 598 700 l 5x0840
 498 700 l 5
 498 600 l 5x1080
 398 600 l 5x2080
 398 700 l 5
 498 700 l 5x1080
 498 900 l 5x0840
EndSplineSet
Refer: 56 116 N 1 0 0 1 0 0 2
Validated: 5
AlternateSubs2: "'aalt' Access All Alternates lookup 0 subtable" tcaron.sc
EndChar

StartChar: zacute
Encoding: 219 378 219
Width: 550
GlyphClass: 2
Flags: W
HStem: 0 100<125 325> 0 200<25 125 325 425> 200 100<125 225> 300 100<225 325> 400 200<25 125 325 425> 500 100<125 325> 700 100<125 225> 800 100<225 325>
VStem: 25 100<100 200 400 500> 125 100<200 300 700 800> 225 100<300 400 800 900> 325 100<100 200 400 500>
LayerCount: 2
Fore
SplineSet
225 900 m 1x0120
 325 900 l 1
 325 800 l 1x0120
 225 800 l 1x0240
 225 900 l 1x0120
225 800 m 1x0240
 225 700 l 1
 125 700 l 1
 125 800 l 1
 225 800 l 1x0240
EndSplineSet
Refer: 62 122 N 1 0 0 1 0 0 2
Validated: 5
AlternateSubs2: "'aalt' Access All Alternates lookup 0 subtable" zacute.sc
EndChar

StartChar: hungarumlaut
Encoding: 220 733 220
Width: 600
GlyphClass: 2
Flags: W
HStem: 600 100<0 100 300 400> 700 100<100 200 400 500>
VStem: 0 100<600 700> 100 100<700 800> 300 100<600 700> 400 100<700 800>
LayerCount: 2
Fore
SplineSet
400 800 m 1x44
 500 800 l 1
 500 700 l 1x44
 400 700 l 1x88
 400 800 l 1x44
100 800 m 1x50
 200 800 l 1
 200 700 l 1x50
 100 700 l 1
 100 600 l 1
 0 600 l 1
 0 700 l 1
 100 700 l 1xa0
 100 800 l 1x50
400 700 m 1x88
 400 600 l 1
 300 600 l 1
 300 700 l 1
 400 700 l 1x88
EndSplineSet
Validated: 5
EndChar

StartChar: zcaron
Encoding: 221 382 221
Width: 550
GlyphClass: 2
Flags: W
HStem: 0 100<125 325> 0 200<25 125 325 425> 200 100<125 225> 300 100<225 325> 400 200<25 125 325 425> 500 100<125 325> 700 100<225 325> 800 100<125 225 325 425>
VStem: 25 100<100 200 400 500> 125 100<200 300 800 900> 225 100<300 400 700 800> 325 100<100 200 400 500 800 900>
LayerCount: 2
Fore
SplineSet
325 900 m 1x0110
 425 900 l 1
 425 800 l 1x0110
 325 800 l 1x0220
 325 900 l 1x0110
125 900 m 1x0140
 225 900 l 1x0140
 225 800 l 1x0240
 325 800 l 1
 325 700 l 1
 225 700 l 1x0220
 225 800 l 1x0240
 125 800 l 1
 125 900 l 1x0140
EndSplineSet
Refer: 62 122 N 1 0 0 1 0 0 2
Validated: 5
AlternateSubs2: "'aalt' Access All Alternates lookup 0 subtable" zcaron.sc
EndChar

StartChar: zdotaccent
Encoding: 222 380 222
Width: 550
GlyphClass: 2
Flags: W
HStem: 0 100<125 325> 0 200<25 125 325 425> 200 100<125 225> 300 100<225 325> 400 200<25 125 325 425> 500 100<125 325> 700 100<225 325>
VStem: 25 100<100 200 400 500> 125 100<200 300> 225 100<300 400 700 800> 325 100<100 200 400 500>
LayerCount: 2
Fore
SplineSet
225 800 m 1x0240
 325 800 l 1
 325 700 l 1
 225 700 l 1
 225 800 l 1x0240
EndSplineSet
Refer: 62 122 N 1 0 0 1 0 0 2
Validated: 5
AlternateSubs2: "'aalt' Access All Alternates lookup 0 subtable" zdotaccent.sc
EndChar

StartChar: Racute
Encoding: 223 340 223
Width: 675
GlyphClass: 2
Flags: W
HStem: 0 100<0 100 200 300 500 600> 0 200<400 500> 200 200<300 400> 300 100<200 300> 700 100<0 100 200 400> 900 100<200 300> 1000 100<300 400>
VStem: 100 100<100 300 400 700> 200 100<900 1000> 300 100<200 300 1000 1100> 400 100<100 200 400 700> 400 200<0 100>
LayerCount: 2
Fore
SplineSet
300 1100 m 1x0a40
 400 1100 l 1
 400 1000 l 1x0a40
 300 1000 l 1x0c80
 300 1100 l 1x0a40
300 1000 m 1x0c80
 300 900 l 1
 200 900 l 1
 200 1000 l 1
 300 1000 l 1x0c80
EndSplineSet
Refer: 17 82 N 1 0 0 1 0 0 2
Validated: 5
AlternateSubs2: "'aalt' Access All Alternates lookup 0 subtable" racute.sc
EndChar

StartChar: Abreve
Encoding: 224 258 224
Width: 775
VWidth: -31072
GlyphClass: 2
Flags: W
HStem: 0 100<0 100 200 300 400 500 600 700> 0 300<100 200 500 600> 300 100<300 400> 300 300<200 300 400 500> 600 200<300 400> 900 100<200 500> 1000 100<100 200 500 600>
VStem: 100 100<100 300 1000 1100> 200 100<400 600> 400 100<400 600> 500 100<100 300 1000 1100>
LayerCount: 2
Fore
SplineSet
500 1100 m 1x0220
 600 1100 l 1
 600 1000 l 1x0220
 500 1000 l 1x0420
 500 1100 l 1x0220
100 1100 m 1x03
 200 1100 l 1x03
 200 1000 l 1x05
 100 1000 l 1
 100 1100 l 1x03
500 1000 m 1x0520
 500 900 l 1
 200 900 l 1x04a0
 200 1000 l 1
 500 1000 l 1x0520
EndSplineSet
Refer: 0 65 N 1 0 0 1 0 0 2
Validated: 5
AlternateSubs2: "'aalt' Access All Alternates lookup 0 subtable" abreve.sc
EndChar

StartChar: Lacute
Encoding: 225 313 225
Width: 600
GlyphClass: 2
Flags: W
HStem: 0 100<0 100 200 400> 0 200<400 500> 700 100<0 100 200 300> 900 100<100 200> 1000 100<200 300>
VStem: 100 100<100 700 900 1000> 200 100<1000 1100> 400 100<100 200>
LayerCount: 2
Fore
SplineSet
200 1100 m 1x2b
 300 1100 l 1
 300 1000 l 1x2b
 200 1000 l 1x35
 200 1100 l 1x2b
200 1000 m 1x35
 200 900 l 1
 100 900 l 1
 100 1000 l 1
 200 1000 l 1x35
EndSplineSet
Refer: 11 76 N 1 0 0 1 0 0 2
Validated: 5
AlternateSubs2: "'aalt' Access All Alternates lookup 0 subtable" lacute.sc
EndChar

StartChar: Cacute
Encoding: 226 262 226
Width: 600
GlyphClass: 2
Flags: W
HStem: 0 100<200 400> 100 100<100 200 400 500> 580 20G<0 100> 600 100<100 200> 700 100<200 400> 900 100<300 400> 1000 100<400 500>
VStem: 0 100<200 600> 100 100<100 200 600 700> 200 200<0 100> 300 100<900 1000> 400 100<100 200 600 700 1000 1100>
LayerCount: 2
Fore
SplineSet
400 1100 m 1x0210
 500 1100 l 1
 500 1000 l 1x0210
 400 1000 l 1x0420
 400 1100 l 1x0210
400 1000 m 1x0420
 400 900 l 1
 300 900 l 1
 300 1000 l 1
 400 1000 l 1x0420
EndSplineSet
Refer: 2 67 N 1 0 0 1 0 0 2
Validated: 5
AlternateSubs2: "'aalt' Access All Alternates lookup 0 subtable" cacute.sc
EndChar

StartChar: Ccaron
Encoding: 227 268 227
Width: 600
GlyphClass: 2
Flags: W
HStem: 0 100<200 400> 100 100<100 200 400 500> 580 20G<0 100> 600 100<100 200> 700 100<200 400> 900 100<300 400> 1000 100<200 300 400 500>
VStem: 0 100<200 600> 100 100<100 200 600 700> 200 100<1000 1100> 200 200<0 100> 300 100<900 1000> 400 100<100 200 600 700 1000 1100>
LayerCount: 2
Fore
SplineSet
400 1100 m 1x0208
 500 1100 l 1
 500 1000 l 1x0208
 400 1000 l 1x0410
 400 1100 l 1x0208
200 1100 m 1x0240
 300 1100 l 1x0240
 300 1000 l 1x0440
 200 1000 l 1
 200 1100 l 1x0240
400 1000 m 1x0410
 400 900 l 1
 300 900 l 1x0410
 300 1000 l 1x0440
 400 1000 l 1x0410
EndSplineSet
Refer: 2 67 N 1 0 0 1 0 0 2
Validated: 5
AlternateSubs2: "'aalt' Access All Alternates lookup 0 subtable" ccaron.sc
EndChar

StartChar: Eogonek
Encoding: 228 280 228
Width: 600
GlyphClass: 2
Flags: W
HStem: -200 100<400 500> -100 100<300 400> 0 100<0 100 200 400> 0 200<400 500> 300 200<300 400> 400 100<200 300> 600 200<400 500> 700 100<0 100 200 400>
VStem: 100 100<100 400 500 700> 300 100<-100 0 300 400> 400 100<-200 -100 100 200 600 700>
LayerCount: 2
Fore
SplineSet
300 0 m 1x40c0
 400 0 l 1x40c0
 400 -100 l 1x80c0
 500 -100 l 1
 500 -200 l 1
 400 -200 l 1x80a0
 400 -100 l 1x80c0
 300 -100 l 1
 300 0 l 1x40c0
EndSplineSet
Refer: 4 69 N 1 0 0 1 0 0 2
Validated: 5
AlternateSubs2: "'aalt' Access All Alternates lookup 0 subtable" eogonek.sc
EndChar

StartChar: Ecaron
Encoding: 229 282 229
Width: 600
GlyphClass: 2
Flags: W
HStem: 0 100<0 100 200 400> 0 200<400 500> 300 200<300 400> 400 100<200 300> 600 200<400 500> 700 100<0 100 200 400> 900 100<200 300> 1000 100<100 200 300 400>
VStem: 100 100<100 400 500 700 1000 1100> 200 100<900 1000> 300 100<300 400 1000 1100> 400 100<100 200 600 700>
LayerCount: 2
Fore
SplineSet
300 1100 m 1x0120
 400 1100 l 1
 400 1000 l 1x0120
 300 1000 l 1x0240
 300 1100 l 1x0120
100 1100 m 1x0180
 200 1100 l 1x0180
 200 1000 l 1x0280
 100 1000 l 1
 100 1100 l 1x0180
300 1000 m 1x0240
 300 900 l 1
 200 900 l 1x0240
 200 1000 l 1x0280
 300 1000 l 1x0240
EndSplineSet
Refer: 4 69 N 1 0 0 1 0 0 2
Validated: 5
AlternateSubs2: "'aalt' Access All Alternates lookup 0 subtable" ecaron.sc
EndChar

StartChar: Dcaron
Encoding: 230 270 230
Width: 700
GlyphClass: 2
Flags: W
HStem: 0 100<0 100 200 400> 100 100<400 500> 600 100<400 500> 700 100<0 100 200 400> 900 100<200 300> 1000 100<100 200 300 400>
VStem: 100 100<100 700 1000 1100> 200 100<900 1000> 300 100<1000 1100> 400 100<100 200 600 700> 500 100<200 600>
LayerCount: 2
Fore
SplineSet
300 1100 m 1x0480
 400 1100 l 1
 400 1000 l 1x0480
 300 1000 l 1x09
 300 1100 l 1x0480
100 1100 m 1x06
 200 1100 l 1x06
 200 1000 l 1x0a
 300 1000 l 1
 300 900 l 1
 200 900 l 1x09
 200 1000 l 1x0a
 100 1000 l 1
 100 1100 l 1x06
EndSplineSet
Refer: 3 68 N 1 0 0 1 0 0 2
Validated: 5
AlternateSubs2: "'aalt' Access All Alternates lookup 0 subtable" dcaron.sc
EndChar

StartChar: Dcroat
Encoding: 231 272 231
Width: 700
GlyphClass: 2
Flags: W
HStem: 0 100<0 100 200 400> 100 100<400 500> 400 100<0 100 200 300> 600 100<400 500> 700 100<0 100 200 400>
VStem: 0 100<400 500> 100 100<100 700> 200 100<400 500> 400 100<100 200 600 700> 500 100<200 600>
LayerCount: 2
Fore
SplineSet
200 500 m 1x22
 300 500 l 1
 300 400 l 1x21
 200 400 l 1
 200 500 l 1x22
0 500 m 1x24
 100 500 l 1
 100 400 l 1
 0 400 l 1
 0 500 l 1x24
EndSplineSet
Refer: 3 68 N 1 0 0 1 0 0 2
Validated: 5
AlternateSubs2: "'aalt' Access All Alternates lookup 0 subtable" dcroat.sc
EndChar

StartChar: circumflex
Encoding: 234 710 234
Width: 400
GlyphClass: 2
Flags: W
HStem: 600 100<0 100 200 300> 700 100<100 200>
VStem: 0 100<600 700> 100 100<700 800> 200 100<600 700>
LayerCount: 2
Fore
SplineSet
100 800 m 1x50
 200 800 l 1x50
 200 700 l 1x90
 100 700 l 1xa0
 100 800 l 1x50
100 700 m 1xa0
 100 600 l 1
 0 600 l 1
 0 700 l 1
 100 700 l 1xa0
200 700 m 1x90
 300 700 l 1
 300 600 l 1
 200 600 l 1x88
 200 700 l 1x90
EndSplineSet
Validated: 5
EndChar

StartChar: Uring
Encoding: 238 366 238
Width: 775
GlyphClass: 2
Flags: W
HStem: 0 100<200 500> 700 100<0 100 200 300 400 500 600 700> 900 100<300 400> 1000 100<200 300 400 500> 1100 100<300 400>
VStem: 100 100<100 700> 200 100<1000 1100> 300 100<900 1000 1100 1200> 400 100<1000 1100> 500 100<100 700>
LayerCount: 2
Fore
SplineSet
300 1200 m 1xc9
 400 1200 l 1xc9
 400 1100 l 1xd1
 500 1100 l 1
 500 1000 l 1xd080
 400 1000 l 1xe1
 400 1100 l 1xd1
 300 1100 l 1xd2
 300 1200 l 1xc9
400 1000 m 1xe1
 400 900 l 1
 300 900 l 1xe1
 300 1000 l 1xe2
 200 1000 l 1
 200 1100 l 1
 300 1100 l 1xd2
 300 1000 l 1xe2
 400 1000 l 1xe1
EndSplineSet
Refer: 20 85 N 1 0 0 1 0 0 2
Validated: 5
AlternateSubs2: "'aalt' Access All Alternates lookup 0 subtable" uring.sc
EndChar

StartChar: dotaccent
Encoding: 245 729 245
Width: 200
GlyphClass: 2
Flags: W
HStem: 600 100<0 100>
VStem: 0 100<600 700>
LayerCount: 2
Fore
SplineSet
0 700 m 1
 100 700 l 1
 100 600 l 1
 0 600 l 1
 0 700 l 1
EndSplineSet
Validated: 1
EndChar

StartChar: dcaron
Encoding: 247 271 247
Width: 800
GlyphClass: 2
Flags: W
HStem: 0 100<100 200 400 500> 100 100<200 300> 500 100<100 300> 600 100<500 600> 700 200<600 700> 800 100<200 300>
VStem: 0 100<100 500> 100 100<0 100> 200 200<100 200 800 900> 300 100<200 500 600 800> 300 200<0 100> 500 100<600 700> 600 100<700 900>
LayerCount: 2
Fore
SplineSet
600 900 m 1x0808
 700 900 l 1
 700 700 l 1x0808
 600 700 l 1
 600 600 l 1
 500 600 l 1
 500 700 l 1
 600 700 l 1x1010
 600 900 l 1x0808
EndSplineSet
Refer: 40 100 N 1 0 0 1 0 0 2
Validated: 5
AlternateSubs2: "'aalt' Access All Alternates lookup 0 subtable" dcaron.sc
EndChar

StartChar: dcroat
Encoding: 251 273 251
Width: 600
GlyphClass: 2
Flags: W
HStem: 0 100<100 200 400 500> 100 100<200 300> 500 100<100 300> 700 100<100 300 400 500> 880 20G<300 400>
VStem: 0 100<100 500> 100 100<0 100> 200 200<100 200> 300 200<0 100> 300 100<200 500 600 700 800 900>
LayerCount: 2
Fore
SplineSet
300 900 m 1x7a40
 400 900 l 1
 400 800 l 1x7a40
 500 800 l 1
 500 700 l 1x7880
 400 700 l 1x7840
 400 100 l 1xb9
 500 100 l 1
 500 0 l 1
 300 0 l 1xb880
 300 100 l 1x7880
 200 100 l 1xba80
 200 200 l 1x79
 300 200 l 1
 300 500 l 1
 100 500 l 1x7c40
 100 600 l 1
 300 600 l 1
 300 700 l 1
 100 700 l 1
 100 800 l 1
 300 800 l 1
 300 900 l 1x7a40
100 500 m 1x7c
 100 100 l 1xbc
 0 100 l 1
 0 500 l 1
 100 500 l 1x7c
100 100 m 1
 200 100 l 1
 200 0 l 1
 100 0 l 1xba
 100 100 l 1
EndSplineSet
Validated: 5
AlternateSubs2: "'aalt' Access All Alternates lookup 0 subtable" dcroat.sc
EndChar

StartChar: amacron
Encoding: 261 257 261
Width: 525
GlyphClass: 2
Flags: W
HStem: 0 100<125 325> 100 100<25 125> 200 100<125 225> 400 100<25 125> 500 100<125 325> 700 100<26 426>
VStem: 25 100<100 200 400 500> 125 100<200 300> 125 200<500 600> 225 200<300 400> 325 100<100 300 400 500>
LayerCount: 2
Fore
SplineSet
426 700 m 5x04
 26 700 l 1
 26 800 l 1
 426 800 l 5
 426 700 l 5x04
EndSplineSet
Refer: 36 97 N 1 0 0 1 0 0 2
AlternateSubs2: "'aalt' Access All Alternates lookup 0 subtable" amacron.sc
EndChar

StartChar: Idotaccent
Encoding: 266 304 266
Width: 400
GlyphClass: 2
Flags: W
HStem: 0 100<0 100 200 300> 700 100<0 100 200 300> 900 100<100 200>
VStem: 0 300<0 100 700 800> 100 100<900 1000>
LayerCount: 2
Fore
SplineSet
100 1000 m 1xe8
 200 1000 l 1
 200 900 l 1
 100 900 l 1
 100 1000 l 1xe8
EndSplineSet
Refer: 8 73 N 1 0 0 1 0 0 2
Validated: 1
EndChar

StartChar: hbar
Encoding: 269 295 269
Width: 700
GlyphClass: 2
Flags: W
HStem: 0 100<0 100 200 300 500 600> 500 100<300 400> 700 100<0 100 200 400> 880 20G<100 200>
VStem: 100 200<400 500> 100 100<100 400 500 700 800 900> 300 200<500 600> 400 200<0 100> 400 100<100 500>
LayerCount: 2
Fore
SplineSet
100 900 m 1xf6
 200 900 l 1
 200 800 l 1
 400 800 l 1
 400 700 l 1
 200 700 l 1
 200 500 l 1xf480
 300 500 l 1
 300 400 l 1xf8
 200 400 l 1
 200 100 l 1
 300 100 l 1
 300 0 l 1
 0 0 l 1
 0 100 l 1
 100 100 l 1
 100 700 l 1
 0 700 l 1
 0 800 l 1
 100 800 l 1
 100 900 l 1xf6
300 600 m 1xf2
 500 600 l 1xf2
 500 100 l 1xf080
 600 100 l 1
 600 0 l 1
 400 0 l 1xf1
 400 500 l 1
 300 500 l 1xf880
 300 600 l 1xf2
EndSplineSet
Validated: 5
AlternateSubs2: "'aalt' Access All Alternates lookup 0 subtable" hbar.sc
EndChar

StartChar: dotlessi
Encoding: 271 305 271
Width: 400
GlyphClass: 2
Flags: W
HStem: 0 100<0 100 200 300> 500 100<0 100>
VStem: 0 200<500 600> 100 100<100 500>
LayerCount: 2
Fore
SplineSet
200 100 m 1xd0
 300 100 l 1
 300 0 l 1
 0 0 l 1
 0 100 l 1xe0
 100 100 l 1
 100 500 l 1xd0
 0 500 l 1
 0 600 l 1
 200 600 l 1xe0
 200 100 l 1xd0
EndSplineSet
Validated: 1
EndChar

StartChar: jcircumflex
Encoding: 273 309 273
Width: 300
GlyphClass: 2
Flags: W
HStem: -300 200<-100 0> -300 100<0 100> 500 100<0 100> 700 100<0 100 200 300> 800 100<100 200>
VStem: -100 200<-300 -200> -100 100<-200 -100> 0 100<700 800> 0 200<500 600> 100 100<-200 500 800 900> 200 100<700 800>
LayerCount: 2
Fore
SplineSet
100 500 m 1x6040
 0 500 l 1
 0 600 l 1
 200 600 l 1x6080
 200 -200 l 1x6040
 100 -200 l 1
 100 -300 l 1x64
 -100 -300 l 1xa4
 -100 -200 l 1x64
 -100 -100 l 1
 0 -100 l 1xa2
 0 -200 l 1x62
 100 -200 l 1x64
 100 500 l 1x6040
EndSplineSet
Refer: 234 710 S 1 0 0 1 0 100 2
Validated: 5
AlternateSubs2: "'aalt' Access All Alternates lookup 0 subtable" jcircumflex.sc
EndChar

StartChar: Ubreve
Encoding: 276 364 276
Width: 775
GlyphClass: 2
Flags: W
HStem: 0 100<200 500> 700 100<0 100 200 300 400 500 600 700> 900 100<200 500> 1000 100<100 200 500 600>
VStem: 100 100<100 700 1000 1100> 500 100<100 700 1000 1100>
LayerCount: 2
Fore
SplineSet
500 1100 m 1xdc
 600 1100 l 1
 600 1000 l 1xdc
 500 1000 l 1xec
 500 1100 l 1xdc
100 1100 m 1
 200 1100 l 1xdc
 200 1000 l 1
 500 1000 l 1
 500 900 l 1
 200 900 l 1
 200 1000 l 1xec
 100 1000 l 1
 100 1100 l 1
EndSplineSet
Refer: 20 85 N 1 0 0 1 0 0 2
Validated: 5
AlternateSubs2: "'aalt' Access All Alternates lookup 0 subtable" ubreve.sc
EndChar

StartChar: oe
Encoding: 282 339 282
Width: 800
GlyphClass: 2
Flags: W
HStem: 0 100<100 300 400 600> 100 100<600 700> 300 100<400 600> 400 100<600 700> 500 100<100 300 400 600>
VStem: 0 100<100 500> 100 200<0 100 500 600> 300 100<100 300 400 500> 400 200<0 100 500 600> 600 100<100 200 400 500>
LayerCount: 2
Fore
SplineSet
600 200 m 1x4040
 700 200 l 1
 700 100 l 1x4040
 600 100 l 1x8080
 600 200 l 1x4040
400 600 m 1xa880
 600 600 l 1xa880
 600 500 l 1x1080
 700 500 l 1
 700 400 l 1x1040
 600 400 l 1
 600 300 l 1
 400 300 l 1
 400 100 l 1xa140
 600 100 l 1
 600 0 l 1
 400 0 l 1xa080
 400 100 l 1xa1
 300 100 l 1
 300 500 l 1xaa
 400 500 l 1xa9
 400 600 l 1xa880
100 600 m 1x0a
 300 600 l 1
 300 500 l 1x0a
 100 500 l 1x0c
 100 600 l 1x0a
0 100 m 1x44
 0 500 l 1
 100 500 l 1
 100 100 l 1x8c
 0 100 l 1x44
600 400 m 1x2940
 600 500 l 1x1080
 400 500 l 1
 400 400 l 1
 600 400 l 1x2940
300 100 m 1x82
 300 0 l 1
 100 0 l 1x82
 100 100 l 1x84
 300 100 l 1x82
EndSplineSet
Validated: 5
AlternateSubs2: "'aalt' Access All Alternates lookup 0 subtable" oe.sc
EndChar

StartChar: OE
Encoding: 283 338 283
Width: 1000
GlyphClass: 2
Flags: W
HStem: 0 100<200 400 600 800> 100 100<100 200 400 500> 300 200<700 800> 400 100<600 700> 600 100<100 200 400 500> 700 100<200 400 600 800>
VStem: 0 100<200 600> 100 100<100 200 600 700> 200 200<0 100 700 800> 400 200<100 200 600 700> 500 100<200 400 500 600> 700 100<300 400> 800 100<100 200 600 700>
LayerCount: 2
Fore
SplineSet
800 200 m 1x4048
 900 200 l 1x4048
 900 0 l 1
 500 0 l 1x8028
 500 100 l 1x4028
 400 100 l 1x80a8
 400 200 l 1x4040
 500 200 l 1
 500 600 l 1x4820
 400 600 l 1x4840
 400 700 l 1
 500 700 l 1x48a0
 500 800 l 1
 900 800 l 1x04a8
 900 600 l 1
 800 600 l 1x08a8
 800 700 l 1
 600 700 l 1x0448
 600 500 l 1x1420
 800 500 l 1x2028
 800 300 l 1
 700 300 l 1x2010
 700 400 l 1
 600 400 l 1x1030
 600 100 l 1
 800 100 l 1x9048
 800 200 l 1x4048
200 800 m 1x0480
 400 800 l 1x0480
 400 700 l 1x0880
 200 700 l 1x09
 200 800 l 1x0480
0 200 m 1x4a
 0 600 l 1
 100 600 l 1x4a
 100 700 l 1
 200 700 l 1
 200 600 l 1x49
 100 600 l 1
 100 200 l 1
 0 200 l 1x4a
400 100 m 1x8080
 400 0 l 1
 200 0 l 1x8080
 200 100 l 1x81
 400 100 l 1x8080
200 100 m 1x81
 100 100 l 1x41
 100 200 l 1x42
 200 200 l 1x41
 200 100 l 1x81
EndSplineSet
Validated: 5
AlternateSubs2: "'aalt' Access All Alternates lookup 0 subtable" oe.sc
EndChar

StartChar: Euro
Encoding: 284 8364 284
Width: 700
GlyphClass: 2
Flags: W
HStem: 0 100<300 500> 100 100<200 300 500 600> 300 100<0 100 200 400> 500 200<200 300> 500 100<0 100 300 400> 600 200<500 600> 700 100<300 500>
VStem: 100 100<200 300 400 500> 200 100<100 200 600 700> 300 200<0 100> 500 100<100 200 600 700>
LayerCount: 2
Fore
SplineSet
500 200 m 1x6020
 600 200 l 1
 600 100 l 1x6020
 500 100 l 1
 500 0 l 1
 300 0 l 1xa040
 300 100 l 1xa080
 500 100 l 1xa040
 500 200 l 1x6020
300 800 m 1x2240
 600 800 l 1
 600 600 l 1
 500 600 l 1x2420
 500 700 l 1x2220
 300 700 l 1x30a0
 300 600 l 1
 400 600 l 1
 400 500 l 1x28a0
 200 500 l 1
 200 400 l 1
 400 400 l 1
 400 300 l 1
 200 300 l 1
 200 200 l 1x71
 300 200 l 1x7080
 300 100 l 1xa080
 200 100 l 1x6080
 200 200 l 1
 100 200 l 1
 100 300 l 1
 0 300 l 1
 0 400 l 1
 100 400 l 1
 100 500 l 1
 0 500 l 1
 0 600 l 1x69
 200 600 l 1x2480
 200 700 l 1
 300 700 l 1x3080
 300 800 l 1x2240
EndSplineSet
Validated: 5
EndChar

StartChar: Itilde
Encoding: 286 296 286
Width: 400
GlyphClass: 2
Flags: W
HStem: 0 100<0 100 200 300> 700 100<0 100 200 300> 900 100<-100 0 200 300> 1000 100<0 100 300 400>
VStem: -100 100<900 1000> 0 300<0 100 700 800> 100 200<900 1000> 300 100<1000 1100>
LayerCount: 2
Fore
SplineSet
0 1100 m 1xd4
 200 1100 l 1xd4
 200 1000 l 1
 300 1000 l 1
 300 900 l 1
 100 900 l 1xe2
 100 1000 l 1xd2
 0 1000 l 1
 0 900 l 1
 -100 900 l 1
 -100 1000 l 1
 0 1000 l 1xea
 0 1100 l 1xd4
300 1100 m 1xd1
 400 1100 l 1
 400 1000 l 1xd1
 300 1000 l 1xe2
 300 1100 l 1xd1
EndSplineSet
Refer: 8 73 S 1 0 0 1 0 0 2
Validated: 5
AlternateSubs2: "'aalt' Access All Alternates lookup 0 subtable" itilde.sc
EndChar

StartChar: Emacron
Encoding: 288 274 288
Width: 600
GlyphClass: 2
Flags: W
HStem: 0 100<0 100 200 400> 0 200<400 500> 300 200<300 400> 400 100<200 300> 600 200<400 500> 700 100<0 100 200 400> 900 100<100 400>
VStem: 100 100<100 400 500 700> 300 100<300 400> 400 100<100 200 600 700>
LayerCount: 2
Fore
SplineSet
100 1000 m 1x0340
 400 1000 l 1
 400 900 l 1
 100 900 l 1
 100 1000 l 1x0340
EndSplineSet
Refer: 4 69 N 1 0 0 1 0 0 2
Validated: 1
AlternateSubs2: "'aalt' Access All Alternates lookup 0 subtable" emacron.sc
EndChar

StartChar: Tbar
Encoding: 290 358 290
Width: 600
GlyphClass: 2
Flags: W
HStem: 0 100<100 200 300 400> 300 100<100 200 300 400> 600 200<0 100 400 500> 700 100<100 200 300 400>
VStem: 0 100<600 700> 100 100<300 400> 200 100<100 700> 300 100<300 400> 400 100<600 700>
LayerCount: 2
Fore
SplineSet
300 400 m 1xc2
 400 400 l 1
 400 300 l 1xc1
 300 300 l 1
 300 400 l 1xc2
100 400 m 1xc4
 200 400 l 1
 200 300 l 1
 100 300 l 1
 100 400 l 1xc4
EndSplineSet
Refer: 19 84 N 1 0 0 1 0 0 2
Validated: 5
AlternateSubs2: "'aalt' Access All Alternates lookup 0 subtable" tbar.sc
EndChar

StartChar: itilde
Encoding: 292 297 292
Width: 400
GlyphClass: 2
Flags: W
HStem: 0 100<0 100 200 300> 400 100<0 100> 580 20G<100 200> 700 100<-100 0 200 300> 800 100<0 100 300 400>
VStem: -100 100<700 800> 0 200<400 500 800 900> 100 200<700 800> 100 100<100 400 500 600> 300 100<800 900>
LayerCount: 2
Fore
SplineSet
200 100 m 1xe080
 300 100 l 1
 300 0 l 1
 0 0 l 1
 0 100 l 1xe240
 100 100 l 1
 100 400 l 1xe080
 0 400 l 1
 0 500 l 1xe2
 100 500 l 1
 100 600 l 1
 200 600 l 1
 200 100 l 1xe080
-100 700 m 1xf4
 -100 800 l 1
 0 800 l 1
 0 700 l 1
 -100 700 l 1xf4
0 900 m 1xea
 200 900 l 1xea
 200 800 l 1xf2
 300 800 l 1
 300 700 l 1
 100 700 l 1xf1
 100 800 l 1xe9
 0 800 l 1xf5
 0 900 l 1xea
300 900 m 1xe840
 400 900 l 1
 400 800 l 1xe840
 300 800 l 1xf1
 300 900 l 1xe840
EndSplineSet
Validated: 5
AlternateSubs2: "'aalt' Access All Alternates lookup 0 subtable" itilde.sc
EndChar

StartChar: emacron
Encoding: 294 275 294
Width: 500
GlyphClass: 2
Flags: W
HStem: 0 100<100 300> 100 100<300 400> 300 100<100 300> 400 200<300 400> 500 100<100 300> 700 100<100 400>
VStem: 0 100<100 300 400 500> 100 200<0 100> 300 100<100 200 400 500>
LayerCount: 2
Fore
SplineSet
100 800 m 1x05
 400 800 l 1
 400 700 l 1x0480
 100 700 l 1
 100 800 l 1x05
EndSplineSet
Refer: 41 101 N 1 0 0 1 0 0 2
Validated: 5
AlternateSubs2: "'aalt' Access All Alternates lookup 0 subtable" emacron.sc
EndChar

StartChar: gcommaaccent
Encoding: 295 291 295
Width: 575
GlyphClass: 2
Flags: W
HStem: -300 100<100 400> -200 100<400 500> -100 100<100 400> 100 100<100 300> 200 300<0 100 300 400> 500 100<100 300 400 500> 700 100<200 300> 800 100<300 400>
VStem: 0 100<-200 -100 0 100 200 500> 100 200<100 200 500 600> 200 100<700 800> 300 100<200 500 800 900> 400 100<-200 -100 500 600>
LayerCount: 2
Fore
SplineSet
300 900 m 1x0110
 400 900 l 1
 400 800 l 1x0110
 300 800 l 1x0220
 300 900 l 1x0110
300 800 m 1x0220
 300 700 l 1
 200 700 l 1
 200 800 l 1
 300 800 l 1x0220
EndSplineSet
Refer: 43 103 N 1 0 0 1 0 0 2
Validated: 5
AlternateSubs2: "'aalt' Access All Alternates lookup 0 subtable" gcommaaccent.sc
EndChar

StartChar: Ebreve
Encoding: 296 276 296
Width: 600
GlyphClass: 2
Flags: W
HStem: 0 100<0 100 200 400> 0 200<400 500> 300 200<300 400> 400 100<200 300> 600 200<400 500> 700 100<0 100 200 400> 900 100<100 400> 1000 100<0 100 400 500>
VStem: 0 100<1000 1100> 100 100<100 400 500 700> 300 100<300 400> 400 100<100 200 600 700 1000 1100>
LayerCount: 2
Fore
SplineSet
400 1100 m 1x0110
 500 1100 l 1
 500 1000 l 1x0110
 400 1000 l 1x0210
 400 1100 l 1x0110
0 1100 m 1x0180
 100 1100 l 1x0180
 100 1000 l 1x0280
 400 1000 l 1
 400 900 l 1
 100 900 l 1x0250
 100 1000 l 1x0280
 0 1000 l 1
 0 1100 l 1x0180
EndSplineSet
Refer: 4 69 S 1 0 0 1 0 0 2
Validated: 5
AlternateSubs2: "'aalt' Access All Alternates lookup 0 subtable" ebreve.sc
EndChar

StartChar: Ibreve
Encoding: 301 300 301
Width: 400
GlyphClass: 2
Flags: W
HStem: 0 100<0 100 200 300> 700 100<0 100 200 300> 900 100<0 300> 1000 100<-100 0 300 400>
VStem: -100 100<1000 1100> 0 300<0 100 700 800> 300 100<1000 1100>
LayerCount: 2
Fore
SplineSet
-100 1100 m 1xd8
 0 1100 l 1xd8
 0 1000 l 1xe8
 -100 1000 l 1
 -100 1100 l 1xd8
300 1100 m 1xd2
 400 1100 l 1
 400 1000 l 1xd2
 300 1000 l 1xe2
 300 1100 l 1xd2
0 1000 m 1xe8
 300 1000 l 1
 300 900 l 1xea
 0 900 l 1xe4
 0 1000 l 1xe8
EndSplineSet
Refer: 8 73 S 1 0 0 1 0 0 2
Validated: 5
AlternateSubs2: "'aalt' Access All Alternates lookup 0 subtable" ibreve.sc
EndChar

StartChar: imacron
Encoding: 303 299 303
Width: 400
GlyphClass: 2
Flags: W
HStem: 0 100<0 100 200 300> 400 100<0 100> 580 20G<100 200> 700 100<0 300>
VStem: 0 300<0 100 700 800> 0 200<400 500> 100 100<100 400 500 600>
LayerCount: 2
Fore
SplineSet
300 700 m 1xf8
 0 700 l 1
 0 800 l 1
 300 800 l 1
 300 700 l 1xf8
200 100 m 1xf2
 300 100 l 1
 300 0 l 1
 0 0 l 1
 0 100 l 1xf8
 100 100 l 1
 100 400 l 1xf2
 0 400 l 1
 0 500 l 1xf4
 100 500 l 1
 100 600 l 1
 200 600 l 1
 200 100 l 1xf2
EndSplineSet
Validated: 1
AlternateSubs2: "'aalt' Access All Alternates lookup 0 subtable" imacron.sc
EndChar

StartChar: ibreve
Encoding: 304 301 304
Width: 400
GlyphClass: 2
Flags: W
HStem: 0 100<0 100 200 300> 400 100<0 100> 580 20G<100 200> 700 100<100 300> 800 100<0 100 300 400>
VStem: 0 100<800 900> 0 200<400 500> 100 100<100 400 500 600> 100 200<700 800> 300 100<800 900>
LayerCount: 2
Fore
SplineSet
200 100 m 1xe1
 300 100 l 1
 300 0 l 1
 0 0 l 1
 0 100 l 1xe240
 100 100 l 1
 100 400 l 1xe1
 0 400 l 1
 0 500 l 1xe2
 100 500 l 1
 100 600 l 1
 200 600 l 1
 200 100 l 1xe1
EndSplineSet
Refer: 200 728 S 1 0 0 1 0 100 2
Validated: 5
AlternateSubs2: "'aalt' Access All Alternates lookup 0 subtable" ibreve.sc
EndChar

StartChar: Hbar
Encoding: 306 294 306
Width: 800
GlyphClass: 2
Flags: W
HStem: 0 100<0 100 200 300 400 500 600 700> 300 100<200 500> 500 100<0 100 200 500 600 700> 700 100<0 100 200 300 400 500 600 700>
VStem: 0 300<0 100 700 800> 100 100<100 300 400 500 600 700> 400 300<0 100 700 800> 500 100<100 300 400 500 600 700>
LayerCount: 2
Fore
SplineSet
200 500 m 1xf5
 200 400 l 1
 500 400 l 1
 500 500 l 1
 200 500 l 1xf5
400 800 m 1xf2
 700 800 l 1
 700 700 l 1xf2
 600 700 l 1
 600 600 l 1xf1
 700 600 l 1
 700 500 l 1xf2
 600 500 l 1
 600 100 l 1xf1
 700 100 l 1
 700 0 l 1
 400 0 l 1
 400 100 l 1xf2
 500 100 l 1
 500 300 l 1
 200 300 l 1
 200 100 l 1xf5
 300 100 l 1
 300 0 l 1
 0 0 l 1
 0 100 l 1xf8
 100 100 l 1
 100 500 l 1xf4
 0 500 l 1
 0 600 l 1xf8
 100 600 l 1
 100 700 l 1xf4
 0 700 l 1
 0 800 l 1
 300 800 l 1
 300 700 l 1xf8
 200 700 l 1
 200 600 l 1
 500 600 l 1
 500 700 l 1xf5
 400 700 l 1
 400 800 l 1xf2
EndSplineSet
Validated: 1
AlternateSubs2: "'aalt' Access All Alternates lookup 0 subtable" hbar.sc
EndChar

StartChar: kgreenlandic
Encoding: 309 312 309
Width: 700
GlyphClass: 2
Flags: W
HStem: 0 100<0 100 400 600> 100 200<300 400> 400 100<300 400> 500 100<0 100 400 600>
VStem: 0 200<0 100 500 600> 100 200<300 400> 100 100<100 300 400 500> 300 100<100 300 400 500> 400 200<0 100 500 600>
LayerCount: 2
Fore
SplineSet
400 600 m 1x1080
 600 600 l 1
 600 500 l 1x1080
 400 500 l 1x21
 400 600 l 1x1080
0 600 m 1x98
 200 600 l 1x98
 200 400 l 1x22
 300 400 l 1x24
 300 500 l 1
 400 500 l 1
 400 400 l 1x21
 300 400 l 1
 300 300 l 1x64
 400 300 l 1x61
 400 100 l 1x81
 600 100 l 1
 600 0 l 1
 400 0 l 1x8080
 400 100 l 1x81
 300 100 l 1x41
 300 300 l 1x44
 200 300 l 1x42
 200 0 l 1
 0 0 l 1
 0 100 l 1x88
 100 100 l 1
 100 500 l 1x92
 0 500 l 1
 0 600 l 1x98
EndSplineSet
Validated: 5
EndChar

StartChar: utilde
Encoding: 310 361 310
Width: 700
GlyphClass: 2
Flags: W
HStem: 0 100<200 300 500 600> 100 100<300 400> 500 100<0 100 300 400> 700 100<0 100 300 400> 800 100<100 200 400 500>
VStem: 0 100<700 800> 0 200<500 600> 100 100<100 500> 200 100<0 100> 300 200<100 200 500 600> 400 100<200 500 800 900> 400 200<0 100>
LayerCount: 2
Fore
SplineSet
400 900 m 1x2820
 500 900 l 1
 500 800 l 1x2820
 400 800 l 1x3020
 400 700 l 1
 200 700 l 1x3090
 200 800 l 1x2890
 100 800 l 1
 100 700 l 1
 0 700 l 1
 0 800 l 1
 100 800 l 1x3490
 100 900 l 1
 300 900 l 1x2940
 300 800 l 1x3140
 400 800 l 1x3020
 400 900 l 1x2820
EndSplineSet
Refer: 57 117 S 1 0 0 1 0 0 2
Validated: 5
AlternateSubs2: "'aalt' Access All Alternates lookup 0 subtable" utilde.sc
EndChar

StartChar: tbar
Encoding: 311 359 311
Width: 500
GlyphClass: 2
Flags: W
HStem: 0 100<200 300> 0 200<300 400> 300 100<-2 98 198 398> 500 100<0 100 200 400>
VStem: -2 100<300 400> 100 100<100 500 600 700> 198 200<300 400> 200 200<0 100> 300 100<100 200>
LayerCount: 2
Fore
SplineSet
198 400 m 1x3a
 398 400 l 1
 398 300 l 1
 198 300 l 1
 198 400 l 1x3a
-2 400 m 1
 98 400 l 1
 98 300 l 1
 -2 300 l 1
 -2 400 l 1
EndSplineSet
Refer: 56 116 N 1 0 0 1 0 0 2
Validated: 5
AlternateSubs2: "'aalt' Access All Alternates lookup 0 subtable" tbar.sc
EndChar

StartChar: Utilde
Encoding: 315 360 315
Width: 775
GlyphClass: 2
Flags: W
HStem: 0 100<200 500> 700 100<0 100 200 300 400 500 600 700> 900 100<100 200 400 500> 1000 100<200 300 500 600>
VStem: 100 100<100 700 900 1000> 300 200<900 1000> 500 100<100 700 1000 1100>
LayerCount: 2
Fore
SplineSet
200 1100 m 1xdc
 400 1100 l 1xdc
 400 1000 l 1
 500 1000 l 1
 500 900 l 1
 300 900 l 1xec
 300 1000 l 1xdc
 200 1000 l 1
 200 900 l 1
 100 900 l 1
 100 1000 l 1
 200 1000 l 1xec
 200 1100 l 1xdc
500 1000 m 1xec
 500 1100 l 1
 600 1100 l 1
 600 1000 l 1xda
 500 1000 l 1xec
EndSplineSet
Refer: 20 85 S 1 0 0 1 0 0 2
Validated: 5
AlternateSubs2: "'aalt' Access All Alternates lookup 0 subtable" utilde.sc
EndChar

StartChar: omacron
Encoding: 318 333 318
Width: 500
GlyphClass: 2
Flags: W
HStem: 0 100<100 300> 500 100<100 300> 700 100<0 400>
VStem: 0 100<100 500> 100 200<0 100 500 600> 300 100<100 500>
LayerCount: 2
Fore
SplineSet
0 800 m 1xf4
 400 800 l 1
 400 700 l 1
 0 700 l 1
 0 800 l 1xf4
EndSplineSet
Refer: 51 111 N 1 0 0 1 0 0 2
Validated: 5
AlternateSubs2: "'aalt' Access All Alternates lookup 0 subtable" omacron.sc
EndChar

StartChar: Eng
Encoding: 319 330 319
Width: 800
GlyphClass: 2
Flags: W
HStem: -200 200<300 400> -200 100<400 500> 0 100<0 100> 300 200<300 400> 500 200<200 300> 700 100<0 100 400 500 600 700>
VStem: 0 200<0 100 700 800> 100 200<500 700> 100 100<100 500> 300 200<-200 -100> 300 100<-100 0 300 500> 400 200<100 300> 500 100<-100 100 300 700>
LayerCount: 2
Fore
SplineSet
300 0 m 1x8020
 400 0 l 1x8020
 400 -100 l 1x4020
 500 -100 l 1
 500 -200 l 1x4040
 300 -200 l 1x8040
 300 0 l 1x8020
400 800 m 1x7410
 700 800 l 1
 700 700 l 1
 600 700 l 1
 600 -100 l 1x7408
 500 -100 l 1x7440
 500 100 l 1x7408
 400 100 l 1x7410
 400 300 l 1
 500 300 l 1
 500 700 l 1x7428
 400 700 l 1
 400 800 l 1x7410
0 800 m 1x26
 200 800 l 1x26
 200 700 l 1x0a
 300 700 l 1x09
 300 500 l 1x11
 400 500 l 1
 400 300 l 1
 300 300 l 1x1020
 300 500 l 1x11
 200 500 l 1x0880
 200 0 l 1
 0 0 l 1
 0 100 l 1x2a
 100 100 l 1x2880
 100 700 l 1x25
 0 700 l 1
 0 800 l 1x26
EndSplineSet
Validated: 5
AlternateSubs2: "'aalt' Access All Alternates lookup 0 subtable" eng.sc
EndChar

StartChar: eng
Encoding: 320 331 320
Width: 600
GlyphClass: 2
Flags: W
HStem: -300 200<200 300> -300 100<300 400> 0 100<0 100 200 300> 500 100<0 100 300 400>
VStem: 0 200<500 600> 100 100<100 400> 200 200<-300 -200> 200 100<-200 -100> 300 200<500 600> 400 100<-200 500>
LayerCount: 2
Fore
SplineSet
200 -100 m 1xb1
 300 -100 l 1xb1
 300 -200 l 1x71
 400 -200 l 1
 400 -300 l 1x72
 200 -300 l 1xb2
 200 -100 l 1xb1
300 600 m 1x7080
 500 600 l 1x7080
 500 -200 l 1x7040
 400 -200 l 1x72
 400 500 l 1x7040
 300 500 l 1
 300 600 l 1x7080
300 500 m 1
 300 400 l 1
 200 400 l 1
 200 100 l 1x3480
 300 100 l 1
 300 0 l 1
 0 0 l 1
 0 100 l 1x3880
 100 100 l 1
 100 500 l 1x34
 0 500 l 1
 0 600 l 1
 200 600 l 1
 200 500 l 1x38
 300 500 l 1
EndSplineSet
Validated: 5
AlternateSubs2: "'aalt' Access All Alternates lookup 0 subtable" eng.sc
EndChar

StartChar: umacron
Encoding: 321 363 321
Width: 700
GlyphClass: 2
Flags: W
HStem: 0 100<200 300 500 600> 100 100<300 400> 500 100<0 100 300 400>
VStem: 0 200<500 600> 100 100<100 500> 200 100<0 100> 300 200<100 200 500 600> 400 100<200 500> 400 200<0 100>
LayerCount: 2
Fore
SplineSet
100 700 m 1x2880
 400 700 l 1
 400 800 l 1
 100 800 l 1
 100 700 l 1x2880
EndSplineSet
Refer: 57 117 N 1 0 0 1 0 0 2
Validated: 5
EndChar

StartChar: uni2015
Encoding: 323 8213 323
Width: 1100
GlyphClass: 2
Flags: W
HStem: 300 100<0 1000>
LayerCount: 2
Fore
SplineSet
0 400 m 1
 1000 400 l 1
 1000 300 l 1
 0 300 l 1
 0 400 l 1
EndSplineSet
EndChar

StartChar: quotedblleft
Encoding: 324 8220 324
Width: 500
GlyphClass: 2
Flags: W
HStem: 600 200<0 100 200 300> 800 100<100 200 300 400>
VStem: 0 100<600 800> 200 100<600 800> 300 100<800 900>
LayerCount: 2
Fore
SplineSet
100 900 m 1x70
 200 900 l 1x70
 200 800 l 1
 300 800 l 1
 300 600 l 1
 200 600 l 1
 200 800 l 1
 100 800 l 1
 100 600 l 1
 0 600 l 1
 0 800 l 1
 100 800 l 1xb0
 100 900 l 1x70
300 900 m 1x68
 400 900 l 1
 400 800 l 1x68
 300 800 l 1xb0
 300 900 l 1x68
EndSplineSet
Validated: 5
EndChar

StartChar: quotedblbase
Encoding: 325 8222 325
Width: 500
GlyphClass: 2
Flags: W
HStem: -100 100<0 100 200 300> 0 200<100 200 300 400>
VStem: 0 100<-100 0> 100 100<0 200> 200 100<-100 0> 300 100<0 200>
LayerCount: 2
Fore
SplineSet
300 200 m 5x44
 400 200 l 5
 400 0 l 5x44
 300 0 l 5
 300 -100 l 5
 200 -100 l 5x88
 200 0 l 5x90
 300 0 l 5x88
 300 200 l 5x44
100 200 m 1x50
 200 200 l 1x50
 200 0 l 1x90
 100 0 l 1
 100 -100 l 1
 0 -100 l 1
 0 0 l 1
 100 0 l 1xa0
 100 200 l 1x50
EndSplineSet
Validated: 5
EndChar

StartChar: quotedblright
Encoding: 326 8221 326
Width: 500
GlyphClass: 2
Flags: W
HStem: 600 100<0 100 200 300> 700 200<100 200 300 400>
VStem: 0 100<600 700> 100 100<700 900> 200 100<600 700> 300 100<700 900>
LayerCount: 2
Fore
SplineSet
100 900 m 5x50
 200 900 l 5x50
 200 700 l 5x90
 100 700 l 5xa0
 100 900 l 5x50
300 900 m 5x44
 400 900 l 5
 400 700 l 5x44
 300 700 l 5x88
 300 900 l 5x44
100 700 m 5xa0
 100 600 l 5
 0 600 l 5
 0 700 l 5
 100 700 l 5xa0
200 700 m 5x90
 300 700 l 5
 300 600 l 5
 200 600 l 5x88
 200 700 l 5x90
EndSplineSet
Validated: 5
EndChar

StartChar: quoteright
Encoding: 327 8217 327
Width: 300
GlyphClass: 2
Flags: W
HStem: 600 100<0 100> 700 200<100 200>
VStem: 0 100<600 700> 100 100<700 900>
LayerCount: 2
Fore
SplineSet
100 900 m 1x50
 200 900 l 1
 200 700 l 1x50
 100 700 l 1
 100 600 l 1
 0 600 l 1
 0 700 l 1
 100 700 l 1xa0
 100 900 l 1x50
EndSplineSet
Validated: 5
EndChar

StartChar: uni1E0B
Encoding: 333 7691 333
Width: 600
GlyphClass: 2
Flags: W
HStem: 0 100<100 200 400 500> 100 100<200 300> 500 100<100 300> 700 100<100 200> 880 20G<300 400>
VStem: 0 100<100 500> 100 100<0 100 700 800> 200 200<100 200> 300 200<0 100> 300 100<200 500 600 900>
LayerCount: 2
Fore
SplineSet
100 800 m 1x3a
 200 800 l 1
 200 700 l 1
 100 700 l 1
 100 800 l 1x3a
0 100 m 1x7c
 0 500 l 1
 100 500 l 1x7c
 100 600 l 1
 300 600 l 1
 300 900 l 1
 400 900 l 1x7a40
 400 100 l 1xb9
 500 100 l 1
 500 0 l 1
 300 0 l 1xb880
 300 100 l 1x7880
 200 100 l 1xba80
 200 200 l 1x79
 300 200 l 1x7840
 300 500 l 1
 100 500 l 1
 100 100 l 1xbc40
 200 100 l 1
 200 0 l 1
 100 0 l 1xba
 100 100 l 1xbc
 0 100 l 1x7c
EndSplineSet
Validated: 5
EndChar

StartChar: wdieresis
Encoding: 345 7813 345
Width: 800
GlyphClass: 2
Flags: W
HStem: 0 200<200 300 400 500> 200 200<300 400> 500 100<0 100 200 300 400 500 600 700> 700 100<200 300 400 500>
VStem: 200 100<0 200 700 800> 300 100<200 400> 400 100<0 200 700 800> 500 100<200 500>
LayerCount: 2
Fore
SplineSet
400 800 m 5x32
 500 800 l 5
 500 700 l 5
 400 700 l 5
 400 800 l 5x32
200 800 m 1x38
 300 800 l 1
 300 700 l 1
 200 700 l 1
 200 800 l 1x38
EndSplineSet
Refer: 59 119 N 1 0 0 1 0 0 2
Validated: 5
EndChar

StartChar: longs
Encoding: 358 383 358
Width: 400
GlyphClass: 2
Flags: W
HStem: 0 100<0 100 200 300> 500 100<0 100> 700 200<300 400> 800 100<200 300>
VStem: 0 200<500 600> 100 100<100 500 600 800> 200 200<800 900> 300 100<700 800>
LayerCount: 2
Fore
SplineSet
200 900 m 1xd2
 400 900 l 1xe2
 400 700 l 1
 300 700 l 1xe1
 300 800 l 1
 200 800 l 1
 200 100 l 1xd5
 300 100 l 1
 300 0 l 1
 0 0 l 1
 0 100 l 1xd9
 100 100 l 1
 100 500 l 1xd4
 0 500 l 1
 0 600 l 1xd8
 100 600 l 1
 100 800 l 1
 200 800 l 1xd4
 200 900 l 1xd2
EndSplineSet
Validated: 5
AlternateSubs2: "'aalt' Access All Alternates lookup 0 subtable" s
EndChar

StartChar: Obreve
Encoding: 359 334 359
Width: 800
GlyphClass: 2
Flags: W
HStem: 0 100<200 500> 100 100<100 200 500 600> 600 100<100 200 500 600> 700 100<200 500> 900 100<200 500> 1000 100<100 200 500 600>
VStem: 0 100<200 600> 100 100<100 200 600 700 1000 1100> 200 300<0 100 700 800> 500 100<100 200 600 700 1000 1100> 600 100<200 600>
LayerCount: 2
Fore
SplineSet
100 1100 m 1x05
 200 1100 l 1x05
 200 1000 l 1x09
 100 1000 l 1
 100 1100 l 1x05
500 1100 m 1x0440
 600 1100 l 1
 600 1000 l 1x0440
 500 1000 l 1x0840
 500 1100 l 1x0440
200 1000 m 1x09
 500 1000 l 1
 500 900 l 1x0940
 200 900 l 1x0880
 200 1000 l 1x09
EndSplineSet
Refer: 14 79 N 1 0 0 1 0 0 2
Validated: 5
AlternateSubs2: "'aalt' Access All Alternates lookup 0 subtable" obreve.sc
EndChar

StartChar: napostrophe
Encoding: 363 329 363
Width: 1000
GlyphClass: 2
Flags: W
HStem: 0 100<300 400 600 700 800 900> 500 100<0 100 300 400 600 700> 600 200<100 200>
VStem: 0 100<500 600> 100 100<600 800> 300 200<0 100 500 600> 400 100<100 400> 400 200<400 500> 600 200<500 600> 700 100<100 500>
LayerCount: 2
Fore
SplineSet
100 800 m 1xa8
 200 800 l 1
 200 600 l 1xa8
 100 600 l 1
 100 500 l 1
 0 500 l 1
 0 600 l 1
 100 600 l 1xd0
 100 800 l 1xa8
EndSplineSet
Refer: 50 110 N 1 0 0 1 300 0 2
Validated: 5
EndChar

StartChar: IJ
Encoding: 364 306 364
Width: 800
GlyphClass: 2
Flags: W
HStem: -200 200<300 400> -200 100<400 500> 0 100<0 100 200 300> 700 100<0 100 200 300 400 500 600 700>
VStem: 0 300<0 100 700 800> 300 200<-200 -100> 300 100<-100 0> 500 100<-100 700>
LayerCount: 2
Fore
SplineSet
0 800 m 1x38
 300 800 l 1
 300 700 l 1
 200 700 l 1
 200 100 l 1
 300 100 l 1x38
 300 0 l 1x98
 400 0 l 1x92
 400 -100 l 1x52
 500 -100 l 1
 500 -200 l 1x54
 300 -200 l 1x94
 300 0 l 1x98
 0 0 l 1
 0 100 l 1
 100 100 l 1
 100 700 l 1
 0 700 l 1
 0 800 l 1x38
400 800 m 1x53
 700 800 l 1
 700 700 l 1
 600 700 l 1
 600 -100 l 1x53
 500 -100 l 1x54
 500 700 l 1
 400 700 l 1
 400 800 l 1x53
EndSplineSet
Validated: 5
AlternateSubs2: "'aalt' Access All Alternates lookup 0 subtable" ij.sc
EndChar

StartChar: iecyrlukrn
Encoding: 393 1108 393
Width: 500
GlyphClass: 2
Flags: W
HStem: 0 100<100 300> 100 100<300 400> 300 100<100 200> 400 200<300 400> 500 100<100 300>
VStem: 0 200<300 400> 0 100<100 300 400 500> 100 200<0 100> 300 100<100 200 400 500>
LayerCount: 2
Fore
SplineSet
100 600 m 1x09
 400 600 l 1
 400 400 l 1
 300 400 l 1x1080
 300 500 l 1
 100 500 l 1x0a80
 100 600 l 1x09
300 200 m 1x4080
 400 200 l 1
 400 100 l 1x4080
 300 100 l 1x81
 300 200 l 1x4080
100 500 m 1x4a
 100 400 l 1x6a
 200 400 l 1
 200 300 l 1x6c
 100 300 l 1
 100 100 l 1xaa
 0 100 l 1
 0 500 l 1
 100 500 l 1x4a
100 100 m 1x82
 300 100 l 1
 300 0 l 1
 100 0 l 1x81
 100 100 l 1x82
EndSplineSet
Validated: 5
AlternateSubs2: "'aalt' Access All Alternates lookup 0 subtable" iecyrlukrn.sc
EndChar

StartChar: PEcyrl
Encoding: 394 1055 394
Width: 800
GlyphClass: 2
Flags: W
HStem: 0 100<0 100 200 300 400 500 600 700> 700 100<0 100 200 500 600 700>
VStem: 100 100<100 700> 500 100<100 700>
LayerCount: 2
Fore
SplineSet
0 800 m 1
 700 800 l 1
 700 700 l 1
 600 700 l 1
 600 100 l 1
 700 100 l 1
 700 0 l 1
 400 0 l 1
 400 100 l 1
 500 100 l 1
 500 700 l 1
 200 700 l 1
 200 100 l 1
 300 100 l 1
 300 0 l 1
 0 0 l 1
 0 100 l 1
 100 100 l 1
 100 700 l 1
 0 700 l 1
 0 800 l 1
EndSplineSet
Validated: 1
AlternateSubs2: "'aalt' Access All Alternates lookup 0 subtable" pecyrl.sc
EndChar

StartChar: IEcyrlukrn
Encoding: 395 1028 395
Width: 600
GlyphClass: 2
Flags: W
HStem: 0 100<200 400> 100 100<100 200 400 500> 400 100<100 400> 600 100<100 200> 700 100<200 400>
VStem: 0 100<200 400 500 600> 100 100<100 200 600 700> 200 200<0 100> 400 100<100 200 600 700>
LayerCount: 2
Fore
SplineSet
400 200 m 1x6080
 500 200 l 1
 500 100 l 1x6080
 400 100 l 1xa1
 400 200 l 1x6080
200 800 m 1x29
 500 800 l 1x2880
 500 600 l 1
 400 600 l 1x3080
 400 700 l 1x2880
 200 700 l 1x3280
 200 800 l 1x29
400 100 m 1xa1
 400 0 l 1
 200 0 l 1xa1
 200 100 l 1xa2
 400 100 l 1xa1
200 100 m 1xa2
 100 100 l 1x62
 100 200 l 1
 0 200 l 1
 0 600 l 1
 100 600 l 1x74
 100 700 l 1
 200 700 l 1
 200 600 l 1x72
 100 600 l 1
 100 500 l 1
 400 500 l 1
 400 400 l 1
 100 400 l 1
 100 200 l 1x7480
 200 200 l 1x72
 200 100 l 1xa2
EndSplineSet
Validated: 5
AlternateSubs2: "'aalt' Access All Alternates lookup 0 subtable" iecyrlukrn.sc
EndChar

StartChar: GJEcyrl
Encoding: 396 1027 396
Width: 600
GlyphClass: 2
Flags: W
HStem: 0 100<0 100 200 300> 600 200<400 500> 700 100<0 100 200 400> 900 100<100 200> 1000 100<200 300>
VStem: 100 100<100 700 900 1000> 200 100<1000 1100> 400 100<600 700>
LayerCount: 2
Fore
SplineSet
0 800 m 1xa5
 500 800 l 1
 500 600 l 1
 400 600 l 1xc5
 400 700 l 1
 200 700 l 1
 200 100 l 1xa5
 300 100 l 1
 300 0 l 1xa3
 0 0 l 1
 0 100 l 1
 100 100 l 1
 100 700 l 1
 0 700 l 1
 0 800 l 1xa5
EndSplineSet
Refer: 191 180 N 1 0 0 1 100 300 2
Validated: 5
AlternateSubs2: "'aalt' Access All Alternates lookup 0 subtable" gjecyrl.sc
EndChar

StartChar: NJEcyrl
Encoding: 397 1034 397
Width: 1000
GlyphClass: 2
Flags: W
HStem: 0 100<0 100 200 300 400 500 600 800> 400 100<200 500 600 800> 700 100<0 100 200 300 400 500 600 700>
VStem: 0 300<0 100 700 800> 100 100<100 400 500 700> 500 100<100 400 500 700> 800 100<100 400>
LayerCount: 2
Fore
SplineSet
400 800 m 1xee
 700 800 l 1
 700 700 l 1
 600 700 l 1
 600 500 l 1
 800 500 l 1
 800 400 l 1
 900 400 l 1
 900 100 l 1
 800 100 l 1
 800 0 l 1
 400 0 l 1
 400 100 l 1
 500 100 l 1
 500 400 l 1
 200 400 l 1
 200 100 l 1xee
 300 100 l 1
 300 0 l 1
 0 0 l 1
 0 100 l 1xf6
 100 100 l 1
 100 700 l 1xee
 0 700 l 1
 0 800 l 1
 300 800 l 1
 300 700 l 1xf6
 200 700 l 1
 200 500 l 1
 500 500 l 1
 500 700 l 1
 400 700 l 1
 400 800 l 1xee
800 100 m 1
 800 400 l 1
 600 400 l 1
 600 100 l 1
 800 100 l 1
EndSplineSet
Validated: 5
AlternateSubs2: "'aalt' Access All Alternates lookup 0 subtable" njecyrl.sc
EndChar

StartChar: LJEcyrl
Encoding: 398 1033 398
Width: 1000
GlyphClass: 2
Flags: W
HStem: 0 200<0 100> 0 100<100 200 400 500 600 800> 400 100<600 800> 700 100<100 200 300 500 600 700>
VStem: 0 200<0 100> 0 100<100 200> 200 100<100 700> 500 100<100 400 500 700> 800 100<100 400>
LayerCount: 2
Fore
SplineSet
0 200 m 1xb580
 100 200 l 1xb580
 100 100 l 1x7580
 200 100 l 1x7980
 200 700 l 1
 100 700 l 1
 100 800 l 1
 700 800 l 1
 700 700 l 1
 600 700 l 1
 600 500 l 1
 800 500 l 1
 800 400 l 1
 900 400 l 1
 900 100 l 1
 800 100 l 1
 800 0 l 1
 400 0 l 1
 400 100 l 1
 500 100 l 1
 500 700 l 1
 300 700 l 1
 300 100 l 1x7780
 200 100 l 1
 200 0 l 1x7980
 0 0 l 1xb980
 0 200 l 1xb580
800 400 m 1
 600 400 l 1
 600 100 l 1
 800 100 l 1x7180
 800 400 l 1
EndSplineSet
Validated: 5
AlternateSubs2: "'aalt' Access All Alternates lookup 0 subtable" ljecyrl.sc
EndChar

StartChar: BEcyrl
Encoding: 399 1041 399
Width: 600
GlyphClass: 2
Flags: W
HStem: 0 100<0 100 200 400> 400 100<200 400> 600 200<400 500> 700 100<0 100 200 400>
VStem: 100 100<100 400 500 700> 400 100<100 400 600 700>
LayerCount: 2
Fore
SplineSet
100 100 m 1xdc
 100 700 l 1
 0 700 l 1
 0 800 l 1xdc
 500 800 l 1
 500 600 l 1
 400 600 l 1xec
 400 700 l 1
 200 700 l 1
 200 500 l 1
 400 500 l 1
 400 400 l 1
 500 400 l 1
 500 100 l 1
 400 100 l 1
 400 0 l 1
 0 0 l 1
 0 100 l 1
 100 100 l 1xdc
400 100 m 1
 400 400 l 1
 200 400 l 1
 200 100 l 1
 400 100 l 1
EndSplineSet
Validated: 5
AlternateSubs2: "'aalt' Access All Alternates lookup 0 subtable" becyrl.sc
EndChar

StartChar: GHEcyrl
Encoding: 400 1043 400
Width: 600
GlyphClass: 2
Flags: W
HStem: 0 100<0 100 200 300> 600 200<400 500> 700 100<0 100 200 400>
VStem: 100 100<100 700> 400 100<600 700>
LayerCount: 2
Fore
SplineSet
0 800 m 1xb8
 500 800 l 1
 500 600 l 1
 400 600 l 1xd8
 400 700 l 1
 200 700 l 1
 200 100 l 1
 300 100 l 1
 300 0 l 1
 0 0 l 1
 0 100 l 1
 100 100 l 1
 100 700 l 1
 0 700 l 1
 0 800 l 1xb8
EndSplineSet
Validated: 1
AlternateSubs2: "'aalt' Access All Alternates lookup 0 subtable" ghecyrl.sc
EndChar

StartChar: TSEcyrl
Encoding: 401 1062 401
Width: 800
GlyphClass: 2
Flags: W
HStem: 0 100<0 100 200 500> 700 100<0 100 200 300 400 500 600 700>
VStem: 100 100<100 700> 500 100<100 700> 600 100<-200 0>
LayerCount: 2
Fore
SplineSet
0 800 m 1xe8
 300 800 l 1
 300 700 l 1
 200 700 l 1
 200 100 l 1
 500 100 l 1
 500 700 l 1xf0
 400 700 l 1
 400 800 l 1
 700 800 l 1
 700 700 l 1xe8
 600 700 l 1
 600 100 l 1xf0
 700 100 l 1
 700 -200 l 1
 600 -200 l 1
 600 0 l 1
 0 0 l 1
 0 100 l 1
 100 100 l 1
 100 700 l 1
 0 700 l 1
 0 800 l 1xe8
EndSplineSet
Validated: 1
AlternateSubs2: "'aalt' Access All Alternates lookup 0 subtable" tsecyrl.sc
EndChar

StartChar: SHAcyrl
Encoding: 402 1064 402
Width: 1000
GlyphClass: 2
Flags: W
HStem: 0 100<0 100 200 400 500 700 800 900> 700 100<0 100 300 400 600 700 800 900>
VStem: 0 200<700 800> 100 100<100 700> 300 200<700 800> 400 100<100 700> 700 100<100 700>
LayerCount: 2
Fore
SplineSet
0 800 m 1xe2
 200 800 l 1xe2
 200 100 l 1
 400 100 l 1
 400 700 l 1xd6
 300 700 l 1
 300 800 l 1
 500 800 l 1xca
 500 100 l 1
 700 100 l 1
 700 700 l 1
 600 700 l 1
 600 800 l 1
 900 800 l 1
 900 700 l 1
 800 700 l 1
 800 100 l 1
 900 100 l 1
 900 0 l 1
 0 0 l 1
 0 100 l 1xe6
 100 100 l 1
 100 700 l 1xd2
 0 700 l 1
 0 800 l 1xe2
EndSplineSet
Validated: 1
AlternateSubs2: "'aalt' Access All Alternates lookup 0 subtable" shacyrl.sc
EndChar

StartChar: SHCHAcyrl
Encoding: 403 1065 403
Width: 1000
GlyphClass: 2
Flags: W
HStem: 0 100<0 100 200 400 500 700> 700 100<0 100 300 400 600 700 800 900>
VStem: 0 200<700 800> 100 100<100 700> 300 200<700 800> 400 100<100 700> 700 100<100 700> 800 100<-200 0>
LayerCount: 2
Fore
SplineSet
0 800 m 1xe0
 200 800 l 1xe0
 200 100 l 1
 400 100 l 1
 400 700 l 1xd4
 300 700 l 1
 300 800 l 1
 500 800 l 1xc8
 500 100 l 1
 700 100 l 1
 700 700 l 1xc6
 600 700 l 1
 600 800 l 1
 900 800 l 1
 900 700 l 1xc1
 800 700 l 1
 800 100 l 1xc2
 900 100 l 1
 900 -200 l 1
 800 -200 l 1
 800 0 l 1
 0 0 l 1
 0 100 l 1xe1
 100 100 l 1
 100 700 l 1xd0
 0 700 l 1
 0 800 l 1xe0
EndSplineSet
Validated: 1
AlternateSubs2: "'aalt' Access All Alternates lookup 0 subtable" shchacyrl.sc
EndChar

StartChar: HARDcyrl
Encoding: 404 1066 404
Width: 700
GlyphClass: 2
Flags: W
HStem: 0 100<100 200 300 500> 400 100<300 500> 600 200<0 100> 700 100<100 200 300 400>
VStem: 0 100<600 700> 200 100<100 400 500 700> 500 100<100 400>
LayerCount: 2
Fore
SplineSet
500 400 m 1xce
 600 400 l 1
 600 100 l 1
 500 100 l 1
 500 400 l 1xce
500 400 m 1
 300 400 l 1
 300 100 l 1
 500 100 l 1
 500 0 l 1
 100 0 l 1
 100 100 l 1
 200 100 l 1
 200 700 l 1
 100 700 l 1xde
 100 600 l 1
 0 600 l 1
 0 800 l 1xee
 400 800 l 1
 400 700 l 1
 300 700 l 1xde
 300 500 l 1
 500 500 l 1
 500 400 l 1
EndSplineSet
Validated: 5
AlternateSubs2: "'aalt' Access All Alternates lookup 0 subtable" hardcyrl.sc
EndChar

